<svg width="1442" height="220" viewBox="0 0 1442 220" version="1.1" xmlns="http://www.w3.org/2000/svg" xmlns:xlink="http://www.w3.org/1999/xlink">
<title>Frame</title>
<desc>Created using Figma</desc>
<g id="Canvas" transform="matrix(2 0 0 2 2642 1210)">
<clipPath id="clip-0" clip-rule="evenodd">
<path d="M -1321 -605L -600 -605L -600 -495L -1321 -495L -1321 -605Z" fill="#FFFFFF"/>
</clipPath>
<g id="Frame" clip-path="url(#clip-0)">
<path d="M -1321 -605L -600 -605L -600 -495L -1321 -495L -1321 -605Z" fill="#FFFFFF"/>
<g id="Rectangle">
<use xlink:href="#path0_stroke" transform="translate(-1017 -565)"/>
</g>
<g id="Rectangle">
<use xlink:href="#path0_stroke" transform="translate(-985.9 -565)"/>
</g>
<g id="il.track_id">
<use xlink:href="#path1_fill" transform="translate(-1191 -584)"/>
</g>
<g id="Rectangle">
<use xlink:href="#path2_stroke" transform="translate(-1307 -565)"/>
</g>
<g id="Rectangle">
<use xlink:href="#path2_stroke" transform="translate(-1274.5 -565)"/>
</g>
<g id="Rectangle">
<use xlink:href="#path2_stroke" transform="translate(-1242 -565)"/>
</g>
<g id="Rectangle">
<use xlink:href="#path2_stroke" transform="translate(-1209.5 -565)"/>
</g>
<g id="Rectangle">
<use xlink:href="#path3_fill" transform="translate(-1177 -565)" fill="#FFFFFF"/>
<use xlink:href="#path4_stroke" transform="translate(-1177 -565)"/>
</g>
<g id="2516">
<use xlink:href="#path5_fill" transform="translate(-1174.85 -560)"/>
</g>
<g id="Rectangle">
<use xlink:href="#path3_fill" transform="translate(-1097 -565)" fill="#FFFFFF"/>
<use xlink:href="#path4_stroke" transform="translate(-1097 -565)"/>
</g>
<g id="2516">
<use xlink:href="#path6_fill" transform="translate(-1093.23 -560)"/>
</g>
<g id="t.track_id">
<use xlink:href="#path7_fill" transform="translate(-1111 -585)"/>
</g>
<g id="Rectangle">
<use xlink:href="#path0_stroke" transform="translate(-1017 -540)"/>
</g>
<g id="Rectangle">
<use xlink:href="#path0_stroke" transform="translate(-985.9 -540)"/>
</g>
<g id="Rectangle">
<use xlink:href="#path8_stroke" transform="translate(-647 -565)"/>
</g>
<g id="Rectangle">
<use xlink:href="#path8_stroke" transform="translate(-924 -565)"/>
</g>
<g id="Rectangle">
<use xlink:href="#path8_stroke" transform="translate(-647 -540)"/>
</g>
<g id="Rectangle">
<use xlink:href="#path8_stroke" transform="translate(-955 -565)"/>
</g>
<g id="Rectangle">
<use xlink:href="#path8_stroke" transform="translate(-955 -540)"/>
</g>
<g id="Rectangle">
<use xlink:href="#path8_stroke" transform="translate(-924 -540)"/>
</g>
<g id="Rectangle">
<use xlink:href="#path2_stroke" transform="translate(-1307 -540)"/>
</g>
<g id="Rectangle">
<use xlink:href="#path2_stroke" transform="translate(-1274.5 -540)"/>
</g>
<g id="Rectangle">
<use xlink:href="#path2_stroke" transform="translate(-1242 -540)"/>
</g>
<g id="Rectangle">
<use xlink:href="#path2_stroke" transform="translate(-1209.5 -540)"/>
</g>
<g id="Rectangle">
<use xlink:href="#path3_fill" transform="translate(-1177 -540)" fill="#FFFFFF"/>
<use xlink:href="#path4_stroke" transform="translate(-1177 -540)"/>
</g>
<g id="2646">
<use xlink:href="#path9_fill" transform="translate(-1174.85 -535)"/>
</g>
<g id="Rectangle">
<use xlink:href="#path3_fill" transform="translate(-1097 -540)" fill="#FFFFFF"/>
<use xlink:href="#path4_stroke" transform="translate(-1097 -540)"/>
</g>
<g id="2646">
<use xlink:href="#path10_fill" transform="translate(-1095.18 -535)"/>
</g>
<g id="Rectangle">
<use xlink:href="#path11_fill" transform="translate(-893 -565)" fill="#56CCF2"/>
<use xlink:href="#path12_stroke" transform="translate(-893 -565)"/>
</g>
<g id="1">
<use xlink:href="#path13_fill" transform="translate(-887.199 -560)"/>
</g>
<g id="t.media_type_id">
<use xlink:href="#path14_fill" transform="translate(-889.846 -585)"/>
</g>
<g id="Rectangle">
<use xlink:href="#path11_fill" transform="translate(-893 -540)" fill="#56CCF2"/>
<use xlink:href="#path12_stroke" transform="translate(-893 -540)"/>
</g>
<g id="1">
<use xlink:href="#path15_fill" transform="translate(-890.204 -535)"/>
</g>
<g id="Rectangle">
<use xlink:href="#path11_fill" transform="translate(-770 -565)" fill="#56CCF2"/>
<use xlink:href="#path12_stroke" transform="translate(-770 -565)"/>
</g>
<g id="1">
<use xlink:href="#path13_fill" transform="translate(-764.199 -560)"/>
</g>
<g id="mt.media_type_id">
<use xlink:href="#path16_fill" transform="translate(-766.846 -585)"/>
</g>
<g id="Rectangle">
<use xlink:href="#path11_fill" transform="translate(-770 -540)" fill="#56CCF2"/>
<use xlink:href="#path12_stroke" transform="translate(-770 -540)"/>
</g>
<g id="1">
<use xlink:href="#path15_fill" transform="translate(-767.204 -535)"/>
</g>
</g>
</g>
<defs>
<path id="path0_stroke" d="M 0 0L 0 -0.5L -0.5 -0.5L -0.5 0L 0 0ZM 31.1 0L 31.6 0L 31.6 -0.5L 31.1 -0.5L 31.1 0ZM 31.1 25L 31.1 25.5L 31.6 25.5L 31.6 25L 31.1 25ZM 0 25L -0.5 25L -0.5 25.5L 0 25.5L 0 25ZM 0 0.5L 31.1 0.5L 31.1 -0.5L 0 -0.5L 0 0.5ZM 30.6 0L 30.6 25L 31.6 25L 31.6 0L 30.6 0ZM 31.1 24.5L 0 24.5L 0 25.5L 31.1 25.5L 31.1 24.5ZM 0.5 25L 0.5 0L -0.5 0L -0.5 25L 0.5 25Z"/>
<path id="path1_fill" d="M 26.0477 13L 24.0653 13L 24.0653 5.60352L 26.0477 5.60352L 26.0477 13ZM 23.949 3.68945C 23.949 3.39323 24.047 3.14941 24.243 2.95801C 24.4435 2.7666 24.7147 2.6709 25.0565 2.6709C 25.3937 2.6709 25.6626 2.7666 25.8631 2.95801C 26.0636 3.14941 26.1639 3.39323 26.1639 3.68945C 26.1639 3.99023 26.0613 4.23633 25.8563 4.42773C 25.6557 4.61914 25.3891 4.71484 25.0565 4.71484C 24.7238 4.71484 24.4549 4.61914 24.2498 4.42773C 24.0493 4.23633 23.949 3.99023 23.949 3.68945ZM 29.7664 13L 27.784 13L 27.784 2.5L 29.7664 2.5L 29.7664 13ZM 31.5028 12.0293C 31.5028 11.7148 31.6076 11.4596 31.8172 11.2637C 32.0314 11.0677 32.298 10.9697 32.617 10.9697C 32.9406 10.9697 33.2072 11.0677 33.4168 11.2637C 33.631 11.4596 33.7381 11.7148 33.7381 12.0293C 33.7381 12.3392 33.6333 12.5921 33.4236 12.7881C 33.214 12.9795 32.9451 13.0752 32.617 13.0752C 32.2934 13.0752 32.0268 12.9795 31.8172 12.7881C 31.6076 12.5921 31.5028 12.3392 31.5028 12.0293ZM 37.8397 3.78516L 37.8397 5.60352L 39.1043 5.60352L 39.1043 7.05273L 37.8397 7.05273L 37.8397 10.7441C 37.8397 11.0176 37.8921 11.2135 37.9969 11.332C 38.1017 11.4505 38.3022 11.5098 38.5985 11.5098C 38.8172 11.5098 39.0109 11.4938 39.1795 11.4619L 39.1795 12.959C 38.7921 13.0775 38.3934 13.1367 37.9832 13.1367C 36.5978 13.1367 35.8914 12.4372 35.8641 11.0381L 35.8641 7.05273L 34.784 7.05273L 34.784 5.60352L 35.8641 5.60352L 35.8641 3.78516L 37.8397 3.78516ZM 44.3611 7.45605C 44.0923 7.4196 43.8553 7.40137 43.6502 7.40137C 42.9028 7.40137 42.4129 7.6543 42.1805 8.16016L 42.1805 13L 40.2049 13L 40.2049 5.60352L 42.0711 5.60352L 42.1258 6.48535C 42.5223 5.80631 43.0714 5.4668 43.7733 5.4668C 43.992 5.4668 44.1971 5.49642 44.3885 5.55566L 44.3611 7.45605ZM 49.3992 13C 49.3081 12.8223 49.242 12.6012 49.201 12.3369C 48.7225 12.8701 48.1004 13.1367 47.3348 13.1367C 46.6102 13.1367 46.0086 12.9271 45.5301 12.5078C 45.0561 12.0885 44.8192 11.5599 44.8192 10.9219C 44.8192 10.138 45.1085 9.53646 45.6873 9.11719C 46.2707 8.69792 47.1115 8.486 48.2098 8.48145L 49.119 8.48145L 49.119 8.05762C 49.119 7.71582 49.0301 7.44238 48.8524 7.2373C 48.6792 7.03223 48.4035 6.92969 48.0252 6.92969C 47.6925 6.92969 47.4305 7.00944 47.2391 7.16895C 47.0522 7.32845 46.9588 7.5472 46.9588 7.8252L 44.9832 7.8252C 44.9832 7.39681 45.1154 7.00033 45.3797 6.63574C 45.644 6.27116 46.0177 5.98633 46.5008 5.78125C 46.9839 5.57161 47.5262 5.4668 48.1278 5.4668C 49.0392 5.4668 49.7615 5.69694 50.2947 6.15723C 50.8325 6.61296 51.1014 7.25553 51.1014 8.08496L 51.1014 11.291C 51.1059 11.9928 51.2039 12.5238 51.3953 12.8838L 51.3953 13L 49.3992 13ZM 47.7654 11.626C 48.0571 11.626 48.326 11.5622 48.5721 11.4346C 48.8182 11.3024 49.0005 11.127 49.119 10.9082L 49.119 9.63672L 48.3807 9.63672C 47.3917 9.63672 46.8654 9.97852 46.8016 10.6621L 46.7947 10.7783C 46.7947 11.0244 46.8813 11.2272 47.0545 11.3867C 47.2277 11.5462 47.4647 11.626 47.7654 11.626ZM 55.6951 11.5439C 56.0597 11.5439 56.3559 11.4437 56.5838 11.2432C 56.8117 11.0426 56.9302 10.776 56.9393 10.4434L 58.7918 10.4434C 58.7873 10.9447 58.6505 11.4049 58.3817 11.8242C 58.1128 12.2389 57.7436 12.5625 57.2742 12.7949C 56.8094 13.0228 56.2944 13.1367 55.7293 13.1367C 54.672 13.1367 53.838 12.8018 53.2274 12.1318C 52.6167 11.4574 52.3113 10.5277 52.3113 9.34277L 52.3113 9.21289C 52.3113 8.07357 52.6144 7.16439 53.2205 6.48535C 53.8266 5.80631 54.6583 5.4668 55.7156 5.4668C 56.6408 5.4668 57.3813 5.73112 57.9373 6.25977C 58.4979 6.78385 58.7827 7.4834 58.7918 8.3584L 56.9393 8.3584C 56.9302 7.97559 56.8117 7.66569 56.5838 7.42871C 56.3559 7.18717 56.0552 7.06641 55.6815 7.06641C 55.2212 7.06641 54.8725 7.23503 54.6356 7.57227C 54.4031 7.90495 54.2869 8.44727 54.2869 9.19922L 54.2869 9.4043C 54.2869 10.1654 54.4031 10.7122 54.6356 11.0449C 54.868 11.3776 55.2212 11.5439 55.6951 11.5439ZM 62.6063 10.0332L 61.8953 10.7441L 61.8953 13L 59.9197 13L 59.9197 2.5L 61.8953 2.5L 61.8953 8.31738L 62.2781 7.8252L 64.1717 5.60352L 66.5438 5.60352L 63.8709 8.68652L 66.7762 13L 64.5067 13L 62.6063 10.0332ZM 72.8738 14.5449L 66.6463 14.5449L 66.6463 13L 72.8738 13L 72.8738 14.5449ZM 75.7313 13L 73.7488 13L 73.7488 5.60352L 75.7313 5.60352L 75.7313 13ZM 73.6326 3.68945C 73.6326 3.39323 73.7306 3.14941 73.9266 2.95801C 74.1271 2.7666 74.3983 2.6709 74.7401 2.6709C 75.0773 2.6709 75.3462 2.7666 75.5467 2.95801C 75.7472 3.14941 75.8475 3.39323 75.8475 3.68945C 75.8475 3.99023 75.7449 4.23633 75.5399 4.42773C 75.3393 4.61914 75.0727 4.71484 74.7401 4.71484C 74.4074 4.71484 74.1385 4.61914 73.9334 4.42773C 73.7329 4.23633 73.6326 3.99023 73.6326 3.68945ZM 77.0574 9.24707C 77.0574 8.09408 77.3149 7.17578 77.8299 6.49219C 78.3494 5.80859 79.0581 5.4668 79.9559 5.4668C 80.6759 5.4668 81.2707 5.73568 81.7401 6.27344L 81.7401 2.5L 83.7225 2.5L 83.7225 13L 81.9383 13L 81.8426 12.2139C 81.3504 12.8291 80.7169 13.1367 79.9422 13.1367C 79.0718 13.1367 78.3722 12.7949 77.8436 12.1113C 77.3195 11.4232 77.0574 10.4684 77.0574 9.24707ZM 79.033 9.39062C 79.033 10.0833 79.1538 10.6143 79.3953 10.9834C 79.6369 11.3525 79.9878 11.5371 80.4481 11.5371C 81.0587 11.5371 81.4894 11.2796 81.7401 10.7646L 81.7401 7.8457C 81.494 7.33073 81.0679 7.07324 80.4617 7.07324C 79.5093 7.07324 79.033 7.8457 79.033 9.39062Z"/>
<path id="path2_stroke" d="M 0 0L 0 -0.5L -0.5 -0.5L -0.5 0L 0 0ZM 32.5 0L 33 0L 33 -0.5L 32.5 -0.5L 32.5 0ZM 32.5 25L 32.5 25.5L 33 25.5L 33 25L 32.5 25ZM 0 25L -0.5 25L -0.5 25.5L 0 25.5L 0 25ZM 0 0.5L 32.5 0.5L 32.5 -0.5L 0 -0.5L 0 0.5ZM 32 0L 32 25L 33 25L 33 0L 32 0ZM 32.5 24.5L 0 24.5L 0 25.5L 32.5 25.5L 32.5 24.5ZM 0.5 25L 0.5 0L -0.5 0L -0.5 25L 0.5 25Z"/>
<path id="path3_fill" d="M 0 0L 80 0L 80 25L 0 25L 0 0Z"/>
<path id="path4_stroke" d="M 0 0L 0 -0.5L -0.5 -0.5L -0.5 0L 0 0ZM 80 0L 80.5 0L 80.5 -0.5L 80 -0.5L 80 0ZM 80 25L 80 25.5L 80.5 25.5L 80.5 25L 80 25ZM 0 25L -0.5 25L -0.5 25.5L 0 25.5L 0 25ZM 0 0.5L 80 0.5L 80 -0.5L 0 -0.5L 0 0.5ZM 79.5 0L 79.5 25L 80.5 25L 80.5 0L 79.5 0ZM 80 24.5L 0 24.5L 0 25.5L 80 25.5L 80 24.5ZM 0.5 25L 0.5 0L -0.5 0L -0.5 25L 0.5 25Z"/>
<path id="path5_fill" d="M 30.2623 13L 23.7409 13L 23.7409 12.0908L 27.1862 8.2627C 27.6966 7.68392 28.0475 7.21452 28.2389 6.85449C 28.4349 6.48991 28.5328 6.11393 28.5328 5.72656C 28.5328 5.20703 28.3756 4.78092 28.0612 4.44824C 27.7467 4.11556 27.3274 3.94922 26.8034 3.94922C 26.1744 3.94922 25.6845 4.12923 25.3336 4.48926C 24.9873 4.84473 24.8141 5.34147 24.8141 5.97949L 23.5494 5.97949C 23.5494 5.06348 23.8434 4.32292 24.4313 3.75781C 25.0237 3.19271 25.8144 2.91016 26.8034 2.91016C 27.7285 2.91016 28.4599 3.15397 28.9977 3.6416C 29.5355 4.12467 29.8043 4.76953 29.8043 5.57617C 29.8043 6.55599 29.18 7.72266 27.9313 9.07617L 25.2653 11.9678L 30.2623 11.9678L 30.2623 13ZM 32.1832 8.00977L 32.6891 3.04688L 37.7887 3.04688L 37.7887 4.21582L 33.7623 4.21582L 33.4616 6.92969C 33.9492 6.64258 34.5029 6.49902 35.1227 6.49902C 36.0296 6.49902 36.7496 6.7998 37.2828 7.40137C 37.8161 7.99837 38.0827 8.80729 38.0827 9.82812C 38.0827 10.8535 37.8047 11.6624 37.2487 12.2549C 36.6972 12.8428 35.9248 13.1367 34.9313 13.1367C 34.0517 13.1367 33.334 12.8929 32.778 12.4053C 32.222 11.9176 31.9052 11.2432 31.8278 10.3818L 33.0241 10.3818C 33.1015 10.9515 33.3043 11.3822 33.6325 11.6738C 33.9606 11.9609 34.3935 12.1045 34.9313 12.1045C 35.5192 12.1045 35.9795 11.904 36.3121 11.5029C 36.6494 11.1019 36.818 10.5482 36.818 9.8418C 36.818 9.17643 36.6357 8.64323 36.2711 8.24219C 35.9111 7.83659 35.4303 7.63379 34.8287 7.63379C 34.2773 7.63379 33.8444 7.75456 33.5299 7.99609L 33.195 8.26953L 32.1832 8.00977ZM 43.6198 13L 42.3483 13L 42.3483 4.57129L 39.7985 5.50781L 39.7985 4.35938L 43.4215 2.99902L 43.6198 2.99902L 43.6198 13ZM 52.2877 3.04004L 52.2877 4.11328L 52.0553 4.11328C 51.0709 4.13151 50.2871 4.42318 49.7037 4.98828C 49.1204 5.55339 48.7832 6.34863 48.692 7.37402C 49.2161 6.77246 49.9316 6.47168 50.8385 6.47168C 51.7044 6.47168 52.3948 6.77702 52.9098 7.3877C 53.4293 7.99837 53.6891 8.78678 53.6891 9.75293C 53.6891 10.7783 53.4088 11.5986 52.8483 12.2139C 52.2923 12.8291 51.5449 13.1367 50.6061 13.1367C 49.6536 13.1367 48.8812 12.7721 48.2887 12.043C 47.6963 11.3092 47.4 10.3659 47.4 9.21289L 47.4 8.72754C 47.4 6.89551 47.7897 5.49642 48.569 4.53027C 49.3528 3.55957 50.5172 3.06283 52.0621 3.04004L 52.2877 3.04004ZM 50.6266 7.52441C 50.1937 7.52441 49.7949 7.6543 49.4303 7.91406C 49.0657 8.17383 48.8128 8.49967 48.6715 8.8916L 48.6715 9.35645C 48.6715 10.1768 48.8561 10.8376 49.2252 11.3389C 49.5944 11.8402 50.0547 12.0908 50.6061 12.0908C 51.1758 12.0908 51.6224 11.8812 51.9459 11.4619C 52.2741 11.0426 52.4381 10.4935 52.4381 9.81445C 52.4381 9.13086 52.2718 8.57943 51.9391 8.16016C 51.611 7.73633 51.1735 7.52441 50.6266 7.52441Z"/>
<path id="path6_fill" d="M 29.2964 13L 22.7749 13L 22.7749 12.0908L 26.2203 8.2627C 26.7307 7.68392 27.0816 7.21452 27.273 6.85449C 27.469 6.48991 27.5669 6.11393 27.5669 5.72656C 27.5669 5.20703 27.4097 4.78092 27.0953 4.44824C 26.7808 4.11556 26.3615 3.94922 25.8374 3.94922C 25.2085 3.94922 24.7186 4.12923 24.3677 4.48926C 24.0214 4.84473 23.8482 5.34147 23.8482 5.97949L 22.5835 5.97949C 22.5835 5.06348 22.8775 4.32292 23.4654 3.75781C 24.0578 3.19271 24.8485 2.91016 25.8374 2.91016C 26.7626 2.91016 27.494 3.15397 28.0318 3.6416C 28.5695 4.12467 28.8384 4.76953 28.8384 5.57617C 28.8384 6.55599 28.2141 7.72266 26.9654 9.07617L 24.2994 11.9678L 29.2964 11.9678L 29.2964 13ZM 31.2173 8.00977L 31.7232 3.04688L 36.8228 3.04688L 36.8228 4.21582L 32.7964 4.21582L 32.4956 6.92969C 32.9833 6.64258 33.537 6.49902 34.1568 6.49902C 35.0637 6.49902 35.7837 6.7998 36.3169 7.40137C 36.8501 7.99837 37.1167 8.80729 37.1167 9.82812C 37.1167 10.8535 36.8387 11.6624 36.2828 12.2549C 35.7313 12.8428 34.9589 13.1367 33.9654 13.1367C 33.0858 13.1367 32.368 12.8929 31.8121 12.4053C 31.2561 11.9176 30.9393 11.2432 30.8619 10.3818L 32.0581 10.3818C 32.1356 10.9515 32.3384 11.3822 32.6665 11.6738C 32.9947 11.9609 33.4276 12.1045 33.9654 12.1045C 34.5533 12.1045 35.0136 11.904 35.3462 11.5029C 35.6835 11.1019 35.8521 10.5482 35.8521 9.8418C 35.8521 9.17643 35.6698 8.64323 35.3052 8.24219C 34.9452 7.83659 34.4644 7.63379 33.8628 7.63379C 33.3114 7.63379 32.8785 7.75456 32.564 7.99609L 32.229 8.26953L 31.2173 8.00977ZM 42.6539 13L 41.3824 13L 41.3824 4.57129L 38.8326 5.50781L 38.8326 4.35938L 42.4556 2.99902L 42.6539 2.99902L 42.6539 13ZM 51.3218 3.04004L 51.3218 4.11328L 51.0894 4.11328C 50.105 4.13151 49.3212 4.42318 48.7378 4.98828C 48.1545 5.55339 47.8173 6.34863 47.7261 7.37402C 48.2502 6.77246 48.9657 6.47168 49.8726 6.47168C 50.7385 6.47168 51.4289 6.77702 51.9439 7.3877C 52.4634 7.99837 52.7232 8.78678 52.7232 9.75293C 52.7232 10.7783 52.4429 11.5986 51.8824 12.2139C 51.3264 12.8291 50.579 13.1367 49.6402 13.1367C 48.6877 13.1367 47.9152 12.7721 47.3228 12.043C 46.7303 11.3092 46.4341 10.3659 46.4341 9.21289L 46.4341 8.72754C 46.4341 6.89551 46.8238 5.49642 47.6031 4.53027C 48.3869 3.55957 49.5513 3.06283 51.0962 3.04004L 51.3218 3.04004ZM 49.6607 7.52441C 49.2277 7.52441 48.829 7.6543 48.4644 7.91406C 48.0998 8.17383 47.8469 8.49967 47.7056 8.8916L 47.7056 9.35645C 47.7056 10.1768 47.8902 10.8376 48.2593 11.3389C 48.6285 11.8402 49.0887 12.0908 49.6402 12.0908C 50.2098 12.0908 50.6565 11.8812 50.98 11.4619C 51.3081 11.0426 51.4722 10.4935 51.4722 9.81445C 51.4722 9.13086 51.3059 8.57943 50.9732 8.16016C 50.6451 7.73633 50.2076 7.52441 49.6607 7.52441Z"/>
<path id="path7_fill" d="M 27.6815 3.78516L 27.6815 5.60352L 28.9461 5.60352L 28.9461 7.05273L 27.6815 7.05273L 27.6815 10.7441C 27.6815 11.0176 27.7339 11.2135 27.8387 11.332C 27.9435 11.4505 28.144 11.5098 28.4403 11.5098C 28.659 11.5098 28.8527 11.4938 29.0213 11.4619L 29.0213 12.959C 28.6339 13.0775 28.2352 13.1367 27.825 13.1367C 26.4396 13.1367 25.7332 12.4372 25.7059 11.0381L 25.7059 7.05273L 24.6258 7.05273L 24.6258 5.60352L 25.7059 5.60352L 25.7059 3.78516L 27.6815 3.78516ZM 30.1492 12.0293C 30.1492 11.7148 30.2541 11.4596 30.4637 11.2637C 30.6779 11.0677 30.9445 10.9697 31.2635 10.9697C 31.5871 10.9697 31.8537 11.0677 32.0633 11.2637C 32.2775 11.4596 32.3846 11.7148 32.3846 12.0293C 32.3846 12.3392 32.2798 12.5921 32.0701 12.7881C 31.8605 12.9795 31.5916 13.0752 31.2635 13.0752C 30.9399 13.0752 30.6733 12.9795 30.4637 12.7881C 30.2541 12.5921 30.1492 12.3392 30.1492 12.0293ZM 36.4861 3.78516L 36.4861 5.60352L 37.7508 5.60352L 37.7508 7.05273L 36.4861 7.05273L 36.4861 10.7441C 36.4861 11.0176 36.5386 11.2135 36.6434 11.332C 36.7482 11.4505 36.9487 11.5098 37.2449 11.5098C 37.4637 11.5098 37.6574 11.4938 37.826 11.4619L 37.826 12.959C 37.4386 13.0775 37.0399 13.1367 36.6297 13.1367C 35.2443 13.1367 34.5379 12.4372 34.5106 11.0381L 34.5106 7.05273L 33.4305 7.05273L 33.4305 5.60352L 34.5106 5.60352L 34.5106 3.78516L 36.4861 3.78516ZM 43.0076 7.45605C 42.7388 7.4196 42.5018 7.40137 42.2967 7.40137C 41.5493 7.40137 41.0594 7.6543 40.827 8.16016L 40.827 13L 38.8514 13L 38.8514 5.60352L 40.7176 5.60352L 40.7723 6.48535C 41.1688 5.80631 41.7179 5.4668 42.4197 5.4668C 42.6385 5.4668 42.8436 5.49642 43.035 5.55566L 43.0076 7.45605ZM 48.0457 13C 47.9546 12.8223 47.8885 12.6012 47.8475 12.3369C 47.369 12.8701 46.7469 13.1367 45.9813 13.1367C 45.2567 13.1367 44.6551 12.9271 44.1766 12.5078C 43.7026 12.0885 43.4656 11.5599 43.4656 10.9219C 43.4656 10.138 43.755 9.53646 44.3338 9.11719C 44.9171 8.69792 45.758 8.486 46.8563 8.48145L 47.7654 8.48145L 47.7654 8.05762C 47.7654 7.71582 47.6766 7.44238 47.4988 7.2373C 47.3257 7.03223 47.05 6.92969 46.6717 6.92969C 46.339 6.92969 46.077 7.00944 45.8856 7.16895C 45.6987 7.32845 45.6053 7.5472 45.6053 7.8252L 43.6297 7.8252C 43.6297 7.39681 43.7619 7.00033 44.0262 6.63574C 44.2905 6.27116 44.6642 5.98633 45.1473 5.78125C 45.6304 5.57161 46.1727 5.4668 46.7742 5.4668C 47.6857 5.4668 48.408 5.69694 48.9412 6.15723C 49.479 6.61296 49.7479 7.25553 49.7479 8.08496L 49.7479 11.291C 49.7524 11.9928 49.8504 12.5238 50.0418 12.8838L 50.0418 13L 48.0457 13ZM 46.4119 11.626C 46.7036 11.626 46.9725 11.5622 47.2186 11.4346C 47.4647 11.3024 47.647 11.127 47.7654 10.9082L 47.7654 9.63672L 47.0272 9.63672C 46.0382 9.63672 45.5119 9.97852 45.4481 10.6621L 45.4412 10.7783C 45.4412 11.0244 45.5278 11.2272 45.701 11.3867C 45.8742 11.5462 46.1111 11.626 46.4119 11.626ZM 54.3416 11.5439C 54.7062 11.5439 55.0024 11.4437 55.2303 11.2432C 55.4582 11.0426 55.5766 10.776 55.5858 10.4434L 57.4383 10.4434C 57.4337 10.9447 57.297 11.4049 57.0281 11.8242C 56.7593 12.2389 56.3901 12.5625 55.9207 12.7949C 55.4559 13.0228 54.9409 13.1367 54.3758 13.1367C 53.3185 13.1367 52.4845 12.8018 51.8738 12.1318C 51.2632 11.4574 50.9578 10.5277 50.9578 9.34277L 50.9578 9.21289C 50.9578 8.07357 51.2609 7.16439 51.867 6.48535C 52.4731 5.80631 53.3048 5.4668 54.3621 5.4668C 55.2873 5.4668 56.0278 5.73112 56.5838 6.25977C 57.1444 6.78385 57.4292 7.4834 57.4383 8.3584L 55.5858 8.3584C 55.5766 7.97559 55.4582 7.66569 55.2303 7.42871C 55.0024 7.18717 54.7016 7.06641 54.3279 7.06641C 53.8677 7.06641 53.519 7.23503 53.282 7.57227C 53.0496 7.90495 52.9334 8.44727 52.9334 9.19922L 52.9334 9.4043C 52.9334 10.1654 53.0496 10.7122 53.282 11.0449C 53.5145 11.3776 53.8677 11.5439 54.3416 11.5439ZM 61.2528 10.0332L 60.5418 10.7441L 60.5418 13L 58.5662 13L 58.5662 2.5L 60.5418 2.5L 60.5418 8.31738L 60.9246 7.8252L 62.8182 5.60352L 65.1903 5.60352L 62.5174 8.68652L 65.4227 13L 63.1531 13L 61.2528 10.0332ZM 71.5203 14.5449L 65.2928 14.5449L 65.2928 13L 71.5203 13L 71.5203 14.5449ZM 74.3777 13L 72.3953 13L 72.3953 5.60352L 74.3777 5.60352L 74.3777 13ZM 72.2791 3.68945C 72.2791 3.39323 72.3771 3.14941 72.5731 2.95801C 72.7736 2.7666 73.0447 2.6709 73.3865 2.6709C 73.7238 2.6709 73.9927 2.7666 74.1932 2.95801C 74.3937 3.14941 74.494 3.39323 74.494 3.68945C 74.494 3.99023 74.3914 4.23633 74.1863 4.42773C 73.9858 4.61914 73.7192 4.71484 73.3865 4.71484C 73.0539 4.71484 72.785 4.61914 72.5799 4.42773C 72.3794 4.23633 72.2791 3.99023 72.2791 3.68945ZM 75.7039 9.24707C 75.7039 8.09408 75.9614 7.17578 76.4764 6.49219C 76.9959 5.80859 77.7046 5.4668 78.6024 5.4668C 79.3224 5.4668 79.9171 5.73568 80.3865 6.27344L 80.3865 2.5L 82.369 2.5L 82.369 13L 80.5848 13L 80.4891 12.2139C 79.9969 12.8291 79.3634 13.1367 78.5887 13.1367C 77.7182 13.1367 77.0187 12.7949 76.4901 12.1113C 75.966 11.4232 75.7039 10.4684 75.7039 9.24707ZM 77.6795 9.39062C 77.6795 10.0833 77.8003 10.6143 78.0418 10.9834C 78.2833 11.3525 78.6343 11.5371 79.0945 11.5371C 79.7052 11.5371 80.1359 11.2796 80.3865 10.7646L 80.3865 7.8457C 80.1404 7.33073 79.7143 7.07324 79.1082 7.07324C 78.1557 7.07324 77.6795 7.8457 77.6795 9.39062Z"/>
<path id="path8_stroke" d="M 0 0L 0 -0.5L -0.5 -0.5L -0.5 0L 0 0ZM 31 0L 31.5 0L 31.5 -0.5L 31 -0.5L 31 0ZM 31 25L 31 25.5L 31.5 25.5L 31.5 25L 31 25ZM 0 25L -0.5 25L -0.5 25.5L 0 25.5L 0 25ZM 0 0.5L 31 0.5L 31 -0.5L 0 -0.5L 0 0.5ZM 30.5 0L 30.5 25L 31.5 25L 31.5 0L 30.5 0ZM 31 24.5L 0 24.5L 0 25.5L 31 25.5L 31 24.5ZM 0.5 25L 0.5 0L -0.5 0L -0.5 25L 0.5 25Z"/>
<path id="path9_fill" d="M 30.2623 13L 23.7409 13L 23.7409 12.0908L 27.1862 8.2627C 27.6966 7.68392 28.0475 7.21452 28.2389 6.85449C 28.4349 6.48991 28.5328 6.11393 28.5328 5.72656C 28.5328 5.20703 28.3756 4.78092 28.0612 4.44824C 27.7467 4.11556 27.3274 3.94922 26.8034 3.94922C 26.1744 3.94922 25.6845 4.12923 25.3336 4.48926C 24.9873 4.84473 24.8141 5.34147 24.8141 5.97949L 23.5494 5.97949C 23.5494 5.06348 23.8434 4.32292 24.4313 3.75781C 25.0237 3.19271 25.8144 2.91016 26.8034 2.91016C 27.7285 2.91016 28.4599 3.15397 28.9977 3.6416C 29.5355 4.12467 29.8043 4.76953 29.8043 5.57617C 29.8043 6.55599 29.18 7.72266 27.9313 9.07617L 25.2653 11.9678L 30.2623 11.9678L 30.2623 13ZM 36.5651 3.04004L 36.5651 4.11328L 36.3327 4.11328C 35.3483 4.13151 34.5644 4.42318 33.9811 4.98828C 33.3978 5.55339 33.0605 6.34863 32.9694 7.37402C 33.4935 6.77246 34.209 6.47168 35.1159 6.47168C 35.9817 6.47168 36.6722 6.77702 37.1871 7.3877C 37.7067 7.99837 37.9664 8.78678 37.9664 9.75293C 37.9664 10.7783 37.6862 11.5986 37.1256 12.2139C 36.5696 12.8291 35.8222 13.1367 34.8834 13.1367C 33.931 13.1367 33.1585 12.7721 32.5661 12.043C 31.9736 11.3092 31.6774 10.3659 31.6774 9.21289L 31.6774 8.72754C 31.6774 6.89551 32.067 5.49642 32.8463 4.53027C 33.6302 3.55957 34.7946 3.06283 36.3395 3.04004L 36.5651 3.04004ZM 34.9039 7.52441C 34.471 7.52441 34.0722 7.6543 33.7077 7.91406C 33.3431 8.17383 33.0901 8.49967 32.9489 8.8916L 32.9489 9.35645C 32.9489 10.1768 33.1334 10.8376 33.5026 11.3389C 33.8717 11.8402 34.332 12.0908 34.8834 12.0908C 35.4531 12.0908 35.8997 11.8812 36.2233 11.4619C 36.5514 11.0426 36.7155 10.4935 36.7155 9.81445C 36.7155 9.13086 36.5491 8.57943 36.2164 8.16016C 35.8883 7.73633 35.4508 7.52441 34.9039 7.52441ZM 44.8024 9.65723L 46.1832 9.65723L 46.1832 10.6895L 44.8024 10.6895L 44.8024 13L 43.5309 13L 43.5309 10.6895L 38.9987 10.6895L 38.9987 9.94434L 43.4557 3.04688L 44.8024 3.04688L 44.8024 9.65723ZM 40.4342 9.65723L 43.5309 9.65723L 43.5309 4.77637L 43.3805 5.0498L 40.4342 9.65723ZM 52.2877 3.04004L 52.2877 4.11328L 52.0553 4.11328C 51.0709 4.13151 50.2871 4.42318 49.7037 4.98828C 49.1204 5.55339 48.7832 6.34863 48.692 7.37402C 49.2161 6.77246 49.9316 6.47168 50.8385 6.47168C 51.7044 6.47168 52.3948 6.77702 52.9098 7.3877C 53.4293 7.99837 53.6891 8.78678 53.6891 9.75293C 53.6891 10.7783 53.4088 11.5986 52.8483 12.2139C 52.2923 12.8291 51.5449 13.1367 50.6061 13.1367C 49.6536 13.1367 48.8812 12.7721 48.2887 12.043C 47.6963 11.3092 47.4 10.3659 47.4 9.21289L 47.4 8.72754C 47.4 6.89551 47.7897 5.49642 48.569 4.53027C 49.3528 3.55957 50.5172 3.06283 52.0621 3.04004L 52.2877 3.04004ZM 50.6266 7.52441C 50.1937 7.52441 49.7949 7.6543 49.4303 7.91406C 49.0657 8.17383 48.8128 8.49967 48.6715 8.8916L 48.6715 9.35645C 48.6715 10.1768 48.8561 10.8376 49.2252 11.3389C 49.5944 11.8402 50.0547 12.0908 50.6061 12.0908C 51.1758 12.0908 51.6224 11.8812 51.9459 11.4619C 52.2741 11.0426 52.4381 10.4935 52.4381 9.81445C 52.4381 9.13086 52.2718 8.57943 51.9391 8.16016C 51.611 7.73633 51.1735 7.52441 50.6266 7.52441Z"/>
<path id="path10_fill" d="M 30.2623 13L 23.7409 13L 23.7409 12.0908L 27.1862 8.2627C 27.6966 7.68392 28.0475 7.21452 28.2389 6.85449C 28.4349 6.48991 28.5328 6.11393 28.5328 5.72656C 28.5328 5.20703 28.3756 4.78092 28.0612 4.44824C 27.7467 4.11556 27.3274 3.94922 26.8034 3.94922C 26.1744 3.94922 25.6845 4.12923 25.3336 4.48926C 24.9873 4.84473 24.8141 5.34147 24.8141 5.97949L 23.5494 5.97949C 23.5494 5.06348 23.8434 4.32292 24.4313 3.75781C 25.0237 3.19271 25.8144 2.91016 26.8034 2.91016C 27.7285 2.91016 28.4599 3.15397 28.9977 3.6416C 29.5354 4.12467 29.8043 4.76953 29.8043 5.57617C 29.8043 6.55599 29.18 7.72266 27.9313 9.07617L 25.2653 11.9678L 30.2623 11.9678L 30.2623 13ZM 36.5651 3.04004L 36.5651 4.11328L 36.3326 4.11328C 35.3483 4.13151 34.5644 4.42318 33.9811 4.98828C 33.3978 5.55339 33.0605 6.34863 32.9694 7.37402C 33.4935 6.77246 34.209 6.47168 35.1159 6.47168C 35.9817 6.47168 36.6722 6.77702 37.1871 7.3877C 37.7067 7.99837 37.9664 8.78678 37.9664 9.75293C 37.9664 10.7783 37.6862 11.5986 37.1256 12.2139C 36.5696 12.8291 35.8222 13.1367 34.8834 13.1367C 33.931 13.1367 33.1585 12.7721 32.566 12.043C 31.9736 11.3092 31.6774 10.3659 31.6774 9.21289L 31.6774 8.72754C 31.6774 6.89551 32.067 5.49642 32.8463 4.53027C 33.6302 3.55957 34.7946 3.06283 36.3395 3.04004L 36.5651 3.04004ZM 34.9039 7.52441C 34.471 7.52441 34.0722 7.6543 33.7076 7.91406C 33.3431 8.17383 33.0901 8.49967 32.9489 8.8916L 32.9489 9.35645C 32.9489 10.1768 33.1334 10.8376 33.5026 11.3389C 33.8717 11.8402 34.332 12.0908 34.8834 12.0908C 35.4531 12.0908 35.8997 11.8812 36.2233 11.4619C 36.5514 11.0426 36.7155 10.4935 36.7155 9.81445C 36.7155 9.13086 36.5491 8.57943 36.2164 8.16016C 35.8883 7.73633 35.4508 7.52441 34.9039 7.52441ZM 44.8024 9.65723L 46.1832 9.65723L 46.1832 10.6895L 44.8024 10.6895L 44.8024 13L 43.5309 13L 43.5309 10.6895L 38.9987 10.6895L 38.9987 9.94434L 43.4557 3.04688L 44.8024 3.04688L 44.8024 9.65723ZM 40.4342 9.65723L 43.5309 9.65723L 43.5309 4.77637L 43.3805 5.0498L 40.4342 9.65723ZM 52.2877 3.04004L 52.2877 4.11328L 52.0553 4.11328C 51.0709 4.13151 50.2871 4.42318 49.7037 4.98828C 49.1204 5.55339 48.7832 6.34863 48.692 7.37402C 49.2161 6.77246 49.9316 6.47168 50.8385 6.47168C 51.7044 6.47168 52.3948 6.77702 52.9098 7.3877C 53.4293 7.99837 53.6891 8.78678 53.6891 9.75293C 53.6891 10.7783 53.4088 11.5986 52.8483 12.2139C 52.2923 12.8291 51.5449 13.1367 50.6061 13.1367C 49.6536 13.1367 48.8812 12.7721 48.2887 12.043C 47.6963 11.3092 47.4 10.3659 47.4 9.21289L 47.4 8.72754C 47.4 6.89551 47.7897 5.49642 48.569 4.53027C 49.3528 3.55957 50.5172 3.06283 52.0621 3.04004L 52.2877 3.04004ZM 50.6266 7.52441C 50.1937 7.52441 49.7949 7.6543 49.4303 7.91406C 49.0657 8.17383 48.8128 8.49967 48.6715 8.8916L 48.6715 9.35645C 48.6715 10.1768 48.8561 10.8376 49.2252 11.3389C 49.5944 11.8402 50.0547 12.0908 50.6061 12.0908C 51.1757 12.0908 51.6224 11.8812 51.9459 11.4619C 52.2741 11.0426 52.4381 10.4935 52.4381 9.81445C 52.4381 9.13086 52.2718 8.57943 51.9391 8.16016C 51.611 7.73633 51.1735 7.52441 50.6266 7.52441Z"/>
<path id="path11_fill" d="M 0 0L 123 0L 123 25L 0 25L 0 0Z"/>
<path id="path12_stroke" d="M 0 0L 0 -0.5L -0.5 -0.5L -0.5 0L 0 0ZM 123 0L 123.5 0L 123.5 -0.5L 123 -0.5L 123 0ZM 123 25L 123 25.5L 123.5 25.5L 123.5 25L 123 25ZM 0 25L -0.5 25L -0.5 25.5L 0 25.5L 0 25ZM 0 0.5L 123 0.5L 123 -0.5L 0 -0.5L 0 0.5ZM 122.5 0L 122.5 25L 123.5 25L 123.5 0L 122.5 0ZM 123 24.5L 0 24.5L 0 25.5L 123 25.5L 123 24.5ZM 0.5 25L 0.5 0L -0.5 0L -0.5 25L 0.5 25Z"/>
<path id="path13_fill" d="M 58.9711 13L 57.6996 13L 57.6996 4.57129L 55.1498 5.50781L 55.1498 4.35938L 58.7728 2.99902L 58.9711 2.99902L 58.9711 13Z"/>
<path id="path14_fill" d="M 10.2633 3.78516L 10.2633 5.60352L 11.5279 5.60352L 11.5279 7.05273L 10.2633 7.05273L 10.2633 10.7441C 10.2633 11.0176 10.3157 11.2135 10.4205 11.332C 10.5253 11.4505 10.7258 11.5098 11.0221 11.5098C 11.2408 11.5098 11.4345 11.4938 11.6031 11.4619L 11.6031 12.959C 11.2158 13.0775 10.817 13.1367 10.4068 13.1367C 9.02142 13.1367 8.31504 12.4372 8.2877 11.0381L 8.2877 7.05273L 7.20762 7.05273L 7.20762 5.60352L 8.2877 5.60352L 8.2877 3.78516L 10.2633 3.78516ZM 12.7311 12.0293C 12.7311 11.7148 12.8359 11.4596 13.0455 11.2637C 13.2597 11.0677 13.5263 10.9697 13.8453 10.9697C 14.1689 10.9697 14.4355 11.0677 14.6451 11.2637C 14.8593 11.4596 14.9664 11.7148 14.9664 12.0293C 14.9664 12.3392 14.8616 12.5921 14.652 12.7881C 14.4423 12.9795 14.1734 13.0752 13.8453 13.0752C 13.5217 13.0752 13.2551 12.9795 13.0455 12.7881C 12.8359 12.5921 12.7311 12.3392 12.7311 12.0293ZM 18.5553 5.60352L 18.6168 6.43066C 19.1409 5.78809 19.8495 5.4668 20.7428 5.4668C 21.6952 5.4668 22.3492 5.84277 22.7047 6.59473C 23.2242 5.84277 23.9648 5.4668 24.9264 5.4668C 25.7285 5.4668 26.3255 5.7015 26.7174 6.1709C 27.1093 6.63574 27.3053 7.33757 27.3053 8.27637L 27.3053 13L 25.3229 13L 25.3229 8.2832C 25.3229 7.86393 25.2408 7.55859 25.0768 7.36719C 24.9127 7.17122 24.6233 7.07324 24.2086 7.07324C 23.6161 7.07324 23.206 7.35579 22.9781 7.9209L 22.985 13L 21.0094 13L 21.0094 8.29004C 21.0094 7.86165 20.9251 7.55176 20.7564 7.36035C 20.5878 7.16895 20.3007 7.07324 19.8951 7.07324C 19.3346 7.07324 18.929 7.30566 18.6783 7.77051L 18.6783 13L 16.7027 13L 16.7027 5.60352L 18.5553 5.60352ZM 32.234 13.1367C 31.1494 13.1367 30.2652 12.804 29.5816 12.1387C 28.9026 11.4733 28.5631 10.5869 28.5631 9.47949L 28.5631 9.28809C 28.5631 8.54525 28.7066 7.88216 28.9938 7.29883C 29.2809 6.71094 29.6865 6.25977 30.2105 5.94531C 30.7392 5.6263 31.3408 5.4668 32.0152 5.4668C 33.027 5.4668 33.8222 5.78581 34.401 6.42383C 34.9843 7.06185 35.276 7.96647 35.276 9.1377L 35.276 9.94434L 30.566 9.94434C 30.6298 10.4274 30.8212 10.8148 31.1402 11.1064C 31.4638 11.3981 31.8717 11.5439 32.3639 11.5439C 33.1249 11.5439 33.7197 11.2682 34.148 10.7168L 35.1188 11.8037C 34.8225 12.223 34.4215 12.5511 33.9156 12.7881C 33.4098 13.0205 32.8492 13.1367 32.234 13.1367ZM 32.0084 7.06641C 31.6165 7.06641 31.2975 7.19857 31.0514 7.46289C 30.8098 7.72721 30.6549 8.10547 30.5865 8.59766L 33.3346 8.59766L 33.3346 8.44043C 33.3255 8.00293 33.207 7.66569 32.9791 7.42871C 32.7512 7.18717 32.4277 7.06641 32.0084 7.06641ZM 36.0963 9.24707C 36.0963 8.09408 36.3538 7.17578 36.8688 6.49219C 37.3883 5.80859 38.0969 5.4668 38.9947 5.4668C 39.7148 5.4668 40.3095 5.73568 40.7789 6.27344L 40.7789 2.5L 42.7613 2.5L 42.7613 13L 40.9771 13L 40.8814 12.2139C 40.3893 12.8291 39.7558 13.1367 38.9811 13.1367C 38.1106 13.1367 37.4111 12.7949 36.8824 12.1113C 36.3583 11.4232 36.0963 10.4684 36.0963 9.24707ZM 38.0719 9.39062C 38.0719 10.0833 38.1926 10.6143 38.4342 10.9834C 38.6757 11.3525 39.0266 11.5371 39.4869 11.5371C 40.0976 11.5371 40.5283 11.2796 40.7789 10.7646L 40.7789 7.8457C 40.5328 7.33073 40.1067 7.07324 39.5006 7.07324C 38.5481 7.07324 38.0719 7.8457 38.0719 9.39062ZM 46.3775 13L 44.3951 13L 44.3951 5.60352L 46.3775 5.60352L 46.3775 13ZM 44.2789 3.68945C 44.2789 3.39323 44.3769 3.14941 44.5729 2.95801C 44.7734 2.7666 45.0445 2.6709 45.3863 2.6709C 45.7236 2.6709 45.9924 2.7666 46.193 2.95801C 46.3935 3.14941 46.4938 3.39323 46.4938 3.68945C 46.4938 3.99023 46.3912 4.23633 46.1861 4.42773C 45.9856 4.61914 45.719 4.71484 45.3863 4.71484C 45.0536 4.71484 44.7848 4.61914 44.5797 4.42773C 44.3792 4.23633 44.2789 3.99023 44.2789 3.68945ZM 52.2975 13C 52.2063 12.8223 52.1402 12.6012 52.0992 12.3369C 51.6207 12.8701 50.9986 13.1367 50.233 13.1367C 49.5084 13.1367 48.9068 12.9271 48.4283 12.5078C 47.9544 12.0885 47.7174 11.5599 47.7174 10.9219C 47.7174 10.138 48.0068 9.53646 48.5855 9.11719C 49.1689 8.69792 50.0097 8.486 51.108 8.48145L 52.0172 8.48145L 52.0172 8.05762C 52.0172 7.71582 51.9283 7.44238 51.7506 7.2373C 51.5774 7.03223 51.3017 6.92969 50.9234 6.92969C 50.5908 6.92969 50.3287 7.00944 50.1373 7.16895C 49.9505 7.32845 49.857 7.5472 49.857 7.8252L 47.8814 7.8252C 47.8814 7.39681 48.0136 7.00033 48.2779 6.63574C 48.5423 6.27116 48.916 5.98633 49.399 5.78125C 49.8821 5.57161 50.4244 5.4668 51.026 5.4668C 51.9374 5.4668 52.6598 5.69694 53.193 6.15723C 53.7307 6.61296 53.9996 7.25553 53.9996 8.08496L 53.9996 11.291C 54.0042 11.9928 54.1021 12.5238 54.2936 12.8838L 54.2936 13L 52.2975 13ZM 50.6637 11.626C 50.9553 11.626 51.2242 11.5622 51.4703 11.4346C 51.7164 11.3024 51.8987 11.127 52.0172 10.9082L 52.0172 9.63672L 51.2789 9.63672C 50.29 9.63672 49.7636 9.97852 49.6998 10.6621L 49.693 10.7783C 49.693 11.0244 49.7796 11.2272 49.9527 11.3867C 50.1259 11.5462 50.3629 11.626 50.6637 11.626ZM 60.9928 14.5449L 54.7652 14.5449L 54.7652 13L 60.9928 13L 60.9928 14.5449ZM 64.1305 3.78516L 64.1305 5.60352L 65.3951 5.60352L 65.3951 7.05273L 64.1305 7.05273L 64.1305 10.7441C 64.1305 11.0176 64.1829 11.2135 64.2877 11.332C 64.3925 11.4505 64.593 11.5098 64.8893 11.5098C 65.108 11.5098 65.3017 11.4938 65.4703 11.4619L 65.4703 12.959C 65.0829 13.0775 64.6842 13.1367 64.274 13.1367C 62.8886 13.1367 62.1822 12.4372 62.1549 11.0381L 62.1549 7.05273L 61.0748 7.05273L 61.0748 5.60352L 62.1549 5.60352L 62.1549 3.78516L 64.1305 3.78516ZM 69.2574 10.2041L 70.6246 5.60352L 72.7438 5.60352L 69.7701 14.1484L 69.6061 14.5381C 69.164 15.5042 68.4348 15.9873 67.4186 15.9873C 67.1314 15.9873 66.8398 15.944 66.5436 15.8574L 66.5436 14.3604L 66.8443 14.3672C 67.218 14.3672 67.496 14.3102 67.6783 14.1963C 67.8652 14.0824 68.011 13.8932 68.1158 13.6289L 68.3482 13.0205L 65.7574 5.60352L 67.8834 5.60352L 69.2574 10.2041ZM 80.1813 9.37012C 80.1813 10.5094 79.9215 11.4232 79.402 12.1113C 78.887 12.7949 78.1897 13.1367 77.3102 13.1367C 76.5628 13.1367 75.9589 12.877 75.4986 12.3574L 75.4986 15.8438L 73.523 15.8438L 73.523 5.60352L 75.3551 5.60352L 75.4234 6.32812C 75.902 5.75391 76.5263 5.4668 77.2965 5.4668C 78.2079 5.4668 78.9166 5.80404 79.4225 6.47852C 79.9283 7.15299 80.1813 8.08268 80.1813 9.26758L 80.1813 9.37012ZM 78.2057 9.22656C 78.2057 8.53841 78.0826 8.00749 77.8365 7.63379C 77.595 7.26009 77.2418 7.07324 76.777 7.07324C 76.1572 7.07324 75.7311 7.31022 75.4986 7.78418L 75.4986 10.8125C 75.7402 11.3001 76.1708 11.5439 76.7906 11.5439C 77.734 11.5439 78.2057 10.7715 78.2057 9.22656ZM 84.816 13.1367C 83.7314 13.1367 82.8473 12.804 82.1637 12.1387C 81.4846 11.4733 81.1451 10.5869 81.1451 9.47949L 81.1451 9.28809C 81.1451 8.54525 81.2887 7.88216 81.5758 7.29883C 81.8629 6.71094 82.2685 6.25977 82.7926 5.94531C 83.3212 5.6263 83.9228 5.4668 84.5973 5.4668C 85.609 5.4668 86.4042 5.78581 86.983 6.42383C 87.5663 7.06185 87.858 7.96647 87.858 9.1377L 87.858 9.94434L 83.148 9.94434C 83.2119 10.4274 83.4033 10.8148 83.7223 11.1064C 84.0458 11.3981 84.4537 11.5439 84.9459 11.5439C 85.707 11.5439 86.3017 11.2682 86.7301 10.7168L 87.7008 11.8037C 87.4046 12.223 87.0035 12.5511 86.4977 12.7881C 85.9918 13.0205 85.4313 13.1367 84.816 13.1367ZM 84.5904 7.06641C 84.1985 7.06641 83.8795 7.19857 83.6334 7.46289C 83.3919 7.72721 83.2369 8.10547 83.1686 8.59766L 85.9166 8.59766L 85.9166 8.44043C 85.9075 8.00293 85.789 7.66569 85.5611 7.42871C 85.3333 7.18717 85.0097 7.06641 84.5904 7.06641ZM 94.4615 14.5449L 88.234 14.5449L 88.234 13L 94.4615 13L 94.4615 14.5449ZM 97.3189 13L 95.3365 13L 95.3365 5.60352L 97.3189 5.60352L 97.3189 13ZM 95.2203 3.68945C 95.2203 3.39323 95.3183 3.14941 95.5143 2.95801C 95.7148 2.7666 95.9859 2.6709 96.3277 2.6709C 96.665 2.6709 96.9339 2.7666 97.1344 2.95801C 97.3349 3.14941 97.4352 3.39323 97.4352 3.68945C 97.4352 3.99023 97.3326 4.23633 97.1275 4.42773C 96.927 4.61914 96.6604 4.71484 96.3277 4.71484C 95.9951 4.71484 95.7262 4.61914 95.5211 4.42773C 95.3206 4.23633 95.2203 3.99023 95.2203 3.68945ZM 98.6451 9.24707C 98.6451 8.09408 98.9026 7.17578 99.4176 6.49219C 99.9371 5.80859 100.646 5.4668 101.544 5.4668C 102.264 5.4668 102.858 5.73568 103.328 6.27344L 103.328 2.5L 105.31 2.5L 105.31 13L 103.526 13L 103.43 12.2139C 102.938 12.8291 102.305 13.1367 101.53 13.1367C 100.659 13.1367 99.9599 12.7949 99.4313 12.1113C 98.9072 11.4232 98.6451 10.4684 98.6451 9.24707ZM 100.621 9.39062C 100.621 10.0833 100.741 10.6143 100.983 10.9834C 101.225 11.3525 101.575 11.5371 102.036 11.5371C 102.646 11.5371 103.077 11.2796 103.328 10.7646L 103.328 7.8457C 103.082 7.33073 102.656 7.07324 102.049 7.07324C 101.097 7.07324 100.621 7.8457 100.621 9.39062Z"/>
<path id="path15_fill" d="M 60.4561 13L 59.1847 13L 59.1847 4.57129L 56.6348 5.50781L 56.6348 4.35938L 60.2579 2.99902L 60.4561 2.99902L 60.4561 13Z"/>
<path id="path16_fill" d="M 3.68711 5.60352L 3.74863 6.43066C 4.27272 5.78809 4.98138 5.4668 5.87461 5.4668C 6.82708 5.4668 7.48106 5.84277 7.83652 6.59473C 8.35606 5.84277 9.09662 5.4668 10.0582 5.4668C 10.8603 5.4668 11.4573 5.7015 11.8492 6.1709C 12.2411 6.63574 12.4371 7.33757 12.4371 8.27637L 12.4371 13L 10.4547 13L 10.4547 8.2832C 10.4547 7.86393 10.3727 7.55859 10.2086 7.36719C 10.0445 7.17122 9.75514 7.07324 9.34043 7.07324C 8.74798 7.07324 8.33783 7.35579 8.10996 7.9209L 8.1168 13L 6.14121 13L 6.14121 8.29004C 6.14121 7.86165 6.0569 7.55176 5.88828 7.36035C 5.71966 7.16895 5.43255 7.07324 5.02695 7.07324C 4.46641 7.07324 4.06081 7.30566 3.81016 7.77051L 3.81016 13L 1.83457 13L 1.83457 5.60352L 3.68711 5.60352ZM 16.3268 3.78516L 16.3268 5.60352L 17.5914 5.60352L 17.5914 7.05273L 16.3268 7.05273L 16.3268 10.7441C 16.3268 11.0176 16.3792 11.2135 16.484 11.332C 16.5888 11.4505 16.7893 11.5098 17.0855 11.5098C 17.3043 11.5098 17.498 11.4938 17.6666 11.4619L 17.6666 12.959C 17.2792 13.0775 16.8805 13.1367 16.4703 13.1367C 15.0849 13.1367 14.3785 12.4372 14.3512 11.0381L 14.3512 7.05273L 13.2711 7.05273L 13.2711 5.60352L 14.3512 5.60352L 14.3512 3.78516L 16.3268 3.78516ZM 18.7945 12.0293C 18.7945 11.7148 18.8994 11.4596 19.109 11.2637C 19.3232 11.0677 19.5898 10.9697 19.9088 10.9697C 20.2324 10.9697 20.499 11.0677 20.7086 11.2637C 20.9228 11.4596 21.0299 11.7148 21.0299 12.0293C 21.0299 12.3392 20.9251 12.5921 20.7154 12.7881C 20.5058 12.9795 20.2369 13.0752 19.9088 13.0752C 19.5852 13.0752 19.3186 12.9795 19.109 12.7881C 18.8994 12.5921 18.7945 12.3392 18.7945 12.0293ZM 24.6188 5.60352L 24.6803 6.43066C 25.2044 5.78809 25.913 5.4668 26.8063 5.4668C 27.7587 5.4668 28.4127 5.84277 28.7682 6.59473C 29.2877 5.84277 30.0283 5.4668 30.9898 5.4668C 31.7919 5.4668 32.3889 5.7015 32.7809 6.1709C 33.1728 6.63574 33.3688 7.33757 33.3688 8.27637L 33.3688 13L 31.3863 13L 31.3863 8.2832C 31.3863 7.86393 31.3043 7.55859 31.1402 7.36719C 30.9762 7.17122 30.6868 7.07324 30.2721 7.07324C 29.6796 7.07324 29.2695 7.35579 29.0416 7.9209L 29.0484 13L 27.0729 13L 27.0729 8.29004C 27.0729 7.86165 26.9885 7.55176 26.8199 7.36035C 26.6513 7.16895 26.3642 7.07324 25.9586 7.07324C 25.398 7.07324 24.9924 7.30566 24.7418 7.77051L 24.7418 13L 22.7662 13L 22.7662 5.60352L 24.6188 5.60352ZM 38.2975 13.1367C 37.2128 13.1367 36.3287 12.804 35.6451 12.1387C 34.9661 11.4733 34.6266 10.5869 34.6266 9.47949L 34.6266 9.28809C 34.6266 8.54525 34.7701 7.88216 35.0572 7.29883C 35.3443 6.71094 35.7499 6.25977 36.274 5.94531C 36.8027 5.6263 37.4042 5.4668 38.0787 5.4668C 39.0904 5.4668 39.8857 5.78581 40.4645 6.42383C 41.0478 7.06185 41.3395 7.96647 41.3395 9.1377L 41.3395 9.94434L 36.6295 9.94434C 36.6933 10.4274 36.8847 10.8148 37.2037 11.1064C 37.5273 11.3981 37.9352 11.5439 38.4273 11.5439C 39.1884 11.5439 39.7831 11.2682 40.2115 10.7168L 41.1822 11.8037C 40.886 12.223 40.485 12.5511 39.9791 12.7881C 39.4732 13.0205 38.9127 13.1367 38.2975 13.1367ZM 38.0719 7.06641C 37.6799 7.06641 37.3609 7.19857 37.1148 7.46289C 36.8733 7.72721 36.7184 8.10547 36.65 8.59766L 39.398 8.59766L 39.398 8.44043C 39.3889 8.00293 39.2704 7.66569 39.0426 7.42871C 38.8147 7.18717 38.4911 7.06641 38.0719 7.06641ZM 42.1598 9.24707C 42.1598 8.09408 42.4173 7.17578 42.9322 6.49219C 43.4518 5.80859 44.1604 5.4668 45.0582 5.4668C 45.7783 5.4668 46.373 5.73568 46.8424 6.27344L 46.8424 2.5L 48.8248 2.5L 48.8248 13L 47.0406 13L 46.9449 12.2139C 46.4527 12.8291 45.8193 13.1367 45.0445 13.1367C 44.1741 13.1367 43.4745 12.7949 42.9459 12.1113C 42.4218 11.4232 42.1598 10.4684 42.1598 9.24707ZM 44.1354 9.39062C 44.1354 10.0833 44.2561 10.6143 44.4977 10.9834C 44.7392 11.3525 45.0901 11.5371 45.5504 11.5371C 46.1611 11.5371 46.5917 11.2796 46.8424 10.7646L 46.8424 7.8457C 46.5963 7.33073 46.1702 7.07324 45.5641 7.07324C 44.6116 7.07324 44.1354 7.8457 44.1354 9.39062ZM 52.441 13L 50.4586 13L 50.4586 5.60352L 52.441 5.60352L 52.441 13ZM 50.3424 3.68945C 50.3424 3.39323 50.4404 3.14941 50.6363 2.95801C 50.8369 2.7666 51.108 2.6709 51.4498 2.6709C 51.787 2.6709 52.0559 2.7666 52.2564 2.95801C 52.457 3.14941 52.5572 3.39323 52.5572 3.68945C 52.5572 3.99023 52.4547 4.23633 52.2496 4.42773C 52.0491 4.61914 51.7825 4.71484 51.4498 4.71484C 51.1171 4.71484 50.8482 4.61914 50.6432 4.42773C 50.4426 4.23633 50.3424 3.99023 50.3424 3.68945ZM 58.3609 13C 58.2698 12.8223 58.2037 12.6012 58.1627 12.3369C 57.6842 12.8701 57.0621 13.1367 56.2965 13.1367C 55.5719 13.1367 54.9703 12.9271 54.4918 12.5078C 54.0178 12.0885 53.7809 11.5599 53.7809 10.9219C 53.7809 10.138 54.0702 9.53646 54.649 9.11719C 55.2324 8.69792 56.0732 8.486 57.1715 8.48145L 58.0807 8.48145L 58.0807 8.05762C 58.0807 7.71582 57.9918 7.44238 57.8141 7.2373C 57.6409 7.03223 57.3652 6.92969 56.9869 6.92969C 56.6542 6.92969 56.3922 7.00944 56.2008 7.16895C 56.0139 7.32845 55.9205 7.5472 55.9205 7.8252L 53.9449 7.8252C 53.9449 7.39681 54.0771 7.00033 54.3414 6.63574C 54.6057 6.27116 54.9794 5.98633 55.4625 5.78125C 55.9456 5.57161 56.4879 5.4668 57.0895 5.4668C 58.0009 5.4668 58.7232 5.69694 59.2564 6.15723C 59.7942 6.61296 60.0631 7.25553 60.0631 8.08496L 60.0631 11.291C 60.0676 11.9928 60.1656 12.5238 60.357 12.8838L 60.357 13L 58.3609 13ZM 56.7271 11.626C 57.0188 11.626 57.2877 11.5622 57.5338 11.4346C 57.7799 11.3024 57.9622 11.127 58.0807 10.9082L 58.0807 9.63672L 57.3424 9.63672C 56.3535 9.63672 55.8271 9.97852 55.7633 10.6621L 55.7564 10.7783C 55.7564 11.0244 55.843 11.2272 56.0162 11.3867C 56.1894 11.5462 56.4264 11.626 56.7271 11.626ZM 67.0563 14.5449L 60.8287 14.5449L 60.8287 13L 67.0563 13L 67.0563 14.5449ZM 70.1939 3.78516L 70.1939 5.60352L 71.4586 5.60352L 71.4586 7.05273L 70.1939 7.05273L 70.1939 10.7441C 70.1939 11.0176 70.2464 11.2135 70.3512 11.332C 70.456 11.4505 70.6565 11.5098 70.9527 11.5098C 71.1715 11.5098 71.3652 11.4938 71.5338 11.4619L 71.5338 12.959C 71.1464 13.0775 70.7477 13.1367 70.3375 13.1367C 68.9521 13.1367 68.2457 12.4372 68.2184 11.0381L 68.2184 7.05273L 67.1383 7.05273L 67.1383 5.60352L 68.2184 5.60352L 68.2184 3.78516L 70.1939 3.78516ZM 75.3209 10.2041L 76.6881 5.60352L 78.8072 5.60352L 75.8336 14.1484L 75.6695 14.5381C 75.2275 15.5042 74.4983 15.9873 73.482 15.9873C 73.1949 15.9873 72.9033 15.944 72.607 15.8574L 72.607 14.3604L 72.9078 14.3672C 73.2815 14.3672 73.5595 14.3102 73.7418 14.1963C 73.9286 14.0824 74.0745 13.8932 74.1793 13.6289L 74.4117 13.0205L 71.8209 5.60352L 73.9469 5.60352L 75.3209 10.2041ZM 86.2447 9.37012C 86.2447 10.5094 85.985 11.4232 85.4654 12.1113C 84.9505 12.7949 84.2532 13.1367 83.3736 13.1367C 82.6262 13.1367 82.0224 12.877 81.5621 12.3574L 81.5621 15.8438L 79.5865 15.8438L 79.5865 5.60352L 81.4186 5.60352L 81.4869 6.32812C 81.9654 5.75391 82.5898 5.4668 83.36 5.4668C 84.2714 5.4668 84.9801 5.80404 85.4859 6.47852C 85.9918 7.15299 86.2447 8.08268 86.2447 9.26758L 86.2447 9.37012ZM 84.2691 9.22656C 84.2691 8.53841 84.1461 8.00749 83.9 7.63379C 83.6585 7.26009 83.3053 7.07324 82.8404 7.07324C 82.2206 7.07324 81.7945 7.31022 81.5621 7.78418L 81.5621 10.8125C 81.8036 11.3001 82.2343 11.5439 82.8541 11.5439C 83.7975 11.5439 84.2691 10.7715 84.2691 9.22656ZM 90.8795 13.1367C 89.7949 13.1367 88.9107 12.804 88.2271 12.1387C 87.5481 11.4733 87.2086 10.5869 87.2086 9.47949L 87.2086 9.28809C 87.2086 8.54525 87.3521 7.88216 87.6393 7.29883C 87.9264 6.71094 88.332 6.25977 88.8561 5.94531C 89.3847 5.6263 89.9863 5.4668 90.6607 5.4668C 91.6725 5.4668 92.4677 5.78581 93.0465 6.42383C 93.6298 7.06185 93.9215 7.96647 93.9215 9.1377L 93.9215 9.94434L 89.2115 9.94434C 89.2753 10.4274 89.4667 10.8148 89.7857 11.1064C 90.1093 11.3981 90.5172 11.5439 91.0094 11.5439C 91.7704 11.5439 92.3652 11.2682 92.7936 10.7168L 93.7643 11.8037C 93.468 12.223 93.067 12.5511 92.5611 12.7881C 92.0553 13.0205 91.4947 13.1367 90.8795 13.1367ZM 90.6539 7.06641C 90.262 7.06641 89.943 7.19857 89.6969 7.46289C 89.4553 7.72721 89.3004 8.10547 89.232 8.59766L 91.9801 8.59766L 91.9801 8.44043C 91.971 8.00293 91.8525 7.66569 91.6246 7.42871C 91.3967 7.18717 91.0732 7.06641 90.6539 7.06641ZM 100.525 14.5449L 94.2975 14.5449L 94.2975 13L 100.525 13L 100.525 14.5449ZM 103.382 13L 101.4 13L 101.4 5.60352L 103.382 5.60352L 103.382 13ZM 101.284 3.68945C 101.284 3.39323 101.382 3.14941 101.578 2.95801C 101.778 2.7666 102.049 2.6709 102.391 2.6709C 102.728 2.6709 102.997 2.7666 103.198 2.95801C 103.398 3.14941 103.499 3.39323 103.499 3.68945C 103.499 3.99023 103.396 4.23633 103.191 4.42773C 102.99 4.61914 102.724 4.71484 102.391 4.71484C 102.059 4.71484 101.79 4.61914 101.585 4.42773C 101.384 4.23633 101.284 3.99023 101.284 3.68945ZM 104.709 9.24707C 104.709 8.09408 104.966 7.17578 105.481 6.49219C 106.001 5.80859 106.709 5.4668 107.607 5.4668C 108.327 5.4668 108.922 5.73568 109.391 6.27344L 109.391 2.5L 111.374 2.5L 111.374 13L 109.589 13L 109.494 12.2139C 109.002 12.8291 108.368 13.1367 107.593 13.1367C 106.723 13.1367 106.023 12.7949 105.495 12.1113C 104.971 11.4232 104.709 10.4684 104.709 9.24707ZM 106.684 9.39062C 106.684 10.0833 106.805 10.6143 107.046 10.9834C 107.288 11.3525 107.639 11.5371 108.099 11.5371C 108.71 11.5371 109.141 11.2796 109.391 10.7646L 109.391 7.8457C 109.145 7.33073 108.719 7.07324 108.113 7.07324C 107.16 7.07324 106.684 7.8457 106.684 9.39062Z"/>
</defs>
</svg>
