<svg width="1392" height="558" viewBox="0 0 1392 558" version="1.1" xmlns="http://www.w3.org/2000/svg" xmlns:xlink="http://www.w3.org/1999/xlink">
<title>Frame</title>
<desc>Created using Figma</desc>
<g id="Canvas" transform="matrix(2 0 0 2 1234 1272)">
<clipPath id="clip-0" clip-rule="evenodd">
<path d="M -617 -636L 79 -636L 79 -357L -617 -357L -617 -636Z" fill="#FFFFFF"/>
</clipPath>
<g id="Frame" clip-path="url(#clip-0)">
<path d="M -617 -636L 79 -636L 79 -357L -617 -357L -617 -636Z" fill="#FFFFFF"/>
<g id="Rectangle">
<use xlink:href="#path0_fill" transform="translate(-146 -597)" fill="#F2C94C" fill-opacity="0.39"/>
<use xlink:href="#path1_stroke" transform="translate(-146 -597)"/>
</g>
<g id="media_type_id">
<use xlink:href="#path2_fill" transform="translate(-143.136 -592)"/>
</g>
<g id="Rectangle">
<use xlink:href="#path1_stroke" transform="translate(-146 -572)"/>
</g>
<g id="name">
<use xlink:href="#path3_fill" transform="translate(-143.136 -567)"/>
</g>
<g id="Rectangle">
<use xlink:href="#path0_fill" transform="translate(-327 -597)" fill="#F2C94C" fill-opacity="0.39"/>
<use xlink:href="#path1_stroke" transform="translate(-327 -597)"/>
</g>
<g id="track_id">
<use xlink:href="#path4_fill" transform="translate(-324.136 -592)"/>
</g>
<g id="track">
<use xlink:href="#path5_fill" transform="translate(-324 -619)"/>
</g>
<g id="media_type">
<use xlink:href="#path6_fill" transform="translate(-144 -617)"/>
</g>
<g id="Rectangle">
<use xlink:href="#path1_stroke" transform="translate(-327 -572)"/>
</g>
<g id="name">
<use xlink:href="#path3_fill" transform="translate(-324.136 -567)"/>
</g>
<g id="Rectangle">
<use xlink:href="#path1_stroke" transform="translate(-327 -547)"/>
</g>
<g id="album_id">
<use xlink:href="#path7_fill" transform="translate(-324.136 -542)"/>
</g>
<g id="Rectangle">
<use xlink:href="#path1_stroke" transform="translate(-327 -522)"/>
</g>
<g id="media_type_id">
<use xlink:href="#path2_fill" transform="translate(-324.136 -517)"/>
</g>
<g id="Rectangle">
<use xlink:href="#path1_stroke" transform="translate(-327 -497)"/>
</g>
<g id="genre_id">
<use xlink:href="#path8_fill" transform="translate(-324.136 -492)"/>
</g>
<g id="Rectangle">
<use xlink:href="#path1_stroke" transform="translate(-327 -472)"/>
</g>
<g id="composer">
<use xlink:href="#path9_fill" transform="translate(-324.136 -467)"/>
</g>
<g id="Rectangle">
<use xlink:href="#path1_stroke" transform="translate(-327 -447)"/>
</g>
<g id="milliseconds">
<use xlink:href="#path10_fill" transform="translate(-324.136 -442)"/>
</g>
<g id="Rectangle">
<use xlink:href="#path1_stroke" transform="translate(-327 -422)"/>
</g>
<g id="bytes">
<use xlink:href="#path11_fill" transform="translate(-324.136 -417)"/>
</g>
<g id="Rectangle">
<use xlink:href="#path1_stroke" transform="translate(-327 -397)"/>
</g>
<g id="unit_price">
<use xlink:href="#path12_fill" transform="translate(-324.136 -392)"/>
</g>
<g id="Rectangle">
<use xlink:href="#path0_fill" transform="translate(-518 -597)" fill="#F2C94C" fill-opacity="0.39"/>
<use xlink:href="#path1_stroke" transform="translate(-518 -597)"/>
</g>
<g id="invoice_line_id">
<use xlink:href="#path13_fill" transform="translate(-515.136 -592)"/>
</g>
<g id="invoice_line">
<use xlink:href="#path14_fill" transform="translate(-515 -619)"/>
</g>
<g id="Rectangle">
<use xlink:href="#path1_stroke" transform="translate(-518 -572)"/>
</g>
<g id="invoice_id">
<use xlink:href="#path15_fill" transform="translate(-515.136 -567)"/>
</g>
<g id="Rectangle">
<use xlink:href="#path1_stroke" transform="translate(-518 -547)"/>
</g>
<g id="track_id">
<use xlink:href="#path4_fill" transform="translate(-515.136 -542)"/>
</g>
<g id="Rectangle">
<use xlink:href="#path1_stroke" transform="translate(-518 -522)"/>
</g>
<g id="unit_price">
<use xlink:href="#path12_fill" transform="translate(-515.136 -517)"/>
</g>
<g id="Rectangle">
<use xlink:href="#path1_stroke" transform="translate(-518 -497)"/>
</g>
<g id="quantity">
<use xlink:href="#path16_fill" transform="translate(-515.136 -492)"/>
</g>
<g id="Line">
<use xlink:href="#path17_stroke" transform="translate(-201 -509)"/>
</g>
<g id="Line">
<use xlink:href="#path17_stroke" transform="translate(-158 -584)"/>
</g>
<g id="Line">
<use xlink:href="#path18_stroke" transform="matrix(-0.398285 0.917262 -0.917262 -0.398285 -158 -586)"/>
</g>
<g id="Line">
<use xlink:href="#path19_stroke" transform="matrix(1 -2.44929e-16 2.44929e-16 1 -338 -584)"/>
</g>
<g id="Line">
<use xlink:href="#path20_stroke" transform="matrix(-0.661622 0.749838 -0.749838 -0.661622 -338 -586)"/>
</g>
<g id="Line">
<use xlink:href="#path19_stroke" transform="matrix(1 -2.44929e-16 2.44929e-16 1 -392 -534)"/>
</g>
</g>
</g>
<defs>
<path id="path0_fill" d="M 0 0L 126 0L 126 25L 0 25L 0 0Z"/>
<path id="path1_stroke" d="M 0 0L 0 -0.5L -0.5 -0.5L -0.5 0L 0 0ZM 126 0L 126.5 0L 126.5 -0.5L 126 -0.5L 126 0ZM 126 25L 126 25.5L 126.5 25.5L 126.5 25L 126 25ZM 0 25L -0.5 25L -0.5 25.5L 0 25.5L 0 25ZM 0 0.5L 126 0.5L 126 -0.5L 0 -0.5L 0 0.5ZM 125.5 0L 125.5 25L 126.5 25L 126.5 0L 125.5 0ZM 126 24.5L 0 24.5L 0 25.5L 126 25.5L 126 24.5ZM 0.5 25L 0.5 0L -0.5 0L -0.5 25L 0.5 25Z"/>
<path id="path2_fill" d="M 18.4695 5.60352L 18.5036 6.42383C 19.046 5.78581 19.7774 5.4668 20.698 5.4668C 21.7325 5.4668 22.4366 5.86328 22.8103 6.65625C 23.0564 6.30078 23.3754 6.01367 23.7673 5.79492C 24.1638 5.57617 24.6309 5.4668 25.1687 5.4668C 26.7911 5.4668 27.6159 6.32585 27.6433 8.04395L 27.6433 13L 26.3786 13L 26.3786 8.11914C 26.3786 7.59049 26.2579 7.19629 26.0163 6.93652C 25.7748 6.6722 25.3692 6.54004 24.7995 6.54004C 24.3301 6.54004 23.9405 6.68132 23.6306 6.96387C 23.3207 7.24186 23.1407 7.61784 23.0906 8.0918L 23.0906 13L 21.8191 13L 21.8191 8.15332C 21.8191 7.0778 21.2927 6.54004 20.24 6.54004C 19.4105 6.54004 18.8432 6.89323 18.5378 7.59961L 18.5378 13L 17.2732 13L 17.2732 5.60352L 18.4695 5.60352ZM 32.6267 13.1367C 31.6241 13.1367 30.8083 12.8086 30.1794 12.1523C 29.5505 11.4915 29.2361 10.6097 29.2361 9.50684L 29.2361 9.27441C 29.2361 8.54069 29.3751 7.88672 29.6531 7.3125C 29.9356 6.73372 30.3275 6.28255 30.8288 5.95898C 31.3347 5.63086 31.8816 5.4668 32.4695 5.4668C 33.431 5.4668 34.1784 5.78353 34.7116 6.41699C 35.2449 7.05046 35.5115 7.95736 35.5115 9.1377L 35.5115 9.66406L 30.5007 9.66406C 30.5189 10.3932 30.7309 10.9834 31.1365 11.4346C 31.5466 11.8812 32.0661 12.1045 32.695 12.1045C 33.1417 12.1045 33.5199 12.0133 33.8298 11.8311C 34.1397 11.6488 34.4109 11.4072 34.6433 11.1064L 35.4157 11.708C 34.796 12.6605 33.8663 13.1367 32.6267 13.1367ZM 32.4695 6.50586C 31.959 6.50586 31.5307 6.69271 31.1843 7.06641C 30.8379 7.43555 30.6238 7.95508 30.5417 8.625L 34.2468 8.625L 34.2468 8.5293C 34.2103 7.88672 34.0372 7.38997 33.7273 7.03906C 33.4174 6.68359 32.9981 6.50586 32.4695 6.50586ZM 36.6736 9.24023C 36.6736 8.10547 36.9424 7.19401 37.4802 6.50586C 38.018 5.81315 38.7221 5.4668 39.5925 5.4668C 40.4584 5.4668 41.1443 5.76302 41.6501 6.35547L 41.6501 2.5L 42.9148 2.5L 42.9148 13L 41.7527 13L 41.6911 12.207C 41.1853 12.8268 40.4812 13.1367 39.5788 13.1367C 38.7221 13.1367 38.0225 12.7858 37.4802 12.084C 36.9424 11.3822 36.6736 10.4661 36.6736 9.33594L 36.6736 9.24023ZM 37.9382 9.38379C 37.9382 10.2223 38.1114 10.8786 38.4577 11.3525C 38.8041 11.8265 39.2826 12.0635 39.8933 12.0635C 40.6954 12.0635 41.281 11.7035 41.6501 10.9834L 41.6501 7.58594C 41.2719 6.88867 40.6908 6.54004 39.907 6.54004C 39.2872 6.54004 38.8041 6.7793 38.4577 7.25781C 38.1114 7.73633 37.9382 8.44499 37.9382 9.38379ZM 46.2575 13L 44.9929 13L 44.9929 5.60352L 46.2575 5.60352L 46.2575 13ZM 44.8904 3.6416C 44.8904 3.43652 44.9519 3.26335 45.0749 3.12207C 45.2025 2.98079 45.3894 2.91016 45.6355 2.91016C 45.8816 2.91016 46.0684 2.98079 46.196 3.12207C 46.3236 3.26335 46.3874 3.43652 46.3874 3.6416C 46.3874 3.84668 46.3236 4.01758 46.196 4.1543C 46.0684 4.29102 45.8816 4.35938 45.6355 4.35938C 45.3894 4.35938 45.2025 4.29102 45.0749 4.1543C 44.9519 4.01758 44.8904 3.84668 44.8904 3.6416ZM 52.8542 13C 52.7813 12.8542 52.7221 12.5944 52.6765 12.2207C 52.0886 12.8314 51.3868 13.1367 50.571 13.1367C 49.8419 13.1367 49.2426 12.9316 48.7732 12.5215C 48.3083 12.1068 48.0759 11.5827 48.0759 10.9492C 48.0759 10.179 48.3676 9.58203 48.9509 9.1582C 49.5388 8.72982 50.3637 8.51562 51.4255 8.51562L 52.656 8.51562L 52.656 7.93457C 52.656 7.49251 52.5238 7.1416 52.2595 6.88184C 51.9952 6.61751 51.6055 6.48535 51.0906 6.48535C 50.6394 6.48535 50.2611 6.59928 49.9558 6.82715C 49.6504 7.05501 49.4978 7.33073 49.4978 7.6543L 48.2263 7.6543C 48.2263 7.28516 48.3562 6.92969 48.6159 6.58789C 48.8803 6.24154 49.2357 5.9681 49.6824 5.76758C 50.1335 5.56706 50.628 5.4668 51.1657 5.4668C 52.018 5.4668 52.6856 5.68099 53.1687 6.10938C 53.6518 6.5332 53.9024 7.11882 53.9206 7.86621L 53.9206 11.2705C 53.9206 11.9495 54.0072 12.4896 54.1804 12.8906L 54.1804 13L 52.8542 13ZM 50.7556 12.0361C 51.1521 12.0361 51.5281 11.9336 51.8835 11.7285C 52.239 11.5234 52.4965 11.2568 52.656 10.9287L 52.656 9.41113L 51.6648 9.41113C 50.1153 9.41113 49.3406 9.86458 49.3406 10.7715C 49.3406 11.168 49.4727 11.4779 49.737 11.7012C 50.0014 11.9245 50.3409 12.0361 50.7556 12.0361ZM 61.2351 14.0322L 54.9734 14.0322L 54.9734 13L 61.2351 13L 61.2351 14.0322ZM 63.9353 3.8125L 63.9353 5.60352L 65.3161 5.60352L 65.3161 6.58105L 63.9353 6.58105L 63.9353 11.168C 63.9353 11.4642 63.9968 11.6875 64.1199 11.8379C 64.2429 11.9837 64.4525 12.0566 64.7488 12.0566C 64.8946 12.0566 65.0951 12.0293 65.3503 11.9746L 65.3503 13C 65.0176 13.0911 64.6941 13.1367 64.3796 13.1367C 63.8145 13.1367 63.3884 12.9658 63.1013 12.624C 62.8142 12.2822 62.6706 11.7969 62.6706 11.168L 62.6706 6.58105L 61.324 6.58105L 61.324 5.60352L 62.6706 5.60352L 62.6706 3.8125L 63.9353 3.8125ZM 69.2195 11.1475L 70.9421 5.60352L 72.2956 5.60352L 69.322 14.1416C 68.8617 15.3721 68.1303 15.9873 67.1277 15.9873L 66.8884 15.9668L 66.4167 15.8779L 66.4167 14.8525L 66.7585 14.8799C 67.1869 14.8799 67.5196 14.7933 67.7566 14.6201C 67.9981 14.4469 68.1963 14.1302 68.3513 13.6699L 68.6316 12.918L 65.9929 5.60352L 67.3738 5.60352L 69.2195 11.1475ZM 79.6784 9.38379C 79.6784 10.5094 79.421 11.4163 78.906 12.1045C 78.391 12.7926 77.6937 13.1367 76.8142 13.1367C 75.9164 13.1367 75.21 12.8519 74.695 12.2822L 74.695 15.8438L 73.4304 15.8438L 73.4304 5.60352L 74.5857 5.60352L 74.6472 6.42383C 75.1622 5.78581 75.8777 5.4668 76.7937 5.4668C 77.6824 5.4668 78.3842 5.80176 78.8991 6.47168C 79.4187 7.1416 79.6784 8.07357 79.6784 9.26758L 79.6784 9.38379ZM 78.4138 9.24023C 78.4138 8.40625 78.2361 7.74772 77.8806 7.26465C 77.5251 6.78158 77.0375 6.54004 76.4177 6.54004C 75.6521 6.54004 75.0779 6.87956 74.695 7.55859L 74.695 11.0928C 75.0733 11.7673 75.6521 12.1045 76.4314 12.1045C 77.0375 12.1045 77.5183 11.8652 77.8738 11.3867C 78.2338 10.9036 78.4138 10.1882 78.4138 9.24023ZM 84.3611 13.1367C 83.3585 13.1367 82.5427 12.8086 81.9138 12.1523C 81.2849 11.4915 80.9704 10.6097 80.9704 9.50684L 80.9704 9.27441C 80.9704 8.54069 81.1094 7.88672 81.3874 7.3125C 81.67 6.73372 82.0619 6.28255 82.5632 5.95898C 83.0691 5.63086 83.6159 5.4668 84.2038 5.4668C 85.1654 5.4668 85.9128 5.78353 86.446 6.41699C 86.9792 7.05046 87.2458 7.95736 87.2458 9.1377L 87.2458 9.66406L 82.2351 9.66406C 82.2533 10.3932 82.4652 10.9834 82.8708 11.4346C 83.281 11.8812 83.8005 12.1045 84.4294 12.1045C 84.876 12.1045 85.2543 12.0133 85.5642 11.8311C 85.8741 11.6488 86.1452 11.4072 86.3777 11.1064L 87.1501 11.708C 86.5303 12.6605 85.6006 13.1367 84.3611 13.1367ZM 84.2038 6.50586C 83.6934 6.50586 83.265 6.69271 82.9187 7.06641C 82.5723 7.43555 82.3581 7.95508 82.2761 8.625L 85.9812 8.625L 85.9812 8.5293C 85.9447 7.88672 85.7715 7.38997 85.4616 7.03906C 85.1518 6.68359 84.7325 6.50586 84.2038 6.50586ZM 94.0476 14.0322L 87.7859 14.0322L 87.7859 13L 94.0476 13L 94.0476 14.0322ZM 96.406 13L 95.1413 13L 95.1413 5.60352L 96.406 5.60352L 96.406 13ZM 95.0388 3.6416C 95.0388 3.43652 95.1003 3.26335 95.2234 3.12207C 95.351 2.98079 95.5378 2.91016 95.7839 2.91016C 96.03 2.91016 96.2169 2.98079 96.3445 3.12207C 96.4721 3.26335 96.5359 3.43652 96.5359 3.6416C 96.5359 3.84668 96.4721 4.01758 96.3445 4.1543C 96.2169 4.29102 96.03 4.35938 95.7839 4.35938C 95.5378 4.35938 95.351 4.29102 95.2234 4.1543C 95.1003 4.01758 95.0388 3.84668 95.0388 3.6416ZM 98.1286 9.24023C 98.1286 8.10547 98.3975 7.19401 98.9353 6.50586C 99.473 5.81315 100.177 5.4668 101.048 5.4668C 101.913 5.4668 102.599 5.76302 103.105 6.35547L 103.105 2.5L 104.37 2.5L 104.37 13L 103.208 13L 103.146 12.207C 102.64 12.8268 101.936 13.1367 101.034 13.1367C 100.177 13.1367 99.4776 12.7858 98.9353 12.084C 98.3975 11.3822 98.1286 10.4661 98.1286 9.33594L 98.1286 9.24023ZM 99.3933 9.38379C 99.3933 10.2223 99.5665 10.8786 99.9128 11.3525C 100.259 11.8265 100.738 12.0635 101.348 12.0635C 102.15 12.0635 102.736 11.7035 103.105 10.9834L 103.105 7.58594C 102.727 6.88867 102.146 6.54004 101.362 6.54004C 100.742 6.54004 100.259 6.7793 99.9128 7.25781C 99.5665 7.73633 99.3933 8.44499 99.3933 9.38379Z"/>
<path id="path3_fill" d="M 45.4851 5.60352L 45.5261 6.5332C 46.0912 5.82227 46.8295 5.4668 47.7409 5.4668C 49.3041 5.4668 50.0925 6.34863 50.1062 8.1123L 50.1062 13L 48.8415 13L 48.8415 8.10547C 48.837 7.57227 48.7139 7.17806 48.4724 6.92285C 48.2354 6.66764 47.864 6.54004 47.3581 6.54004C 46.948 6.54004 46.5879 6.64941 46.2781 6.86816C 45.9682 7.08691 45.7266 7.37402 45.5534 7.72949L 45.5534 13L 44.2888 13L 44.2888 5.60352L 45.4851 5.60352ZM 56.5798 13C 56.5069 12.8542 56.4476 12.5944 56.4021 12.2207C 55.8142 12.8314 55.1124 13.1367 54.2966 13.1367C 53.5674 13.1367 52.9682 12.9316 52.4988 12.5215C 52.0339 12.1068 51.8015 11.5827 51.8015 10.9492C 51.8015 10.179 52.0932 9.58203 52.6765 9.1582C 53.2644 8.72982 54.0893 8.51562 55.1511 8.51562L 56.3816 8.51562L 56.3816 7.93457C 56.3816 7.49251 56.2494 7.1416 55.9851 6.88184C 55.7208 6.61751 55.3311 6.48535 54.8161 6.48535C 54.365 6.48535 53.9867 6.59928 53.6814 6.82715C 53.376 7.05501 53.2234 7.33073 53.2234 7.6543L 51.9519 7.6543C 51.9519 7.28516 52.0818 6.92969 52.3415 6.58789C 52.6059 6.24154 52.9613 5.9681 53.4079 5.76758C 53.8591 5.56706 54.3536 5.4668 54.8913 5.4668C 55.7435 5.4668 56.4112 5.68099 56.8943 6.10938C 57.3773 6.5332 57.628 7.11882 57.6462 7.86621L 57.6462 11.2705C 57.6462 11.9495 57.7328 12.4896 57.906 12.8906L 57.906 13L 56.5798 13ZM 54.4812 12.0361C 54.8777 12.0361 55.2536 11.9336 55.6091 11.7285C 55.9646 11.5234 56.2221 11.2568 56.3816 10.9287L 56.3816 9.41113L 55.3904 9.41113C 53.8409 9.41113 53.0661 9.86458 53.0661 10.7715C 53.0661 11.168 53.1983 11.4779 53.4626 11.7012C 53.7269 11.9245 54.0665 12.0361 54.4812 12.0361ZM 60.8181 5.60352L 60.8523 6.42383C 61.3946 5.78581 62.126 5.4668 63.0466 5.4668C 64.0811 5.4668 64.7852 5.86328 65.1589 6.65625C 65.405 6.30078 65.724 6.01367 66.1159 5.79492C 66.5124 5.57617 66.9796 5.4668 67.5173 5.4668C 69.1397 5.4668 69.9646 6.32585 69.9919 8.04395L 69.9919 13L 68.7273 13L 68.7273 8.11914C 68.7273 7.59049 68.6065 7.19629 68.365 6.93652C 68.1234 6.6722 67.7178 6.54004 67.1482 6.54004C 66.6788 6.54004 66.2891 6.68132 65.9792 6.96387C 65.6693 7.24186 65.4893 7.61784 65.4392 8.0918L 65.4392 13L 64.1677 13L 64.1677 8.15332C 64.1677 7.0778 63.6413 6.54004 62.5886 6.54004C 61.7592 6.54004 61.1918 6.89323 60.8865 7.59961L 60.8865 13L 59.6218 13L 59.6218 5.60352L 60.8181 5.60352ZM 74.9753 13.1367C 73.9727 13.1367 73.157 12.8086 72.5281 12.1523C 71.8991 11.4915 71.5847 10.6097 71.5847 9.50684L 71.5847 9.27441C 71.5847 8.54069 71.7237 7.88672 72.0017 7.3125C 72.2842 6.73372 72.6762 6.28255 73.1775 5.95898C 73.6833 5.63086 74.2302 5.4668 74.8181 5.4668C 75.7797 5.4668 76.5271 5.78353 77.0603 6.41699C 77.5935 7.05046 77.8601 7.95736 77.8601 9.1377L 77.8601 9.66406L 72.8493 9.66406C 72.8676 10.3932 73.0795 10.9834 73.4851 11.4346C 73.8952 11.8812 74.4148 12.1045 75.0437 12.1045C 75.4903 12.1045 75.8685 12.0133 76.1784 11.8311C 76.4883 11.6488 76.7595 11.4072 76.9919 11.1064L 77.7644 11.708C 77.1446 12.6605 76.2149 13.1367 74.9753 13.1367ZM 74.8181 6.50586C 74.3077 6.50586 73.8793 6.69271 73.5329 7.06641C 73.1866 7.43555 72.9724 7.95508 72.8904 8.625L 76.5954 8.625L 76.5954 8.5293C 76.559 7.88672 76.3858 7.38997 76.0759 7.03906C 75.766 6.68359 75.3467 6.50586 74.8181 6.50586Z"/>
<path id="path4_fill" d="M 39.1687 3.8125L 39.1687 5.60352L 40.5495 5.60352L 40.5495 6.58105L 39.1687 6.58105L 39.1687 11.168C 39.1687 11.4642 39.2302 11.6875 39.3532 11.8379C 39.4763 11.9837 39.6859 12.0566 39.9822 12.0566C 40.128 12.0566 40.3285 12.0293 40.5837 11.9746L 40.5837 13C 40.251 13.0911 39.9275 13.1367 39.613 13.1367C 39.0479 13.1367 38.6218 12.9658 38.3347 12.624C 38.0476 12.2822 37.904 11.7969 37.904 11.168L 37.904 6.58105L 36.5574 6.58105L 36.5574 5.60352L 37.904 5.60352L 37.904 3.8125L 39.1687 3.8125ZM 45.6081 6.73828C 45.4167 6.70638 45.2094 6.69043 44.9861 6.69043C 44.1566 6.69043 43.5938 7.04362 43.2976 7.75L 43.2976 13L 42.0329 13L 42.0329 5.60352L 43.2634 5.60352L 43.2839 6.45801C 43.6986 5.7972 44.2865 5.4668 45.0476 5.4668C 45.2937 5.4668 45.4805 5.4987 45.6081 5.5625L 45.6081 6.73828ZM 51.07 13C 50.9971 12.8542 50.9379 12.5944 50.8923 12.2207C 50.3044 12.8314 49.6026 13.1367 48.7868 13.1367C 48.0577 13.1367 47.4584 12.9316 46.989 12.5215C 46.5241 12.1068 46.2917 11.5827 46.2917 10.9492C 46.2917 10.179 46.5834 9.58203 47.1667 9.1582C 47.7546 8.72982 48.5795 8.51562 49.6413 8.51562L 50.8718 8.51562L 50.8718 7.93457C 50.8718 7.49251 50.7396 7.1416 50.4753 6.88184C 50.211 6.61751 49.8213 6.48535 49.3064 6.48535C 48.8552 6.48535 48.4769 6.59928 48.1716 6.82715C 47.8663 7.05501 47.7136 7.33073 47.7136 7.6543L 46.4421 7.6543C 46.4421 7.28516 46.572 6.92969 46.8318 6.58789C 47.0961 6.24154 47.4516 5.9681 47.8982 5.76758C 48.3493 5.56706 48.8438 5.4668 49.3816 5.4668C 50.2338 5.4668 50.9014 5.68099 51.3845 6.10938C 51.8676 6.5332 52.1182 7.11882 52.1365 7.86621L 52.1365 11.2705C 52.1365 11.9495 52.223 12.4896 52.3962 12.8906L 52.3962 13L 51.07 13ZM 48.9714 12.0361C 49.3679 12.0361 49.7439 11.9336 50.0993 11.7285C 50.4548 11.5234 50.7123 11.2568 50.8718 10.9287L 50.8718 9.41113L 49.8806 9.41113C 48.3311 9.41113 47.5564 9.86458 47.5564 10.7715C 47.5564 11.168 47.6885 11.4779 47.9529 11.7012C 48.2172 11.9245 48.5567 12.0361 48.9714 12.0361ZM 57.0857 12.1045C 57.5368 12.1045 57.931 11.9678 58.2683 11.6943C 58.6055 11.4209 58.7924 11.0791 58.8288 10.6689L 60.0251 10.6689C 60.0023 11.0928 59.8565 11.4961 59.5876 11.8789C 59.3187 12.2617 58.9587 12.5671 58.5075 12.7949C 58.0609 13.0228 57.587 13.1367 57.0857 13.1367C 56.0785 13.1367 55.2764 12.8018 54.6794 12.1318C 54.087 11.4574 53.7907 10.5368 53.7907 9.37012L 53.7907 9.1582C 53.7907 8.43815 53.9229 7.79785 54.1872 7.2373C 54.4516 6.67676 54.8298 6.24154 55.322 5.93164C 55.8187 5.62174 56.4044 5.4668 57.0788 5.4668C 57.9083 5.4668 58.5964 5.71517 59.1433 6.21191C 59.6947 6.70866 59.9887 7.35352 60.0251 8.14648L 58.8288 8.14648C 58.7924 7.66797 58.6101 7.27604 58.282 6.9707C 57.9584 6.66081 57.5574 6.50586 57.0788 6.50586C 56.4363 6.50586 55.9372 6.73828 55.5818 7.20312C 55.2309 7.66341 55.0554 8.33105 55.0554 9.20605L 55.0554 9.44531C 55.0554 10.2975 55.2309 10.9538 55.5818 11.4141C 55.9327 11.8743 56.434 12.1045 57.0857 12.1045ZM 63.5115 9.5752L 62.7185 10.4023L 62.7185 13L 61.4538 13L 61.4538 2.5L 62.7185 2.5L 62.7185 8.85059L 63.3952 8.03711L 65.699 5.60352L 67.237 5.60352L 64.3591 8.69336L 67.572 13L 66.0886 13L 63.5115 9.5752ZM 73.8747 14.0322L 67.613 14.0322L 67.613 13L 73.8747 13L 73.8747 14.0322ZM 76.2331 13L 74.9685 13L 74.9685 5.60352L 76.2331 5.60352L 76.2331 13ZM 74.8659 3.6416C 74.8659 3.43652 74.9275 3.26335 75.0505 3.12207C 75.1781 2.98079 75.365 2.91016 75.6111 2.91016C 75.8572 2.91016 76.044 2.98079 76.1716 3.12207C 76.2992 3.26335 76.363 3.43652 76.363 3.6416C 76.363 3.84668 76.2992 4.01758 76.1716 4.1543C 76.044 4.29102 75.8572 4.35938 75.6111 4.35938C 75.365 4.35938 75.1781 4.29102 75.0505 4.1543C 74.9275 4.01758 74.8659 3.84668 74.8659 3.6416ZM 77.9558 9.24023C 77.9558 8.10547 78.2247 7.19401 78.7624 6.50586C 79.3002 5.81315 80.0043 5.4668 80.8747 5.4668C 81.7406 5.4668 82.4265 5.76302 82.9324 6.35547L 82.9324 2.5L 84.197 2.5L 84.197 13L 83.0349 13L 82.9734 12.207C 82.4675 12.8268 81.7634 13.1367 80.8611 13.1367C 80.0043 13.1367 79.3047 12.7858 78.7624 12.084C 78.2247 11.3822 77.9558 10.4661 77.9558 9.33594L 77.9558 9.24023ZM 79.2204 9.38379C 79.2204 10.2223 79.3936 10.8786 79.74 11.3525C 80.0863 11.8265 80.5648 12.0635 81.1755 12.0635C 81.9776 12.0635 82.5632 11.7035 82.9324 10.9834L 82.9324 7.58594C 82.5541 6.88867 81.973 6.54004 81.1892 6.54004C 80.5694 6.54004 80.0863 6.7793 79.74 7.25781C 79.3936 7.73633 79.2204 8.44499 79.2204 9.38379Z"/>
<path id="path5_fill" d="M 48.0144 3.78516L 48.0144 5.60352L 49.279 5.60352L 49.279 7.05273L 48.0144 7.05273L 48.0144 10.7441C 48.0144 11.0176 48.0668 11.2135 48.1716 11.332C 48.2764 11.4505 48.4769 11.5098 48.7732 11.5098C 48.9919 11.5098 49.1856 11.4938 49.3542 11.4619L 49.3542 12.959C 48.9669 13.0775 48.5681 13.1367 48.1579 13.1367C 46.7725 13.1367 46.0661 12.4372 46.0388 11.0381L 46.0388 7.05273L 44.9587 7.05273L 44.9587 5.60352L 46.0388 5.60352L 46.0388 3.78516L 48.0144 3.78516ZM 54.5359 7.45605C 54.267 7.4196 54.03 7.40137 53.8249 7.40137C 53.0775 7.40137 52.5876 7.6543 52.3552 8.16016L 52.3552 13L 50.3796 13L 50.3796 5.60352L 52.2458 5.60352L 52.3005 6.48535C 52.697 5.80631 53.2462 5.4668 53.948 5.4668C 54.1667 5.4668 54.3718 5.49642 54.5632 5.55566L 54.5359 7.45605ZM 59.574 13C 59.4828 12.8223 59.4167 12.6012 59.3757 12.3369C 58.8972 12.8701 58.2751 13.1367 57.5095 13.1367C 56.7849 13.1367 56.1833 12.9271 55.7048 12.5078C 55.2309 12.0885 54.9939 11.5599 54.9939 10.9219C 54.9939 10.138 55.2833 9.53646 55.862 9.11719C 56.4454 8.69792 57.2862 8.486 58.3845 8.48145L 59.2937 8.48145L 59.2937 8.05762C 59.2937 7.71582 59.2048 7.44238 59.0271 7.2373C 58.8539 7.03223 58.5782 6.92969 58.1999 6.92969C 57.8672 6.92969 57.6052 7.00944 57.4138 7.16895C 57.2269 7.32845 57.1335 7.5472 57.1335 7.8252L 55.1579 7.8252C 55.1579 7.39681 55.2901 7.00033 55.5544 6.63574C 55.8187 6.27116 56.1924 5.98633 56.6755 5.78125C 57.1586 5.57161 57.7009 5.4668 58.3025 5.4668C 59.2139 5.4668 59.9363 5.69694 60.4695 6.15723C 61.0072 6.61296 61.2761 7.25553 61.2761 8.08496L 61.2761 11.291C 61.2807 11.9928 61.3786 12.5238 61.57 12.8838L 61.57 13L 59.574 13ZM 57.9402 11.626C 58.2318 11.626 58.5007 11.5622 58.7468 11.4346C 58.9929 11.3024 59.1752 11.127 59.2937 10.9082L 59.2937 9.63672L 58.5554 9.63672C 57.5665 9.63672 57.0401 9.97852 56.9763 10.6621L 56.9695 10.7783C 56.9695 11.0244 57.056 11.2272 57.2292 11.3867C 57.4024 11.5462 57.6394 11.626 57.9402 11.626ZM 65.8699 11.5439C 66.2344 11.5439 66.5307 11.4437 66.7585 11.2432C 66.9864 11.0426 67.1049 10.776 67.114 10.4434L 68.9665 10.4434C 68.962 10.9447 68.8253 11.4049 68.5564 11.8242C 68.2875 12.2389 67.9184 12.5625 67.449 12.7949C 66.9841 13.0228 66.4691 13.1367 65.904 13.1367C 64.8467 13.1367 64.0128 12.8018 63.4021 12.1318C 62.7914 11.4574 62.4861 10.5277 62.4861 9.34277L 62.4861 9.21289C 62.4861 8.07357 62.7891 7.16439 63.3952 6.48535C 64.0014 5.80631 64.8331 5.4668 65.8904 5.4668C 66.8155 5.4668 67.556 5.73112 68.112 6.25977C 68.6726 6.78385 68.9574 7.4834 68.9665 8.3584L 67.114 8.3584C 67.1049 7.97559 66.9864 7.66569 66.7585 7.42871C 66.5307 7.18717 66.2299 7.06641 65.8562 7.06641C 65.3959 7.06641 65.0473 7.23503 64.8103 7.57227C 64.5779 7.90495 64.4616 8.44727 64.4616 9.19922L 64.4616 9.4043C 64.4616 10.1654 64.5779 10.7122 64.8103 11.0449C 65.0427 11.3776 65.3959 11.5439 65.8699 11.5439ZM 72.781 10.0332L 72.07 10.7441L 72.07 13L 70.0945 13L 70.0945 2.5L 72.07 2.5L 72.07 8.31738L 72.4529 7.8252L 74.3464 5.60352L 76.7185 5.60352L 74.0456 8.68652L 76.9509 13L 74.6814 13L 72.781 10.0332Z"/>
<path id="path6_fill" d="M 27.322 5.60352L 27.3835 6.43066C 27.9076 5.78809 28.6163 5.4668 29.5095 5.4668C 30.462 5.4668 31.1159 5.84277 31.4714 6.59473C 31.9909 5.84277 32.7315 5.4668 33.6931 5.4668C 34.4952 5.4668 35.0922 5.7015 35.4841 6.1709C 35.876 6.63574 36.072 7.33757 36.072 8.27637L 36.072 13L 34.0896 13L 34.0896 8.2832C 34.0896 7.86393 34.0075 7.55859 33.8435 7.36719C 33.6794 7.17122 33.39 7.07324 32.9753 7.07324C 32.3829 7.07324 31.9727 7.35579 31.7449 7.9209L 31.7517 13L 29.7761 13L 29.7761 8.29004C 29.7761 7.86165 29.6918 7.55176 29.5232 7.36035C 29.3546 7.16895 29.0674 7.07324 28.6618 7.07324C 28.1013 7.07324 27.6957 7.30566 27.445 7.77051L 27.445 13L 25.4695 13L 25.4695 5.60352L 27.322 5.60352ZM 41.0007 13.1367C 39.9161 13.1367 39.032 12.804 38.3484 12.1387C 37.6693 11.4733 37.3298 10.5869 37.3298 9.47949L 37.3298 9.28809C 37.3298 8.54525 37.4734 7.88216 37.7605 7.29883C 38.0476 6.71094 38.4532 6.25977 38.9773 5.94531C 39.5059 5.6263 40.1075 5.4668 40.782 5.4668C 41.7937 5.4668 42.5889 5.78581 43.1677 6.42383C 43.751 7.06185 44.0427 7.96647 44.0427 9.1377L 44.0427 9.94434L 39.3327 9.94434C 39.3965 10.4274 39.5879 10.8148 39.907 11.1064C 40.2305 11.3981 40.6384 11.5439 41.1306 11.5439C 41.8917 11.5439 42.4864 11.2682 42.9148 10.7168L 43.8855 11.8037C 43.5893 12.223 43.1882 12.5511 42.6824 12.7881C 42.1765 13.0205 41.6159 13.1367 41.0007 13.1367ZM 40.7751 7.06641C 40.3832 7.06641 40.0642 7.19857 39.8181 7.46289C 39.5766 7.72721 39.4216 8.10547 39.3532 8.59766L 42.1013 8.59766L 42.1013 8.44043C 42.0922 8.00293 41.9737 7.66569 41.7458 7.42871C 41.518 7.18717 41.1944 7.06641 40.7751 7.06641ZM 44.863 9.24707C 44.863 8.09408 45.1205 7.17578 45.6355 6.49219C 46.155 5.80859 46.8637 5.4668 47.7615 5.4668C 48.4815 5.4668 49.0762 5.73568 49.5456 6.27344L 49.5456 2.5L 51.5281 2.5L 51.5281 13L 49.7439 13L 49.6482 12.2139C 49.156 12.8291 48.5225 13.1367 47.7478 13.1367C 46.8773 13.1367 46.1778 12.7949 45.6491 12.1113C 45.1251 11.4232 44.863 10.4684 44.863 9.24707ZM 46.8386 9.39062C 46.8386 10.0833 46.9594 10.6143 47.2009 10.9834C 47.4424 11.3525 47.7934 11.5371 48.2536 11.5371C 48.8643 11.5371 49.295 11.2796 49.5456 10.7646L 49.5456 7.8457C 49.2995 7.33073 48.8734 7.07324 48.2673 7.07324C 47.3148 7.07324 46.8386 7.8457 46.8386 9.39062ZM 55.1443 13L 53.1618 13L 53.1618 5.60352L 55.1443 5.60352L 55.1443 13ZM 53.0456 3.68945C 53.0456 3.39323 53.1436 3.14941 53.3396 2.95801C 53.5401 2.7666 53.8113 2.6709 54.1531 2.6709C 54.4903 2.6709 54.7592 2.7666 54.9597 2.95801C 55.1602 3.14941 55.2605 3.39323 55.2605 3.68945C 55.2605 3.99023 55.1579 4.23633 54.9529 4.42773C 54.7523 4.61914 54.4857 4.71484 54.1531 4.71484C 53.8204 4.71484 53.5515 4.61914 53.3464 4.42773C 53.1459 4.23633 53.0456 3.99023 53.0456 3.68945ZM 61.0642 13C 60.973 12.8223 60.907 12.6012 60.8659 12.3369C 60.3874 12.8701 59.7654 13.1367 58.9997 13.1367C 58.2751 13.1367 57.6736 12.9271 57.195 12.5078C 56.7211 12.0885 56.4841 11.5599 56.4841 10.9219C 56.4841 10.138 56.7735 9.53646 57.3523 9.11719C 57.9356 8.69792 58.7764 8.486 59.8747 8.48145L 60.7839 8.48145L 60.7839 8.05762C 60.7839 7.71582 60.695 7.44238 60.5173 7.2373C 60.3441 7.03223 60.0684 6.92969 59.6902 6.92969C 59.3575 6.92969 59.0954 7.00944 58.904 7.16895C 58.7172 7.32845 58.6238 7.5472 58.6238 7.8252L 56.6482 7.8252C 56.6482 7.39681 56.7803 7.00033 57.0447 6.63574C 57.309 6.27116 57.6827 5.98633 58.1657 5.78125C 58.6488 5.57161 59.1911 5.4668 59.7927 5.4668C 60.7042 5.4668 61.4265 5.69694 61.9597 6.15723C 62.4975 6.61296 62.7663 7.25553 62.7663 8.08496L 62.7663 11.291C 62.7709 11.9928 62.8689 12.5238 63.0603 12.8838L 63.0603 13L 61.0642 13ZM 59.4304 11.626C 59.7221 11.626 59.9909 11.5622 60.237 11.4346C 60.4831 11.3024 60.6654 11.127 60.7839 10.9082L 60.7839 9.63672L 60.0456 9.63672C 59.0567 9.63672 58.5303 9.97852 58.4665 10.6621L 58.4597 10.7783C 58.4597 11.0244 58.5463 11.2272 58.7195 11.3867C 58.8926 11.5462 59.1296 11.626 59.4304 11.626ZM 69.7595 14.5449L 63.532 14.5449L 63.532 13L 69.7595 13L 69.7595 14.5449ZM 72.8972 3.78516L 72.8972 5.60352L 74.1618 5.60352L 74.1618 7.05273L 72.8972 7.05273L 72.8972 10.7441C 72.8972 11.0176 72.9496 11.2135 73.0544 11.332C 73.1592 11.4505 73.3598 11.5098 73.656 11.5098C 73.8747 11.5098 74.0684 11.4938 74.237 11.4619L 74.237 12.959C 73.8497 13.0775 73.4509 13.1367 73.0407 13.1367C 71.6553 13.1367 70.949 12.4372 70.9216 11.0381L 70.9216 7.05273L 69.8415 7.05273L 69.8415 5.60352L 70.9216 5.60352L 70.9216 3.78516L 72.8972 3.78516ZM 78.0241 10.2041L 79.3913 5.60352L 81.5105 5.60352L 78.5368 14.1484L 78.3728 14.5381C 77.9307 15.5042 77.2016 15.9873 76.1853 15.9873C 75.8982 15.9873 75.6065 15.944 75.3103 15.8574L 75.3103 14.3604L 75.6111 14.3672C 75.9848 14.3672 76.2628 14.3102 76.445 14.1963C 76.6319 14.0824 76.7777 13.8932 76.8825 13.6289L 77.115 13.0205L 74.5241 5.60352L 76.6501 5.60352L 78.0241 10.2041ZM 88.948 9.37012C 88.948 10.5094 88.6882 11.4232 88.1687 12.1113C 87.6537 12.7949 86.9564 13.1367 86.0769 13.1367C 85.3295 13.1367 84.7256 12.877 84.2654 12.3574L 84.2654 15.8438L 82.2898 15.8438L 82.2898 5.60352L 84.1218 5.60352L 84.1902 6.32812C 84.6687 5.75391 85.293 5.4668 86.0632 5.4668C 86.9747 5.4668 87.6833 5.80404 88.1892 6.47852C 88.695 7.15299 88.948 8.08268 88.948 9.26758L 88.948 9.37012ZM 86.9724 9.22656C 86.9724 8.53841 86.8493 8.00749 86.6032 7.63379C 86.3617 7.26009 86.0085 7.07324 85.5437 7.07324C 84.9239 7.07324 84.4978 7.31022 84.2654 7.78418L 84.2654 10.8125C 84.5069 11.3001 84.9376 11.5439 85.5574 11.5439C 86.5007 11.5439 86.9724 10.7715 86.9724 9.22656ZM 93.5827 13.1367C 92.4981 13.1367 91.614 12.804 90.9304 12.1387C 90.2514 11.4733 89.9118 10.5869 89.9118 9.47949L 89.9118 9.28809C 89.9118 8.54525 90.0554 7.88216 90.3425 7.29883C 90.6296 6.71094 91.0352 6.25977 91.5593 5.94531C 92.0879 5.6263 92.6895 5.4668 93.364 5.4668C 94.3757 5.4668 95.171 5.78581 95.7497 6.42383C 96.3331 7.06185 96.6247 7.96647 96.6247 9.1377L 96.6247 9.94434L 91.9148 9.94434C 91.9786 10.4274 92.17 10.8148 92.489 11.1064C 92.8126 11.3981 93.2204 11.5439 93.7126 11.5439C 94.4737 11.5439 95.0684 11.2682 95.4968 10.7168L 96.4675 11.8037C 96.1713 12.223 95.7702 12.5511 95.2644 12.7881C 94.7585 13.0205 94.198 13.1367 93.5827 13.1367ZM 93.3572 7.06641C 92.9652 7.06641 92.6462 7.19857 92.4001 7.46289C 92.1586 7.72721 92.0036 8.10547 91.9353 8.59766L 94.6833 8.59766L 94.6833 8.44043C 94.6742 8.00293 94.5557 7.66569 94.3279 7.42871C 94.1 7.18717 93.7764 7.06641 93.3572 7.06641Z"/>
<path id="path7_fill" d="M 38.1228 13C 38.0499 12.8542 37.9906 12.5944 37.945 12.2207C 37.3572 12.8314 36.6553 13.1367 35.8396 13.1367C 35.1104 13.1367 34.5111 12.9316 34.0417 12.5215C 33.5769 12.1068 33.3445 11.5827 33.3445 10.9492C 33.3445 10.179 33.6361 9.58203 34.2195 9.1582C 34.8074 8.72982 35.6322 8.51562 36.6941 8.51562L 37.9245 8.51562L 37.9245 7.93457C 37.9245 7.49251 37.7924 7.1416 37.5281 6.88184C 37.2637 6.61751 36.8741 6.48535 36.3591 6.48535C 35.9079 6.48535 35.5297 6.59928 35.2243 6.82715C 34.919 7.05501 34.7663 7.33073 34.7663 7.6543L 33.4949 7.6543C 33.4949 7.28516 33.6247 6.92969 33.8845 6.58789C 34.1488 6.24154 34.5043 5.9681 34.9509 5.76758C 35.4021 5.56706 35.8965 5.4668 36.4343 5.4668C 37.2865 5.4668 37.9542 5.68099 38.4372 6.10938C 38.9203 6.5332 39.171 7.11882 39.1892 7.86621L 39.1892 11.2705C 39.1892 11.9495 39.2758 12.4896 39.449 12.8906L 39.449 13L 38.1228 13ZM 36.0241 12.0361C 36.4206 12.0361 36.7966 11.9336 37.1521 11.7285C 37.5075 11.5234 37.765 11.2568 37.9245 10.9287L 37.9245 9.41113L 36.9333 9.41113C 35.3838 9.41113 34.6091 9.86458 34.6091 10.7715C 34.6091 11.168 34.7413 11.4779 35.0056 11.7012C 35.2699 11.9245 35.6094 12.0361 36.0241 12.0361ZM 42.5456 13L 41.281 13L 41.281 2.5L 42.5456 2.5L 42.5456 13ZM 50.8376 9.38379C 50.8376 10.514 50.5779 11.4232 50.0583 12.1113C 49.5388 12.7949 48.8415 13.1367 47.9665 13.1367C 47.0323 13.1367 46.31 12.8063 45.7995 12.1455L 45.738 13L 44.5759 13L 44.5759 2.5L 45.8406 2.5L 45.8406 6.41699C 46.351 5.78353 47.0551 5.4668 47.9529 5.4668C 48.8506 5.4668 49.5547 5.80631 50.0652 6.48535C 50.5801 7.16439 50.8376 8.09408 50.8376 9.27441L 50.8376 9.38379ZM 49.573 9.24023C 49.573 8.37891 49.4066 7.71354 49.074 7.24414C 48.7413 6.77474 48.2628 6.54004 47.6384 6.54004C 46.8044 6.54004 46.2051 6.92741 45.8406 7.70215L 45.8406 10.9014C 46.2279 11.6761 46.8318 12.0635 47.6521 12.0635C 48.2582 12.0635 48.7299 11.8288 49.0671 11.3594C 49.4044 10.89 49.573 10.1836 49.573 9.24023ZM 57.0036 12.2686C 56.5115 12.8473 55.7891 13.1367 54.8366 13.1367C 54.0482 13.1367 53.4467 12.9089 53.032 12.4531C 52.6218 11.9928 52.4144 11.3138 52.4099 10.416L 52.4099 5.60352L 53.6745 5.60352L 53.6745 10.3818C 53.6745 11.5029 54.1303 12.0635 55.0417 12.0635C 56.0079 12.0635 56.6504 11.7035 56.9695 10.9834L 56.9695 5.60352L 58.2341 5.60352L 58.2341 13L 57.031 13L 57.0036 12.2686ZM 61.3513 5.60352L 61.3855 6.42383C 61.9278 5.78581 62.6592 5.4668 63.5798 5.4668C 64.6143 5.4668 65.3184 5.86328 65.6921 6.65625C 65.9382 6.30078 66.2572 6.01367 66.6491 5.79492C 67.0456 5.57617 67.5128 5.4668 68.0505 5.4668C 69.6729 5.4668 70.4978 6.32585 70.5251 8.04395L 70.5251 13L 69.2605 13L 69.2605 8.11914C 69.2605 7.59049 69.1397 7.19629 68.8982 6.93652C 68.6566 6.6722 68.251 6.54004 67.6814 6.54004C 67.212 6.54004 66.8223 6.68132 66.5124 6.96387C 66.2025 7.24186 66.0225 7.61784 65.9724 8.0918L 65.9724 13L 64.7009 13L 64.7009 8.15332C 64.7009 7.0778 64.1745 6.54004 63.1218 6.54004C 62.2924 6.54004 61.725 6.89323 61.4197 7.59961L 61.4197 13L 60.155 13L 60.155 5.60352L 61.3513 5.60352ZM 77.7712 14.0322L 71.5095 14.0322L 71.5095 13L 77.7712 13L 77.7712 14.0322ZM 80.1296 13L 78.865 13L 78.865 5.60352L 80.1296 5.60352L 80.1296 13ZM 78.7624 3.6416C 78.7624 3.43652 78.824 3.26335 78.947 3.12207C 79.0746 2.98079 79.2615 2.91016 79.5075 2.91016C 79.7536 2.91016 79.9405 2.98079 80.0681 3.12207C 80.1957 3.26335 80.2595 3.43652 80.2595 3.6416C 80.2595 3.84668 80.1957 4.01758 80.0681 4.1543C 79.9405 4.29102 79.7536 4.35938 79.5075 4.35938C 79.2615 4.35938 79.0746 4.29102 78.947 4.1543C 78.824 4.01758 78.7624 3.84668 78.7624 3.6416ZM 81.8523 9.24023C 81.8523 8.10547 82.1212 7.19401 82.6589 6.50586C 83.1967 5.81315 83.9008 5.4668 84.7712 5.4668C 85.6371 5.4668 86.323 5.76302 86.8288 6.35547L 86.8288 2.5L 88.0935 2.5L 88.0935 13L 86.9314 13L 86.8699 12.207C 86.364 12.8268 85.6599 13.1367 84.7575 13.1367C 83.9008 13.1367 83.2012 12.7858 82.6589 12.084C 82.1212 11.3822 81.8523 10.4661 81.8523 9.33594L 81.8523 9.24023ZM 83.1169 9.38379C 83.1169 10.2223 83.2901 10.8786 83.6365 11.3525C 83.9828 11.8265 84.4613 12.0635 85.072 12.0635C 85.8741 12.0635 86.4597 11.7035 86.8288 10.9834L 86.8288 7.58594C 86.4506 6.88867 85.8695 6.54004 85.0857 6.54004C 84.4659 6.54004 83.9828 6.7793 83.6365 7.25781C 83.2901 7.73633 83.1169 8.44499 83.1169 9.38379Z"/>
<path id="path8_fill" d="M 35.1765 9.24023C 35.1765 8.08724 35.4431 7.17122 35.9763 6.49219C 36.5095 5.80859 37.2159 5.4668 38.0954 5.4668C 38.9978 5.4668 39.7019 5.78581 40.2077 6.42383L 40.2693 5.60352L 41.4245 5.60352L 41.4245 12.8223C 41.4245 13.7793 41.1397 14.5335 40.57 15.085C 40.0049 15.6364 39.2439 15.9121 38.2868 15.9121C 37.7536 15.9121 37.2318 15.7982 36.7214 15.5703C 36.211 15.3424 35.8213 15.0303 35.5525 14.6338L 36.2087 13.875C 36.751 14.5449 37.4141 14.8799 38.198 14.8799C 38.8132 14.8799 39.2917 14.7067 39.6335 14.3604C 39.9799 14.014 40.1531 13.5264 40.1531 12.8975L 40.1531 12.2617C 39.6472 12.8451 38.9568 13.1367 38.0818 13.1367C 37.2159 13.1367 36.5141 12.7881 35.9763 12.0908C 35.4431 11.3936 35.1765 10.4434 35.1765 9.24023ZM 36.448 9.38379C 36.448 10.2178 36.6189 10.874 36.9607 11.3525C 37.3025 11.8265 37.781 12.0635 38.3962 12.0635C 39.1937 12.0635 39.7794 11.7012 40.1531 10.9766L 40.1531 7.59961C 39.7657 6.89323 39.1846 6.54004 38.4099 6.54004C 37.7947 6.54004 37.3139 6.7793 36.9675 7.25781C 36.6212 7.73633 36.448 8.44499 36.448 9.38379ZM 46.4079 13.1367C 45.4053 13.1367 44.5896 12.8086 43.9607 12.1523C 43.3318 11.4915 43.0173 10.6097 43.0173 9.50684L 43.0173 9.27441C 43.0173 8.54069 43.1563 7.88672 43.4343 7.3125C 43.7169 6.73372 44.1088 6.28255 44.6101 5.95898C 45.1159 5.63086 45.6628 5.4668 46.2507 5.4668C 47.2123 5.4668 47.9597 5.78353 48.4929 6.41699C 49.0261 7.05046 49.2927 7.95736 49.2927 9.1377L 49.2927 9.66406L 44.282 9.66406C 44.3002 10.3932 44.5121 10.9834 44.9177 11.4346C 45.3279 11.8812 45.8474 12.1045 46.4763 12.1045C 46.9229 12.1045 47.3012 12.0133 47.6111 11.8311C 47.921 11.6488 48.1921 11.4072 48.4245 11.1064L 49.197 11.708C 48.5772 12.6605 47.6475 13.1367 46.4079 13.1367ZM 46.2507 6.50586C 45.7403 6.50586 45.3119 6.69271 44.9656 7.06641C 44.6192 7.43555 44.405 7.95508 44.323 8.625L 48.0281 8.625L 48.0281 8.5293C 47.9916 7.88672 47.8184 7.38997 47.5085 7.03906C 47.1986 6.68359 46.7794 6.50586 46.2507 6.50586ZM 51.9587 5.60352L 51.9997 6.5332C 52.5648 5.82227 53.3031 5.4668 54.2146 5.4668C 55.7777 5.4668 56.5661 6.34863 56.5798 8.1123L 56.5798 13L 55.3152 13L 55.3152 8.10547C 55.3106 7.57227 55.1876 7.17806 54.946 6.92285C 54.709 6.66764 54.3376 6.54004 53.8318 6.54004C 53.4216 6.54004 53.0616 6.64941 52.7517 6.86816C 52.4418 7.08691 52.2003 7.37402 52.0271 7.72949L 52.0271 13L 50.7624 13L 50.7624 5.60352L 51.9587 5.60352ZM 62.0622 6.73828C 61.8708 6.70638 61.6635 6.69043 61.4402 6.69043C 60.6107 6.69043 60.0479 7.04362 59.7517 7.75L 59.7517 13L 58.487 13L 58.487 5.60352L 59.7175 5.60352L 59.738 6.45801C 60.1527 5.7972 60.7406 5.4668 61.5017 5.4668C 61.7478 5.4668 61.9346 5.4987 62.0622 5.5625L 62.0622 6.73828ZM 66.1638 13.1367C 65.1612 13.1367 64.3454 12.8086 63.7165 12.1523C 63.0876 11.4915 62.7732 10.6097 62.7732 9.50684L 62.7732 9.27441C 62.7732 8.54069 62.9122 7.88672 63.1902 7.3125C 63.4727 6.73372 63.8646 6.28255 64.3659 5.95898C 64.8718 5.63086 65.4187 5.4668 66.0066 5.4668C 66.9682 5.4668 67.7156 5.78353 68.2488 6.41699C 68.782 7.05046 69.0486 7.95736 69.0486 9.1377L 69.0486 9.66406L 64.0378 9.66406C 64.056 10.3932 64.268 10.9834 64.6736 11.4346C 65.0837 11.8812 65.6032 12.1045 66.2322 12.1045C 66.6788 12.1045 67.057 12.0133 67.3669 11.8311C 67.6768 11.6488 67.948 11.4072 68.1804 11.1064L 68.9529 11.708C 68.3331 12.6605 67.4034 13.1367 66.1638 13.1367ZM 66.0066 6.50586C 65.4962 6.50586 65.0678 6.69271 64.7214 7.06641C 64.3751 7.43555 64.1609 7.95508 64.0788 8.625L 67.7839 8.625L 67.7839 8.5293C 67.7475 7.88672 67.5743 7.38997 67.2644 7.03906C 66.9545 6.68359 66.5352 6.50586 66.0066 6.50586ZM 75.8503 14.0322L 69.5886 14.0322L 69.5886 13L 75.8503 13L 75.8503 14.0322ZM 78.2087 13L 76.9441 13L 76.9441 5.60352L 78.2087 5.60352L 78.2087 13ZM 76.8415 3.6416C 76.8415 3.43652 76.9031 3.26335 77.0261 3.12207C 77.1537 2.98079 77.3406 2.91016 77.5866 2.91016C 77.8327 2.91016 78.0196 2.98079 78.1472 3.12207C 78.2748 3.26335 78.3386 3.43652 78.3386 3.6416C 78.3386 3.84668 78.2748 4.01758 78.1472 4.1543C 78.0196 4.29102 77.8327 4.35938 77.5866 4.35938C 77.3406 4.35938 77.1537 4.29102 77.0261 4.1543C 76.9031 4.01758 76.8415 3.84668 76.8415 3.6416ZM 79.9314 9.24023C 79.9314 8.10547 80.2003 7.19401 80.738 6.50586C 81.2758 5.81315 81.9799 5.4668 82.8503 5.4668C 83.7162 5.4668 84.4021 5.76302 84.9079 6.35547L 84.9079 2.5L 86.1726 2.5L 86.1726 13L 85.0105 13L 84.949 12.207C 84.4431 12.8268 83.739 13.1367 82.8366 13.1367C 81.9799 13.1367 81.2803 12.7858 80.738 12.084C 80.2003 11.3822 79.9314 10.4661 79.9314 9.33594L 79.9314 9.24023ZM 81.196 9.38379C 81.196 10.2223 81.3692 10.8786 81.7156 11.3525C 82.0619 11.8265 82.5404 12.0635 83.1511 12.0635C 83.9532 12.0635 84.5388 11.7035 84.9079 10.9834L 84.9079 7.58594C 84.5297 6.88867 83.9486 6.54004 83.1648 6.54004C 82.545 6.54004 82.0619 6.7793 81.7156 7.25781C 81.3692 7.73633 81.196 8.44499 81.196 9.38379Z"/>
<path id="path9_fill" d="M 33.365 12.1045C 33.8161 12.1045 34.2103 11.9678 34.5476 11.6943C 34.8848 11.4209 35.0717 11.0791 35.1081 10.6689L 36.3044 10.6689C 36.2816 11.0928 36.1358 11.4961 35.8669 11.8789C 35.598 12.2617 35.238 12.5671 34.7868 12.7949C 34.3402 13.0228 33.8663 13.1367 33.365 13.1367C 32.3578 13.1367 31.5557 12.8018 30.9587 12.1318C 30.3663 11.4574 30.07 10.5368 30.07 9.37012L 30.07 9.1582C 30.07 8.43815 30.2022 7.79785 30.4665 7.2373C 30.7309 6.67676 31.1091 6.24154 31.6013 5.93164C 32.098 5.62174 32.6837 5.4668 33.3581 5.4668C 34.1876 5.4668 34.8757 5.71517 35.4226 6.21191C 35.974 6.70866 36.268 7.35352 36.3044 8.14648L 35.1081 8.14648C 35.0717 7.66797 34.8894 7.27604 34.5613 6.9707C 34.2377 6.66081 33.8366 6.50586 33.3581 6.50586C 32.7156 6.50586 32.2165 6.73828 31.8611 7.20312C 31.5101 7.66341 31.3347 8.33105 31.3347 9.20605L 31.3347 9.44531C 31.3347 10.2975 31.5101 10.9538 31.8611 11.4141C 32.212 11.8743 32.7133 12.1045 33.365 12.1045ZM 37.3913 9.2334C 37.3913 8.50879 37.5326 7.8571 37.8152 7.27832C 38.1023 6.69954 38.4988 6.25293 39.0046 5.93848C 39.515 5.62402 40.0961 5.4668 40.7478 5.4668C 41.7549 5.4668 42.5684 5.81543 43.1882 6.5127C 43.8126 7.20996 44.1247 8.13737 44.1247 9.29492L 44.1247 9.38379C 44.1247 10.1038 43.9857 10.751 43.7077 11.3252C 43.4343 11.8949 43.0401 12.3392 42.5251 12.6582C 42.0147 12.9772 41.4268 13.1367 40.7615 13.1367C 39.7588 13.1367 38.9454 12.7881 38.321 12.0908C 37.7012 11.3936 37.3913 10.4707 37.3913 9.32227L 37.3913 9.2334ZM 38.6628 9.38379C 38.6628 10.2041 38.8519 10.8626 39.2302 11.3594C 39.613 11.8561 40.1234 12.1045 40.7615 12.1045C 41.404 12.1045 41.9144 11.8538 42.2927 11.3525C 42.671 10.8467 42.8601 10.1403 42.8601 9.2334C 42.8601 8.4222 42.6664 7.76595 42.279 7.26465C 41.8962 6.75879 41.3858 6.50586 40.7478 6.50586C 40.1234 6.50586 39.6199 6.75423 39.237 7.25098C 38.8542 7.74772 38.6628 8.45866 38.6628 9.38379ZM 46.9001 5.60352L 46.9343 6.42383C 47.4766 5.78581 48.2081 5.4668 49.1286 5.4668C 50.1631 5.4668 50.8672 5.86328 51.2409 6.65625C 51.487 6.30078 51.806 6.01367 52.198 5.79492C 52.5945 5.57617 53.0616 5.4668 53.5993 5.4668C 55.2217 5.4668 56.0466 6.32585 56.074 8.04395L 56.074 13L 54.8093 13L 54.8093 8.11914C 54.8093 7.59049 54.6885 7.19629 54.447 6.93652C 54.2055 6.6722 53.7999 6.54004 53.2302 6.54004C 52.7608 6.54004 52.3712 6.68132 52.0613 6.96387C 51.7514 7.24186 51.5713 7.61784 51.5212 8.0918L 51.5212 13L 50.2497 13L 50.2497 8.15332C 50.2497 7.0778 49.7234 6.54004 48.6706 6.54004C 47.8412 6.54004 47.2738 6.89323 46.9685 7.59961L 46.9685 13L 45.7038 13L 45.7038 5.60352L 46.9001 5.60352ZM 64.2361 9.38379C 64.2361 10.5094 63.9786 11.4163 63.4636 12.1045C 62.9486 12.7926 62.2514 13.1367 61.3718 13.1367C 60.474 13.1367 59.7676 12.8519 59.2527 12.2822L 59.2527 15.8438L 57.988 15.8438L 57.988 5.60352L 59.1433 5.60352L 59.2048 6.42383C 59.7198 5.78581 60.4353 5.4668 61.3513 5.4668C 62.24 5.4668 62.9418 5.80176 63.4568 6.47168C 63.9763 7.1416 64.2361 8.07357 64.2361 9.26758L 64.2361 9.38379ZM 62.9714 9.24023C 62.9714 8.40625 62.7937 7.74772 62.4382 7.26465C 62.0827 6.78158 61.5951 6.54004 60.9753 6.54004C 60.2097 6.54004 59.6355 6.87956 59.2527 7.55859L 59.2527 11.0928C 59.6309 11.7673 60.2097 12.1045 60.989 12.1045C 61.5951 12.1045 62.0759 11.8652 62.4314 11.3867C 62.7914 10.9036 62.9714 10.1882 62.9714 9.24023ZM 65.5144 9.2334C 65.5144 8.50879 65.6557 7.8571 65.9382 7.27832C 66.2253 6.69954 66.6218 6.25293 67.1277 5.93848C 67.6381 5.62402 68.2191 5.4668 68.8708 5.4668C 69.878 5.4668 70.6915 5.81543 71.3113 6.5127C 71.9356 7.20996 72.2478 8.13737 72.2478 9.29492L 72.2478 9.38379C 72.2478 10.1038 72.1088 10.751 71.8308 11.3252C 71.5574 11.8949 71.1631 12.3392 70.6482 12.6582C 70.1378 12.9772 69.5499 13.1367 68.8845 13.1367C 67.8819 13.1367 67.0684 12.7881 66.4441 12.0908C 65.8243 11.3936 65.5144 10.4707 65.5144 9.32227L 65.5144 9.2334ZM 66.7859 9.38379C 66.7859 10.2041 66.975 10.8626 67.3532 11.3594C 67.7361 11.8561 68.2465 12.1045 68.8845 12.1045C 69.5271 12.1045 70.0375 11.8538 70.4157 11.3525C 70.794 10.8467 70.9831 10.1403 70.9831 9.2334C 70.9831 8.4222 70.7894 7.76595 70.4021 7.26465C 70.0193 6.75879 69.5088 6.50586 68.8708 6.50586C 68.2465 6.50586 67.7429 6.75423 67.3601 7.25098C 66.9773 7.74772 66.7859 8.45866 66.7859 9.38379ZM 78.1404 11.0381C 78.1404 10.6963 78.0105 10.432 77.7507 10.2451C 77.4955 10.0537 77.0466 9.88965 76.404 9.75293C 75.766 9.61621 75.2579 9.45215 74.8796 9.26074C 74.5059 9.06934 74.2279 8.84147 74.0456 8.57715C 73.8679 8.31283 73.779 7.99837 73.779 7.63379C 73.779 7.02767 74.0342 6.51497 74.5447 6.0957C 75.0596 5.67643 75.7159 5.4668 76.5134 5.4668C 77.3519 5.4668 78.031 5.68327 78.5505 6.11621C 79.0746 6.54915 79.3366 7.10286 79.3366 7.77734L 78.0652 7.77734C 78.0652 7.43099 77.9171 7.13249 77.6208 6.88184C 77.3292 6.63118 76.96 6.50586 76.5134 6.50586C 76.0531 6.50586 75.6931 6.60612 75.4333 6.80664C 75.1736 7.00716 75.0437 7.26921 75.0437 7.59277C 75.0437 7.89811 75.1644 8.12826 75.406 8.2832C 75.6475 8.43815 76.0827 8.58626 76.7116 8.72754C 77.3451 8.86882 77.8578 9.03743 78.2497 9.2334C 78.6417 9.42936 78.931 9.66634 79.1179 9.94434C 79.3093 10.2178 79.405 10.5527 79.405 10.9492C 79.405 11.61 79.1407 12.141 78.612 12.542C 78.0834 12.9385 77.3975 13.1367 76.5544 13.1367C 75.962 13.1367 75.4379 13.0319 74.9822 12.8223C 74.5264 12.6126 74.1687 12.321 73.9089 11.9473C 73.6537 11.569 73.5261 11.1611 73.5261 10.7236L 74.7907 10.7236C 74.8135 11.1475 74.9822 11.4847 75.2966 11.7354C 75.6156 11.9814 76.0349 12.1045 76.5544 12.1045C 77.0329 12.1045 77.4157 12.0088 77.7029 11.8174C 77.9945 11.6214 78.1404 11.3617 78.1404 11.0381ZM 84.1218 13.1367C 83.1192 13.1367 82.3034 12.8086 81.6745 12.1523C 81.0456 11.4915 80.7312 10.6097 80.7312 9.50684L 80.7312 9.27441C 80.7312 8.54069 80.8702 7.88672 81.1482 7.3125C 81.4307 6.73372 81.8226 6.28255 82.324 5.95898C 82.8298 5.63086 83.3767 5.4668 83.9646 5.4668C 84.9262 5.4668 85.6736 5.78353 86.2068 6.41699C 86.74 7.05046 87.0066 7.95736 87.0066 9.1377L 87.0066 9.66406L 81.9958 9.66406C 82.0141 10.3932 82.226 10.9834 82.6316 11.4346C 83.0417 11.8812 83.5613 12.1045 84.1902 12.1045C 84.6368 12.1045 85.015 12.0133 85.3249 11.8311C 85.6348 11.6488 85.906 11.4072 86.1384 11.1064L 86.9109 11.708C 86.2911 12.6605 85.3614 13.1367 84.1218 13.1367ZM 83.9646 6.50586C 83.4542 6.50586 83.0258 6.69271 82.6794 7.06641C 82.3331 7.43555 82.1189 7.95508 82.0368 8.625L 85.7419 8.625L 85.7419 8.5293C 85.7055 7.88672 85.5323 7.38997 85.2224 7.03906C 84.9125 6.68359 84.4932 6.50586 83.9646 6.50586ZM 92.0515 6.73828C 91.8601 6.70638 91.6527 6.69043 91.4294 6.69043C 90.6 6.69043 90.0372 7.04362 89.7409 7.75L 89.7409 13L 88.4763 13L 88.4763 5.60352L 89.7068 5.60352L 89.7273 6.45801C 90.142 5.7972 90.7299 5.4668 91.4909 5.4668C 91.737 5.4668 91.9239 5.4987 92.0515 5.5625L 92.0515 6.73828Z"/>
<path id="path10_fill" d="M 23.6511 5.60352L 23.6853 6.42383C 24.2276 5.78581 24.959 5.4668 25.8796 5.4668C 26.9141 5.4668 27.6182 5.86328 27.9919 6.65625C 28.238 6.30078 28.557 6.01367 28.949 5.79492C 29.3454 5.57617 29.8126 5.4668 30.3503 5.4668C 31.9727 5.4668 32.7976 6.32585 32.8249 8.04395L 32.8249 13L 31.5603 13L 31.5603 8.11914C 31.5603 7.59049 31.4395 7.19629 31.198 6.93652C 30.9564 6.6722 30.5508 6.54004 29.9812 6.54004C 29.5118 6.54004 29.1221 6.68132 28.8122 6.96387C 28.5023 7.24186 28.3223 7.61784 28.2722 8.0918L 28.2722 13L 27.0007 13L 27.0007 8.15332C 27.0007 7.0778 26.4743 6.54004 25.4216 6.54004C 24.5922 6.54004 24.0248 6.89323 23.7195 7.59961L 23.7195 13L 22.4548 13L 22.4548 5.60352L 23.6511 5.60352ZM 36.113 13L 34.8484 13L 34.8484 5.60352L 36.113 5.60352L 36.113 13ZM 34.7458 3.6416C 34.7458 3.43652 34.8074 3.26335 34.9304 3.12207C 35.058 2.98079 35.2449 2.91016 35.4909 2.91016C 35.737 2.91016 35.9239 2.98079 36.0515 3.12207C 36.1791 3.26335 36.2429 3.43652 36.2429 3.6416C 36.2429 3.84668 36.1791 4.01758 36.0515 4.1543C 35.9239 4.29102 35.737 4.35938 35.4909 4.35938C 35.2449 4.35938 35.058 4.29102 34.9304 4.1543C 34.8074 4.01758 34.7458 3.84668 34.7458 3.6416ZM 39.5173 13L 38.2527 13L 38.2527 2.5L 39.5173 2.5L 39.5173 13ZM 42.9216 13L 41.657 13L 41.657 2.5L 42.9216 2.5L 42.9216 13ZM 46.3259 13L 45.0613 13L 45.0613 5.60352L 46.3259 5.60352L 46.3259 13ZM 44.9587 3.6416C 44.9587 3.43652 45.0202 3.26335 45.1433 3.12207C 45.2709 2.98079 45.4577 2.91016 45.7038 2.91016C 45.9499 2.91016 46.1368 2.98079 46.2644 3.12207C 46.392 3.26335 46.4558 3.43652 46.4558 3.6416C 46.4558 3.84668 46.392 4.01758 46.2644 4.1543C 46.1368 4.29102 45.9499 4.35938 45.7038 4.35938C 45.4577 4.35938 45.2709 4.29102 45.1433 4.1543C 45.0202 4.01758 44.9587 3.84668 44.9587 3.6416ZM 52.6628 11.0381C 52.6628 10.6963 52.5329 10.432 52.2732 10.2451C 52.018 10.0537 51.5691 9.88965 50.9265 9.75293C 50.2885 9.61621 49.7803 9.45215 49.4021 9.26074C 49.0284 9.06934 48.7504 8.84147 48.5681 8.57715C 48.3904 8.31283 48.3015 7.99837 48.3015 7.63379C 48.3015 7.02767 48.5567 6.51497 49.0671 6.0957C 49.5821 5.67643 50.2383 5.4668 51.0359 5.4668C 51.8744 5.4668 52.5534 5.68327 53.073 6.11621C 53.5971 6.54915 53.8591 7.10286 53.8591 7.77734L 52.5876 7.77734C 52.5876 7.43099 52.4395 7.13249 52.1433 6.88184C 51.8516 6.63118 51.4825 6.50586 51.0359 6.50586C 50.5756 6.50586 50.2156 6.60612 49.9558 6.80664C 49.696 7.00716 49.5661 7.26921 49.5661 7.59277C 49.5661 7.89811 49.6869 8.12826 49.9284 8.2832C 50.17 8.43815 50.6052 8.58626 51.2341 8.72754C 51.8676 8.86882 52.3803 9.03743 52.7722 9.2334C 53.1641 9.42936 53.4535 9.66634 53.6404 9.94434C 53.8318 10.2178 53.9275 10.5527 53.9275 10.9492C 53.9275 11.61 53.6631 12.141 53.1345 12.542C 52.6059 12.9385 51.92 13.1367 51.0769 13.1367C 50.4844 13.1367 49.9603 13.0319 49.5046 12.8223C 49.0489 12.6126 48.6911 12.321 48.4314 11.9473C 48.1762 11.569 48.0486 11.1611 48.0486 10.7236L 49.3132 10.7236C 49.336 11.1475 49.5046 11.4847 49.8191 11.7354C 50.1381 11.9814 50.5574 12.1045 51.0769 12.1045C 51.5554 12.1045 51.9382 12.0088 52.2253 11.8174C 52.517 11.6214 52.6628 11.3617 52.6628 11.0381ZM 58.6443 13.1367C 57.6417 13.1367 56.8259 12.8086 56.197 12.1523C 55.5681 11.4915 55.2536 10.6097 55.2536 9.50684L 55.2536 9.27441C 55.2536 8.54069 55.3926 7.88672 55.6706 7.3125C 55.9532 6.73372 56.3451 6.28255 56.8464 5.95898C 57.3523 5.63086 57.8991 5.4668 58.487 5.4668C 59.4486 5.4668 60.196 5.78353 60.7292 6.41699C 61.2624 7.05046 61.529 7.95736 61.529 9.1377L 61.529 9.66406L 56.5183 9.66406C 56.5365 10.3932 56.7484 10.9834 57.154 11.4346C 57.5642 11.8812 58.0837 12.1045 58.7126 12.1045C 59.1592 12.1045 59.5375 12.0133 59.8474 11.8311C 60.1573 11.6488 60.4284 11.4072 60.6609 11.1064L 61.4333 11.708C 60.8135 12.6605 59.8838 13.1367 58.6443 13.1367ZM 58.487 6.50586C 57.9766 6.50586 57.5482 6.69271 57.2019 7.06641C 56.8555 7.43555 56.6413 7.95508 56.5593 8.625L 60.2644 8.625L 60.2644 8.5293C 60.2279 7.88672 60.0547 7.38997 59.7449 7.03906C 59.435 6.68359 59.0157 6.50586 58.487 6.50586ZM 65.9656 12.1045C 66.4167 12.1045 66.8109 11.9678 67.1482 11.6943C 67.4854 11.4209 67.6723 11.0791 67.7087 10.6689L 68.905 10.6689C 68.8822 11.0928 68.7364 11.4961 68.4675 11.8789C 68.1986 12.2617 67.8386 12.5671 67.3874 12.7949C 66.9408 13.0228 66.4669 13.1367 65.9656 13.1367C 64.9584 13.1367 64.1563 12.8018 63.5593 12.1318C 62.9669 11.4574 62.6706 10.5368 62.6706 9.37012L 62.6706 9.1582C 62.6706 8.43815 62.8028 7.79785 63.0671 7.2373C 63.3314 6.67676 63.7097 6.24154 64.2019 5.93164C 64.6986 5.62174 65.2842 5.4668 65.9587 5.4668C 66.7881 5.4668 67.4763 5.71517 68.0232 6.21191C 68.5746 6.70866 68.8685 7.35352 68.905 8.14648L 67.7087 8.14648C 67.6723 7.66797 67.49 7.27604 67.1618 6.9707C 66.8383 6.66081 66.4372 6.50586 65.9587 6.50586C 65.3161 6.50586 64.8171 6.73828 64.4616 7.20312C 64.1107 7.66341 63.9353 8.33105 63.9353 9.20605L 63.9353 9.44531C 63.9353 10.2975 64.1107 10.9538 64.4616 11.4141C 64.8126 11.8743 65.3139 12.1045 65.9656 12.1045ZM 69.9919 9.2334C 69.9919 8.50879 70.1332 7.8571 70.4157 7.27832C 70.7029 6.69954 71.0993 6.25293 71.6052 5.93848C 72.1156 5.62402 72.6967 5.4668 73.3484 5.4668C 74.3555 5.4668 75.169 5.81543 75.7888 6.5127C 76.4131 7.20996 76.7253 8.13737 76.7253 9.29492L 76.7253 9.38379C 76.7253 10.1038 76.5863 10.751 76.3083 11.3252C 76.0349 11.8949 75.6407 12.3392 75.1257 12.6582C 74.6153 12.9772 74.0274 13.1367 73.362 13.1367C 72.3594 13.1367 71.546 12.7881 70.9216 12.0908C 70.3018 11.3936 69.9919 10.4707 69.9919 9.32227L 69.9919 9.2334ZM 71.2634 9.38379C 71.2634 10.2041 71.4525 10.8626 71.8308 11.3594C 72.2136 11.8561 72.724 12.1045 73.362 12.1045C 74.0046 12.1045 74.515 11.8538 74.8933 11.3525C 75.2715 10.8467 75.4607 10.1403 75.4607 9.2334C 75.4607 8.4222 75.267 7.76595 74.8796 7.26465C 74.4968 6.75879 73.9864 6.50586 73.3484 6.50586C 72.724 6.50586 72.2204 6.75423 71.8376 7.25098C 71.4548 7.74772 71.2634 8.45866 71.2634 9.38379ZM 79.5075 5.60352L 79.5486 6.5332C 80.1137 5.82227 80.8519 5.4668 81.7634 5.4668C 83.3266 5.4668 84.115 6.34863 84.1286 8.1123L 84.1286 13L 82.864 13L 82.864 8.10547C 82.8594 7.57227 82.7364 7.17806 82.4949 6.92285C 82.2579 6.66764 81.8865 6.54004 81.3806 6.54004C 80.9704 6.54004 80.6104 6.64941 80.3005 6.86816C 79.9906 7.08691 79.7491 7.37402 79.5759 7.72949L 79.5759 13L 78.3113 13L 78.3113 5.60352L 79.5075 5.60352ZM 85.7282 9.24023C 85.7282 8.10547 85.9971 7.19401 86.5349 6.50586C 87.0726 5.81315 87.7768 5.4668 88.6472 5.4668C 89.5131 5.4668 90.199 5.76302 90.7048 6.35547L 90.7048 2.5L 91.9695 2.5L 91.9695 13L 90.8074 13L 90.7458 12.207C 90.24 12.8268 89.5359 13.1367 88.6335 13.1367C 87.7768 13.1367 87.0772 12.7858 86.5349 12.084C 85.9971 11.3822 85.7282 10.4661 85.7282 9.33594L 85.7282 9.24023ZM 86.9929 9.38379C 86.9929 10.2223 87.1661 10.8786 87.5124 11.3525C 87.8588 11.8265 88.3373 12.0635 88.948 12.0635C 89.7501 12.0635 90.3357 11.7035 90.7048 10.9834L 90.7048 7.58594C 90.3266 6.88867 89.7455 6.54004 88.9616 6.54004C 88.3419 6.54004 87.8588 6.7793 87.5124 7.25781C 87.1661 7.73633 86.9929 8.44499 86.9929 9.38379ZM 98.2449 11.0381C 98.2449 10.6963 98.115 10.432 97.8552 10.2451C 97.6 10.0537 97.1511 9.88965 96.5085 9.75293C 95.8705 9.61621 95.3624 9.45215 94.9841 9.26074C 94.6104 9.06934 94.3324 8.84147 94.1501 8.57715C 93.9724 8.31283 93.8835 7.99837 93.8835 7.63379C 93.8835 7.02767 94.1387 6.51497 94.6491 6.0957C 95.1641 5.67643 95.8204 5.4668 96.6179 5.4668C 97.4564 5.4668 98.1355 5.68327 98.655 6.11621C 99.1791 6.54915 99.4411 7.10286 99.4411 7.77734L 98.1697 7.77734C 98.1697 7.43099 98.0215 7.13249 97.7253 6.88184C 97.4337 6.63118 97.0645 6.50586 96.6179 6.50586C 96.1576 6.50586 95.7976 6.60612 95.5378 6.80664C 95.2781 7.00716 95.1482 7.26921 95.1482 7.59277C 95.1482 7.89811 95.2689 8.12826 95.5105 8.2832C 95.752 8.43815 96.1872 8.58626 96.8161 8.72754C 97.4496 8.86882 97.9623 9.03743 98.3542 9.2334C 98.7462 9.42936 99.0355 9.66634 99.2224 9.94434C 99.4138 10.2178 99.5095 10.5527 99.5095 10.9492C 99.5095 11.61 99.2452 12.141 98.7165 12.542C 98.1879 12.9385 97.502 13.1367 96.6589 13.1367C 96.0665 13.1367 95.5424 13.0319 95.0866 12.8223C 94.6309 12.6126 94.2732 12.321 94.0134 11.9473C 93.7582 11.569 93.6306 11.1611 93.6306 10.7236L 94.8952 10.7236C 94.918 11.1475 95.0866 11.4847 95.4011 11.7354C 95.7201 11.9814 96.1394 12.1045 96.6589 12.1045C 97.1374 12.1045 97.5202 12.0088 97.8074 11.8174C 98.099 11.6214 98.2449 11.3617 98.2449 11.0381Z"/>
<path id="path11_fill" d="M 51.2546 9.38379C 51.2546 10.514 50.9949 11.4232 50.4753 12.1113C 49.9558 12.7949 49.2585 13.1367 48.3835 13.1367C 47.4493 13.1367 46.7269 12.8063 46.2165 12.1455L 46.155 13L 44.9929 13L 44.9929 2.5L 46.2575 2.5L 46.2575 6.41699C 46.768 5.78353 47.4721 5.4668 48.3699 5.4668C 49.2676 5.4668 49.9717 5.80631 50.4822 6.48535C 50.9971 7.16439 51.2546 8.09408 51.2546 9.27441L 51.2546 9.38379ZM 49.99 9.24023C 49.99 8.37891 49.8236 7.71354 49.4909 7.24414C 49.1583 6.77474 48.6797 6.54004 48.0554 6.54004C 47.2214 6.54004 46.6221 6.92741 46.2575 7.70215L 46.2575 10.9014C 46.6449 11.6761 47.2488 12.0635 48.0691 12.0635C 48.6752 12.0635 49.1469 11.8288 49.4841 11.3594C 49.8213 10.89 49.99 10.1836 49.99 9.24023ZM 55.1921 11.1475L 56.9148 5.60352L 58.2683 5.60352L 55.2947 14.1416C 54.8344 15.3721 54.1029 15.9873 53.1003 15.9873L 52.8611 15.9668L 52.3894 15.8779L 52.3894 14.8525L 52.7312 14.8799C 53.1596 14.8799 53.4922 14.7933 53.7292 14.6201C 53.9708 14.4469 54.169 14.1302 54.324 13.6699L 54.6042 12.918L 51.9656 5.60352L 53.3464 5.60352L 55.1921 11.1475ZM 61.1189 3.8125L 61.1189 5.60352L 62.4997 5.60352L 62.4997 6.58105L 61.1189 6.58105L 61.1189 11.168C 61.1189 11.4642 61.1804 11.6875 61.3034 11.8379C 61.4265 11.9837 61.6361 12.0566 61.9324 12.0566C 62.0782 12.0566 62.2787 12.0293 62.5339 11.9746L 62.5339 13C 62.2012 13.0911 61.8777 13.1367 61.5632 13.1367C 60.9981 13.1367 60.572 12.9658 60.2849 12.624C 59.9978 12.2822 59.8542 11.7969 59.8542 11.168L 59.8542 6.58105L 58.5075 6.58105L 58.5075 5.60352L 59.8542 5.60352L 59.8542 3.8125L 61.1189 3.8125ZM 67.0525 13.1367C 66.0499 13.1367 65.2341 12.8086 64.6052 12.1523C 63.9763 11.4915 63.6618 10.6097 63.6618 9.50684L 63.6618 9.27441C 63.6618 8.54069 63.8008 7.88672 64.0788 7.3125C 64.3614 6.73372 64.7533 6.28255 65.2546 5.95898C 65.7605 5.63086 66.3074 5.4668 66.8952 5.4668C 67.8568 5.4668 68.6042 5.78353 69.1374 6.41699C 69.6706 7.05046 69.9372 7.95736 69.9372 9.1377L 69.9372 9.66406L 64.9265 9.66406C 64.9447 10.3932 65.1566 10.9834 65.5622 11.4346C 65.9724 11.8812 66.4919 12.1045 67.1208 12.1045C 67.5674 12.1045 67.9457 12.0133 68.2556 11.8311C 68.5655 11.6488 68.8366 11.4072 69.0691 11.1064L 69.8415 11.708C 69.2217 12.6605 68.2921 13.1367 67.0525 13.1367ZM 66.8952 6.50586C 66.3848 6.50586 65.9564 6.69271 65.6101 7.06641C 65.2637 7.43555 65.0495 7.95508 64.9675 8.625L 68.6726 8.625L 68.6726 8.5293C 68.6361 7.88672 68.4629 7.38997 68.1531 7.03906C 67.8432 6.68359 67.4239 6.50586 66.8952 6.50586ZM 75.7136 11.0381C 75.7136 10.6963 75.5837 10.432 75.324 10.2451C 75.0687 10.0537 74.6199 9.88965 73.9773 9.75293C 73.3393 9.61621 72.8311 9.45215 72.4529 9.26074C 72.0792 9.06934 71.8012 8.84147 71.6189 8.57715C 71.4411 8.31283 71.3523 7.99837 71.3523 7.63379C 71.3523 7.02767 71.6075 6.51497 72.1179 6.0957C 72.6329 5.67643 73.2891 5.4668 74.0866 5.4668C 74.9252 5.4668 75.6042 5.68327 76.1238 6.11621C 76.6478 6.54915 76.9099 7.10286 76.9099 7.77734L 75.6384 7.77734C 75.6384 7.43099 75.4903 7.13249 75.1941 6.88184C 74.9024 6.63118 74.5333 6.50586 74.0866 6.50586C 73.6264 6.50586 73.2663 6.60612 73.0066 6.80664C 72.7468 7.00716 72.6169 7.26921 72.6169 7.59277C 72.6169 7.89811 72.7377 8.12826 72.9792 8.2832C 73.2208 8.43815 73.656 8.58626 74.2849 8.72754C 74.9184 8.86882 75.431 9.03743 75.823 9.2334C 76.2149 9.42936 76.5043 9.66634 76.6911 9.94434C 76.8825 10.2178 76.9782 10.5527 76.9782 10.9492C 76.9782 11.61 76.7139 12.141 76.1853 12.542C 75.6566 12.9385 74.9708 13.1367 74.1277 13.1367C 73.5352 13.1367 73.0111 13.0319 72.5554 12.8223C 72.0997 12.6126 71.7419 12.321 71.4822 11.9473C 71.2269 11.569 71.0993 11.1611 71.0993 10.7236L 72.364 10.7236C 72.3868 11.1475 72.5554 11.4847 72.8699 11.7354C 73.1889 11.9814 73.6081 12.1045 74.1277 12.1045C 74.6062 12.1045 74.989 12.0088 75.2761 11.8174C 75.5678 11.6214 75.7136 11.3617 75.7136 11.0381Z"/>
<path id="path12_fill" d="M 36.1199 12.2686C 35.6277 12.8473 34.9053 13.1367 33.9529 13.1367C 33.1644 13.1367 32.5629 12.9089 32.1482 12.4531C 31.738 11.9928 31.5307 11.3138 31.5261 10.416L 31.5261 5.60352L 32.7907 5.60352L 32.7907 10.3818C 32.7907 11.5029 33.2465 12.0635 34.1579 12.0635C 35.1241 12.0635 35.7667 11.7035 36.0857 10.9834L 36.0857 5.60352L 37.3503 5.60352L 37.3503 13L 36.1472 13L 36.1199 12.2686ZM 40.4743 5.60352L 40.5154 6.5332C 41.0805 5.82227 41.8187 5.4668 42.7302 5.4668C 44.2934 5.4668 45.0818 6.34863 45.0954 8.1123L 45.0954 13L 43.8308 13L 43.8308 8.10547C 43.8262 7.57227 43.7032 7.17806 43.4616 6.92285C 43.2247 6.66764 42.8532 6.54004 42.3474 6.54004C 41.9372 6.54004 41.5772 6.64941 41.2673 6.86816C 40.9574 7.08691 40.7159 7.37402 40.5427 7.72949L 40.5427 13L 39.2781 13L 39.2781 5.60352L 40.4743 5.60352ZM 48.3767 13L 47.112 13L 47.112 5.60352L 48.3767 5.60352L 48.3767 13ZM 47.0095 3.6416C 47.0095 3.43652 47.071 3.26335 47.1941 3.12207C 47.3217 2.98079 47.5085 2.91016 47.7546 2.91016C 48.0007 2.91016 48.1876 2.98079 48.3152 3.12207C 48.4428 3.26335 48.5066 3.43652 48.5066 3.6416C 48.5066 3.84668 48.4428 4.01758 48.3152 4.1543C 48.1876 4.29102 48.0007 4.35938 47.7546 4.35938C 47.5085 4.35938 47.3217 4.29102 47.1941 4.1543C 47.071 4.01758 47.0095 3.84668 47.0095 3.6416ZM 52.1228 3.8125L 52.1228 5.60352L 53.5036 5.60352L 53.5036 6.58105L 52.1228 6.58105L 52.1228 11.168C 52.1228 11.4642 52.1843 11.6875 52.3074 11.8379C 52.4304 11.9837 52.64 12.0566 52.9363 12.0566C 53.0821 12.0566 53.2826 12.0293 53.5378 11.9746L 53.5378 13C 53.2051 13.0911 52.8816 13.1367 52.5671 13.1367C 52.002 13.1367 51.5759 12.9658 51.2888 12.624C 51.0017 12.2822 50.8581 11.7969 50.8581 11.168L 50.8581 6.58105L 49.5115 6.58105L 49.5115 5.60352L 50.8581 5.60352L 50.8581 3.8125L 52.1228 3.8125ZM 60.3191 14.0322L 54.0574 14.0322L 54.0574 13L 60.3191 13L 60.3191 14.0322ZM 67.5515 9.38379C 67.5515 10.5094 67.294 11.4163 66.779 12.1045C 66.2641 12.7926 65.5668 13.1367 64.6872 13.1367C 63.7894 13.1367 63.0831 12.8519 62.5681 12.2822L 62.5681 15.8438L 61.3034 15.8438L 61.3034 5.60352L 62.4587 5.60352L 62.5202 6.42383C 63.0352 5.78581 63.7507 5.4668 64.6667 5.4668C 65.5554 5.4668 66.2572 5.80176 66.7722 6.47168C 67.2917 7.1416 67.5515 8.07357 67.5515 9.26758L 67.5515 9.38379ZM 66.2868 9.24023C 66.2868 8.40625 66.1091 7.74772 65.7536 7.26465C 65.3982 6.78158 64.9105 6.54004 64.2907 6.54004C 63.5251 6.54004 62.9509 6.87956 62.5681 7.55859L 62.5681 11.0928C 62.9463 11.7673 63.5251 12.1045 64.3044 12.1045C 64.9105 12.1045 65.3913 11.8652 65.7468 11.3867C 66.1068 10.9036 66.2868 10.1882 66.2868 9.24023ZM 72.74 6.73828C 72.5486 6.70638 72.3412 6.69043 72.1179 6.69043C 71.2885 6.69043 70.7256 7.04362 70.4294 7.75L 70.4294 13L 69.1648 13L 69.1648 5.60352L 70.3952 5.60352L 70.4157 6.45801C 70.8305 5.7972 71.4184 5.4668 72.1794 5.4668C 72.4255 5.4668 72.6124 5.4987 72.74 5.5625L 72.74 6.73828ZM 75.2829 13L 74.0183 13L 74.0183 5.60352L 75.2829 5.60352L 75.2829 13ZM 73.9157 3.6416C 73.9157 3.43652 73.9773 3.26335 74.1003 3.12207C 74.2279 2.98079 74.4148 2.91016 74.6609 2.91016C 74.907 2.91016 75.0938 2.98079 75.2214 3.12207C 75.349 3.26335 75.4128 3.43652 75.4128 3.6416C 75.4128 3.84668 75.349 4.01758 75.2214 4.1543C 75.0938 4.29102 74.907 4.35938 74.6609 4.35938C 74.4148 4.35938 74.2279 4.29102 74.1003 4.1543C 73.9773 4.01758 73.9157 3.84668 73.9157 3.6416ZM 80.28 12.1045C 80.7312 12.1045 81.1254 11.9678 81.4626 11.6943C 81.7999 11.4209 81.9867 11.0791 82.0232 10.6689L 83.2195 10.6689C 83.1967 11.0928 83.0508 11.4961 82.782 11.8789C 82.5131 12.2617 82.1531 12.5671 81.7019 12.7949C 81.2553 13.0228 80.7813 13.1367 80.28 13.1367C 79.2728 13.1367 78.4708 12.8018 77.8738 12.1318C 77.2813 11.4574 76.9851 10.5368 76.9851 9.37012L 76.9851 9.1582C 76.9851 8.43815 77.1172 7.79785 77.3816 7.2373C 77.6459 6.67676 78.0241 6.24154 78.5163 5.93164C 79.0131 5.62174 79.5987 5.4668 80.2732 5.4668C 81.1026 5.4668 81.7907 5.71517 82.3376 6.21191C 82.8891 6.70866 83.183 7.35352 83.2195 8.14648L 82.0232 8.14648C 81.9867 7.66797 81.8044 7.27604 81.4763 6.9707C 81.1527 6.66081 80.7517 6.50586 80.2732 6.50586C 79.6306 6.50586 79.1316 6.73828 78.7761 7.20312C 78.4252 7.66341 78.2497 8.33105 78.2497 9.20605L 78.2497 9.44531C 78.2497 10.2975 78.4252 10.9538 78.7761 11.4141C 79.127 11.8743 79.6283 12.1045 80.28 12.1045ZM 87.7107 13.1367C 86.7081 13.1367 85.8923 12.8086 85.2634 12.1523C 84.6345 11.4915 84.32 10.6097 84.32 9.50684L 84.32 9.27441C 84.32 8.54069 84.459 7.88672 84.737 7.3125C 85.0196 6.73372 85.4115 6.28255 85.9128 5.95898C 86.4187 5.63086 86.9656 5.4668 87.5534 5.4668C 88.515 5.4668 89.2624 5.78353 89.7956 6.41699C 90.3288 7.05046 90.5954 7.95736 90.5954 9.1377L 90.5954 9.66406L 85.5847 9.66406C 85.6029 10.3932 85.8148 10.9834 86.2204 11.4346C 86.6306 11.8812 87.1501 12.1045 87.779 12.1045C 88.2256 12.1045 88.6039 12.0133 88.9138 11.8311C 89.2237 11.6488 89.4949 11.4072 89.7273 11.1064L 90.4997 11.708C 89.8799 12.6605 88.9503 13.1367 87.7107 13.1367ZM 87.5534 6.50586C 87.043 6.50586 86.6146 6.69271 86.2683 7.06641C 85.9219 7.43555 85.7077 7.95508 85.6257 8.625L 89.3308 8.625L 89.3308 8.5293C 89.2943 7.88672 89.1212 7.38997 88.8113 7.03906C 88.5014 6.68359 88.0821 6.50586 87.5534 6.50586Z"/>
<path id="path13_fill" d="M 18.2644 13L 16.9997 13L 16.9997 5.60352L 18.2644 5.60352L 18.2644 13ZM 16.8972 3.6416C 16.8972 3.43652 16.9587 3.26335 17.0818 3.12207C 17.2094 2.98079 17.3962 2.91016 17.6423 2.91016C 17.8884 2.91016 18.0753 2.98079 18.2029 3.12207C 18.3305 3.26335 18.3943 3.43652 18.3943 3.6416C 18.3943 3.84668 18.3305 4.01758 18.2029 4.1543C 18.0753 4.29102 17.8884 4.35938 17.6423 4.35938C 17.3962 4.35938 17.2094 4.29102 17.0818 4.1543C 16.9587 4.01758 16.8972 3.84668 16.8972 3.6416ZM 21.4909 5.60352L 21.532 6.5332C 22.0971 5.82227 22.8353 5.4668 23.7468 5.4668C 25.31 5.4668 26.0984 6.34863 26.112 8.1123L 26.112 13L 24.8474 13L 24.8474 8.10547C 24.8428 7.57227 24.7198 7.17806 24.4782 6.92285C 24.2413 6.66764 23.8699 6.54004 23.364 6.54004C 22.9538 6.54004 22.5938 6.64941 22.2839 6.86816C 21.974 7.08691 21.7325 7.37402 21.5593 7.72949L 21.5593 13L 20.2947 13L 20.2947 5.60352L 21.4909 5.60352ZM 30.4597 11.2842L 32.2917 5.60352L 33.5837 5.60352L 30.9314 13L 29.9675 13L 27.2878 5.60352L 28.5798 5.60352L 30.4597 11.2842ZM 34.3562 9.2334C 34.3562 8.50879 34.4975 7.8571 34.78 7.27832C 35.0671 6.69954 35.4636 6.25293 35.9695 5.93848C 36.4799 5.62402 37.0609 5.4668 37.7126 5.4668C 38.7198 5.4668 39.5333 5.81543 40.1531 6.5127C 40.7774 7.20996 41.0896 8.13737 41.0896 9.29492L 41.0896 9.38379C 41.0896 10.1038 40.9506 10.751 40.6726 11.3252C 40.3991 11.8949 40.0049 12.3392 39.49 12.6582C 38.9796 12.9772 38.3917 13.1367 37.7263 13.1367C 36.7237 13.1367 35.9102 12.7881 35.2859 12.0908C 34.6661 11.3936 34.3562 10.4707 34.3562 9.32227L 34.3562 9.2334ZM 35.6277 9.38379C 35.6277 10.2041 35.8168 10.8626 36.195 11.3594C 36.5779 11.8561 37.0883 12.1045 37.7263 12.1045C 38.3689 12.1045 38.8793 11.8538 39.2575 11.3525C 39.6358 10.8467 39.8249 10.1403 39.8249 9.2334C 39.8249 8.4222 39.6312 7.76595 39.2439 7.26465C 38.8611 6.75879 38.3506 6.50586 37.7126 6.50586C 37.0883 6.50586 36.5847 6.75423 36.2019 7.25098C 35.8191 7.74772 35.6277 8.45866 35.6277 9.38379ZM 44.0495 13L 42.7849 13L 42.7849 5.60352L 44.0495 5.60352L 44.0495 13ZM 42.6824 3.6416C 42.6824 3.43652 42.7439 3.26335 42.8669 3.12207C 42.9945 2.98079 43.1814 2.91016 43.4275 2.91016C 43.6736 2.91016 43.8604 2.98079 43.988 3.12207C 44.1156 3.26335 44.1794 3.43652 44.1794 3.6416C 44.1794 3.84668 44.1156 4.01758 43.988 4.1543C 43.8604 4.29102 43.6736 4.35938 43.4275 4.35938C 43.1814 4.35938 42.9945 4.29102 42.8669 4.1543C 42.7439 4.01758 42.6824 3.84668 42.6824 3.6416ZM 49.0466 12.1045C 49.4978 12.1045 49.892 11.9678 50.2292 11.6943C 50.5665 11.4209 50.7533 11.0791 50.7898 10.6689L 51.9861 10.6689C 51.9633 11.0928 51.8174 11.4961 51.5486 11.8789C 51.2797 12.2617 50.9197 12.5671 50.4685 12.7949C 50.0219 13.0228 49.5479 13.1367 49.0466 13.1367C 48.0394 13.1367 47.2374 12.8018 46.6404 12.1318C 46.0479 11.4574 45.7517 10.5368 45.7517 9.37012L 45.7517 9.1582C 45.7517 8.43815 45.8838 7.79785 46.1482 7.2373C 46.4125 6.67676 46.7907 6.24154 47.2829 5.93164C 47.7797 5.62174 48.3653 5.4668 49.0398 5.4668C 49.8692 5.4668 50.5574 5.71517 51.1042 6.21191C 51.6557 6.70866 51.9496 7.35352 51.9861 8.14648L 50.7898 8.14648C 50.7533 7.66797 50.571 7.27604 50.2429 6.9707C 49.9193 6.66081 49.5183 6.50586 49.0398 6.50586C 48.3972 6.50586 47.8982 6.73828 47.5427 7.20312C 47.1918 7.66341 47.0163 8.33105 47.0163 9.20605L 47.0163 9.44531C 47.0163 10.2975 47.1918 10.9538 47.5427 11.4141C 47.8936 11.8743 48.3949 12.1045 49.0466 12.1045ZM 56.4773 13.1367C 55.4747 13.1367 54.6589 12.8086 54.03 12.1523C 53.4011 11.4915 53.0866 10.6097 53.0866 9.50684L 53.0866 9.27441C 53.0866 8.54069 53.2256 7.88672 53.5036 7.3125C 53.7862 6.73372 54.1781 6.28255 54.6794 5.95898C 55.1853 5.63086 55.7322 5.4668 56.32 5.4668C 57.2816 5.4668 58.029 5.78353 58.5622 6.41699C 59.0954 7.05046 59.362 7.95736 59.362 9.1377L 59.362 9.66406L 54.3513 9.66406C 54.3695 10.3932 54.5814 10.9834 54.987 11.4346C 55.3972 11.8812 55.9167 12.1045 56.5456 12.1045C 56.9922 12.1045 57.3705 12.0133 57.6804 11.8311C 57.9903 11.6488 58.2615 11.4072 58.4939 11.1064L 59.2663 11.708C 58.6465 12.6605 57.7169 13.1367 56.4773 13.1367ZM 56.32 6.50586C 55.8096 6.50586 55.3812 6.69271 55.0349 7.06641C 54.6885 7.43555 54.4743 7.95508 54.3923 8.625L 58.0974 8.625L 58.0974 8.5293C 58.0609 7.88672 57.8878 7.38997 57.5779 7.03906C 57.268 6.68359 56.8487 6.50586 56.32 6.50586ZM 66.1638 14.0322L 59.9021 14.0322L 59.9021 13L 66.1638 13L 66.1638 14.0322ZM 68.5222 13L 67.2575 13L 67.2575 2.5L 68.5222 2.5L 68.5222 13ZM 71.9265 13L 70.6618 13L 70.6618 5.60352L 71.9265 5.60352L 71.9265 13ZM 70.5593 3.6416C 70.5593 3.43652 70.6208 3.26335 70.7439 3.12207C 70.8715 2.98079 71.0583 2.91016 71.3044 2.91016C 71.5505 2.91016 71.7374 2.98079 71.865 3.12207C 71.9926 3.26335 72.0564 3.43652 72.0564 3.6416C 72.0564 3.84668 71.9926 4.01758 71.865 4.1543C 71.7374 4.29102 71.5505 4.35938 71.3044 4.35938C 71.0583 4.35938 70.8715 4.29102 70.7439 4.1543C 70.6208 4.01758 70.5593 3.84668 70.5593 3.6416ZM 75.1531 5.60352L 75.1941 6.5332C 75.7592 5.82227 76.4975 5.4668 77.4089 5.4668C 78.9721 5.4668 79.7605 6.34863 79.7741 8.1123L 79.7741 13L 78.5095 13L 78.5095 8.10547C 78.5049 7.57227 78.3819 7.17806 78.1404 6.92285C 77.9034 6.66764 77.532 6.54004 77.0261 6.54004C 76.6159 6.54004 76.2559 6.64941 75.946 6.86816C 75.6361 7.08691 75.3946 7.37402 75.2214 7.72949L 75.2214 13L 73.9568 13L 73.9568 5.60352L 75.1531 5.60352ZM 84.7507 13.1367C 83.7481 13.1367 82.9324 12.8086 82.3034 12.1523C 81.6745 11.4915 81.3601 10.6097 81.3601 9.50684L 81.3601 9.27441C 81.3601 8.54069 81.4991 7.88672 81.7771 7.3125C 82.0596 6.73372 82.4516 6.28255 82.9529 5.95898C 83.4587 5.63086 84.0056 5.4668 84.5935 5.4668C 85.5551 5.4668 86.3025 5.78353 86.8357 6.41699C 87.3689 7.05046 87.6355 7.95736 87.6355 9.1377L 87.6355 9.66406L 82.6247 9.66406C 82.643 10.3932 82.8549 10.9834 83.2605 11.4346C 83.6706 11.8812 84.1902 12.1045 84.8191 12.1045C 85.2657 12.1045 85.6439 12.0133 85.9538 11.8311C 86.2637 11.6488 86.5349 11.4072 86.7673 11.1064L 87.5398 11.708C 86.92 12.6605 85.9903 13.1367 84.7507 13.1367ZM 84.5935 6.50586C 84.0831 6.50586 83.6547 6.69271 83.3083 7.06641C 82.962 7.43555 82.7478 7.95508 82.6657 8.625L 86.3708 8.625L 86.3708 8.5293C 86.3344 7.88672 86.1612 7.38997 85.8513 7.03906C 85.5414 6.68359 85.1221 6.50586 84.5935 6.50586ZM 94.4372 14.0322L 88.1755 14.0322L 88.1755 13L 94.4372 13L 94.4372 14.0322ZM 96.7956 13L 95.531 13L 95.531 5.60352L 96.7956 5.60352L 96.7956 13ZM 95.4284 3.6416C 95.4284 3.43652 95.49 3.26335 95.613 3.12207C 95.7406 2.98079 95.9275 2.91016 96.1736 2.91016C 96.4197 2.91016 96.6065 2.98079 96.7341 3.12207C 96.8617 3.26335 96.9255 3.43652 96.9255 3.6416C 96.9255 3.84668 96.8617 4.01758 96.7341 4.1543C 96.6065 4.29102 96.4197 4.35938 96.1736 4.35938C 95.9275 4.35938 95.7406 4.29102 95.613 4.1543C 95.49 4.01758 95.4284 3.84668 95.4284 3.6416ZM 98.5183 9.24023C 98.5183 8.10547 98.7872 7.19401 99.3249 6.50586C 99.8627 5.81315 100.567 5.4668 101.437 5.4668C 102.303 5.4668 102.989 5.76302 103.495 6.35547L 103.495 2.5L 104.759 2.5L 104.759 13L 103.597 13L 103.536 12.207C 103.03 12.8268 102.326 13.1367 101.424 13.1367C 100.567 13.1367 99.8672 12.7858 99.3249 12.084C 98.7872 11.3822 98.5183 10.4661 98.5183 9.33594L 98.5183 9.24023ZM 99.7829 9.38379C 99.7829 10.2223 99.9561 10.8786 100.302 11.3525C 100.649 11.8265 101.127 12.0635 101.738 12.0635C 102.54 12.0635 103.126 11.7035 103.495 10.9834L 103.495 7.58594C 103.117 6.88867 102.536 6.54004 101.752 6.54004C 101.132 6.54004 100.649 6.7793 100.302 7.25781C 99.9561 7.73633 99.7829 8.44499 99.7829 9.38379Z"/>
<path id="path14_fill" d="M 26.6179 13L 24.6355 13L 24.6355 5.60352L 26.6179 5.60352L 26.6179 13ZM 24.5193 3.68945C 24.5193 3.39323 24.6172 3.14941 24.8132 2.95801C 25.0137 2.7666 25.2849 2.6709 25.6267 2.6709C 25.9639 2.6709 26.2328 2.7666 26.4333 2.95801C 26.6338 3.14941 26.7341 3.39323 26.7341 3.68945C 26.7341 3.99023 26.6316 4.23633 26.4265 4.42773C 26.226 4.61914 25.9594 4.71484 25.6267 4.71484C 25.294 4.71484 25.0251 4.61914 24.82 4.42773C 24.6195 4.23633 24.5193 3.99023 24.5193 3.68945ZM 30.07 5.60352L 30.1316 6.45801C 30.6602 5.7972 31.3689 5.4668 32.2575 5.4668C 33.0414 5.4668 33.6247 5.69694 34.0075 6.15723C 34.3904 6.61751 34.5863 7.30566 34.5954 8.22168L 34.5954 13L 32.6199 13L 32.6199 8.26953C 32.6199 7.85026 32.5287 7.5472 32.3464 7.36035C 32.1641 7.16895 31.8611 7.07324 31.4372 7.07324C 30.8812 7.07324 30.4643 7.31022 30.1863 7.78418L 30.1863 13L 28.2107 13L 28.2107 5.60352L 30.07 5.60352ZM 38.8679 10.5869L 40.2419 5.60352L 42.3064 5.60352L 39.8113 13L 37.9245 13L 35.4294 5.60352L 37.4939 5.60352L 38.8679 10.5869ZM 42.7644 9.2334C 42.7644 8.49967 42.9057 7.8457 43.1882 7.27148C 43.4708 6.69727 43.8764 6.25293 44.405 5.93848C 44.9382 5.62402 45.5557 5.4668 46.2575 5.4668C 47.2556 5.4668 48.0691 5.77214 48.698 6.38281C 49.3314 6.99349 49.6846 7.82292 49.7575 8.87109L 49.7712 9.37695C 49.7712 10.5117 49.4545 11.4232 48.821 12.1113C 48.1876 12.7949 47.3376 13.1367 46.2712 13.1367C 45.2048 13.1367 44.3526 12.7949 43.7146 12.1113C 43.0811 11.4277 42.7644 10.498 42.7644 9.32227L 42.7644 9.2334ZM 44.74 9.37695C 44.74 10.0788 44.8721 10.6165 45.1365 10.9902C 45.4008 11.3594 45.779 11.5439 46.2712 11.5439C 46.7497 11.5439 47.1234 11.3617 47.3923 10.9971C 47.6612 10.6279 47.7956 10.04 47.7956 9.2334C 47.7956 8.54525 47.6612 8.01204 47.3923 7.63379C 47.1234 7.25553 46.7452 7.06641 46.2575 7.06641C 45.7745 7.06641 45.4008 7.25553 45.1365 7.63379C 44.8721 8.00749 44.74 8.58854 44.74 9.37695ZM 53.073 13L 51.0906 13L 51.0906 5.60352L 53.073 5.60352L 53.073 13ZM 50.9743 3.68945C 50.9743 3.39323 51.0723 3.14941 51.2683 2.95801C 51.4688 2.7666 51.74 2.6709 52.0818 2.6709C 52.419 2.6709 52.6879 2.7666 52.8884 2.95801C 53.0889 3.14941 53.1892 3.39323 53.1892 3.68945C 53.1892 3.99023 53.0866 4.23633 52.8816 4.42773C 52.681 4.61914 52.4144 4.71484 52.0818 4.71484C 51.7491 4.71484 51.4802 4.61914 51.2751 4.42773C 51.0746 4.23633 50.9743 3.99023 50.9743 3.68945ZM 57.7829 11.5439C 58.1475 11.5439 58.4437 11.4437 58.6716 11.2432C 58.8995 11.0426 59.018 10.776 59.0271 10.4434L 60.8796 10.4434C 60.8751 10.9447 60.7383 11.4049 60.4695 11.8242C 60.2006 12.2389 59.8314 12.5625 59.362 12.7949C 58.8972 13.0228 58.3822 13.1367 57.8171 13.1367C 56.7598 13.1367 55.9258 12.8018 55.3152 12.1318C 54.7045 11.4574 54.3991 10.5277 54.3991 9.34277L 54.3991 9.21289C 54.3991 8.07357 54.7022 7.16439 55.3083 6.48535C 55.9144 5.80631 56.7462 5.4668 57.8034 5.4668C 58.7286 5.4668 59.4691 5.73112 60.0251 6.25977C 60.5857 6.78385 60.8705 7.4834 60.8796 8.3584L 59.0271 8.3584C 59.018 7.97559 58.8995 7.66569 58.6716 7.42871C 58.4437 7.18717 58.143 7.06641 57.7693 7.06641C 57.309 7.06641 56.9603 7.23503 56.7234 7.57227C 56.4909 7.90495 56.3747 8.44727 56.3747 9.19922L 56.3747 9.4043C 56.3747 10.1654 56.4909 10.7122 56.7234 11.0449C 56.9558 11.3776 57.309 11.5439 57.7829 11.5439ZM 65.4118 13.1367C 64.3272 13.1367 63.4431 12.804 62.7595 12.1387C 62.0805 11.4733 61.7409 10.5869 61.7409 9.47949L 61.7409 9.28809C 61.7409 8.54525 61.8845 7.88216 62.1716 7.29883C 62.4587 6.71094 62.8643 6.25977 63.3884 5.94531C 63.9171 5.6263 64.5186 5.4668 65.1931 5.4668C 66.2048 5.4668 67.0001 5.78581 67.5788 6.42383C 68.1622 7.06185 68.4538 7.96647 68.4538 9.1377L 68.4538 9.94434L 63.7439 9.94434C 63.8077 10.4274 63.9991 10.8148 64.3181 11.1064C 64.6417 11.3981 65.0495 11.5439 65.5417 11.5439C 66.3028 11.5439 66.8975 11.2682 67.3259 10.7168L 68.2966 11.8037C 68.0004 12.223 67.5993 12.5511 67.0935 12.7881C 66.5876 13.0205 66.0271 13.1367 65.4118 13.1367ZM 65.1863 7.06641C 64.7943 7.06641 64.4753 7.19857 64.2292 7.46289C 63.9877 7.72721 63.8327 8.10547 63.7644 8.59766L 66.5124 8.59766L 66.5124 8.44043C 66.5033 8.00293 66.3848 7.66569 66.157 7.42871C 65.9291 7.18717 65.6055 7.06641 65.1863 7.06641ZM 75.0574 14.5449L 68.8298 14.5449L 68.8298 13L 75.0574 13L 75.0574 14.5449ZM 77.9148 13L 75.9324 13L 75.9324 2.5L 77.9148 2.5L 77.9148 13ZM 81.6335 13L 79.6511 13L 79.6511 5.60352L 81.6335 5.60352L 81.6335 13ZM 79.5349 3.68945C 79.5349 3.39323 79.6329 3.14941 79.8288 2.95801C 80.0294 2.7666 80.3005 2.6709 80.6423 2.6709C 80.9796 2.6709 81.2484 2.7666 81.449 2.95801C 81.6495 3.14941 81.7497 3.39323 81.7497 3.68945C 81.7497 3.99023 81.6472 4.23633 81.4421 4.42773C 81.2416 4.61914 80.975 4.71484 80.6423 4.71484C 80.3096 4.71484 80.0407 4.61914 79.8357 4.42773C 79.6351 4.23633 79.5349 3.99023 79.5349 3.68945ZM 85.0857 5.60352L 85.1472 6.45801C 85.6758 5.7972 86.3845 5.4668 87.2732 5.4668C 88.057 5.4668 88.6404 5.69694 89.0232 6.15723C 89.406 6.61751 89.6019 7.30566 89.6111 8.22168L 89.6111 13L 87.6355 13L 87.6355 8.26953C 87.6355 7.85026 87.5443 7.5472 87.362 7.36035C 87.1797 7.16895 86.8767 7.07324 86.4529 7.07324C 85.8969 7.07324 85.4799 7.31022 85.2019 7.78418L 85.2019 13L 83.2263 13L 83.2263 5.60352L 85.0857 5.60352ZM 94.5193 13.1367C 93.4346 13.1367 92.5505 12.804 91.8669 12.1387C 91.1879 11.4733 90.8484 10.5869 90.8484 9.47949L 90.8484 9.28809C 90.8484 8.54525 90.9919 7.88216 91.279 7.29883C 91.5661 6.71094 91.9717 6.25977 92.4958 5.94531C 93.0245 5.6263 93.626 5.4668 94.3005 5.4668C 95.3122 5.4668 96.1075 5.78581 96.6863 6.42383C 97.2696 7.06185 97.5613 7.96647 97.5613 9.1377L 97.5613 9.94434L 92.8513 9.94434C 92.9151 10.4274 93.1065 10.8148 93.4255 11.1064C 93.7491 11.3981 94.157 11.5439 94.6491 11.5439C 95.4102 11.5439 96.0049 11.2682 96.4333 10.7168L 97.404 11.8037C 97.1078 12.223 96.7068 12.5511 96.2009 12.7881C 95.695 13.0205 95.1345 13.1367 94.5193 13.1367ZM 94.2937 7.06641C 93.9018 7.06641 93.5827 7.19857 93.3366 7.46289C 93.0951 7.72721 92.9402 8.10547 92.8718 8.59766L 95.6199 8.59766L 95.6199 8.44043C 95.6107 8.00293 95.4922 7.66569 95.2644 7.42871C 95.0365 7.18717 94.7129 7.06641 94.2937 7.06641Z"/>
<path id="path15_fill" d="M 32.4011 13L 31.1365 13L 31.1365 5.60352L 32.4011 5.60352L 32.4011 13ZM 31.0339 3.6416C 31.0339 3.43652 31.0954 3.26335 31.2185 3.12207C 31.3461 2.98079 31.5329 2.91016 31.779 2.91016C 32.0251 2.91016 32.212 2.98079 32.3396 3.12207C 32.4672 3.26335 32.531 3.43652 32.531 3.6416C 32.531 3.84668 32.4672 4.01758 32.3396 4.1543C 32.212 4.29102 32.0251 4.35938 31.779 4.35938C 31.5329 4.35938 31.3461 4.29102 31.2185 4.1543C 31.0954 4.01758 31.0339 3.84668 31.0339 3.6416ZM 35.6277 5.60352L 35.6687 6.5332C 36.2338 5.82227 36.9721 5.4668 37.8835 5.4668C 39.4467 5.4668 40.2351 6.34863 40.2488 8.1123L 40.2488 13L 38.9841 13L 38.9841 8.10547C 38.9796 7.57227 38.8565 7.17806 38.615 6.92285C 38.378 6.66764 38.0066 6.54004 37.5007 6.54004C 37.0906 6.54004 36.7305 6.64941 36.4206 6.86816C 36.1107 7.08691 35.8692 7.37402 35.696 7.72949L 35.696 13L 34.4314 13L 34.4314 5.60352L 35.6277 5.60352ZM 44.5964 11.2842L 46.4284 5.60352L 47.7204 5.60352L 45.0681 13L 44.1042 13L 41.4245 5.60352L 42.7165 5.60352L 44.5964 11.2842ZM 48.4929 9.2334C 48.4929 8.50879 48.6342 7.8571 48.9167 7.27832C 49.2038 6.69954 49.6003 6.25293 50.1062 5.93848C 50.6166 5.62402 51.1976 5.4668 51.8493 5.4668C 52.8565 5.4668 53.67 5.81543 54.2898 6.5127C 54.9141 7.20996 55.2263 8.13737 55.2263 9.29492L 55.2263 9.38379C 55.2263 10.1038 55.0873 10.751 54.8093 11.3252C 54.5359 11.8949 54.1417 12.3392 53.6267 12.6582C 53.1163 12.9772 52.5284 13.1367 51.863 13.1367C 50.8604 13.1367 50.0469 12.7881 49.4226 12.0908C 48.8028 11.3936 48.4929 10.4707 48.4929 9.32227L 48.4929 9.2334ZM 49.7644 9.38379C 49.7644 10.2041 49.9535 10.8626 50.3318 11.3594C 50.7146 11.8561 51.225 12.1045 51.863 12.1045C 52.5056 12.1045 53.016 11.8538 53.3943 11.3525C 53.7725 10.8467 53.9616 10.1403 53.9616 9.2334C 53.9616 8.4222 53.768 7.76595 53.3806 7.26465C 52.9978 6.75879 52.4874 6.50586 51.8493 6.50586C 51.225 6.50586 50.7214 6.75423 50.3386 7.25098C 49.9558 7.74772 49.7644 8.45866 49.7644 9.38379ZM 58.1863 13L 56.9216 13L 56.9216 5.60352L 58.1863 5.60352L 58.1863 13ZM 56.8191 3.6416C 56.8191 3.43652 56.8806 3.26335 57.0036 3.12207C 57.1312 2.98079 57.3181 2.91016 57.5642 2.91016C 57.8103 2.91016 57.9971 2.98079 58.1247 3.12207C 58.2523 3.26335 58.3161 3.43652 58.3161 3.6416C 58.3161 3.84668 58.2523 4.01758 58.1247 4.1543C 57.9971 4.29102 57.8103 4.35938 57.5642 4.35938C 57.3181 4.35938 57.1312 4.29102 57.0036 4.1543C 56.8806 4.01758 56.8191 3.84668 56.8191 3.6416ZM 63.1833 12.1045C 63.6345 12.1045 64.0287 11.9678 64.3659 11.6943C 64.7032 11.4209 64.89 11.0791 64.9265 10.6689L 66.1228 10.6689C 66.1 11.0928 65.9542 11.4961 65.6853 11.8789C 65.4164 12.2617 65.0564 12.5671 64.6052 12.7949C 64.1586 13.0228 63.6846 13.1367 63.1833 13.1367C 62.1762 13.1367 61.3741 12.8018 60.7771 12.1318C 60.1846 11.4574 59.8884 10.5368 59.8884 9.37012L 59.8884 9.1582C 59.8884 8.43815 60.0206 7.79785 60.2849 7.2373C 60.5492 6.67676 60.9275 6.24154 61.4197 5.93164C 61.9164 5.62174 62.502 5.4668 63.1765 5.4668C 64.0059 5.4668 64.6941 5.71517 65.2409 6.21191C 65.7924 6.70866 66.0863 7.35352 66.1228 8.14648L 64.9265 8.14648C 64.89 7.66797 64.7077 7.27604 64.3796 6.9707C 64.056 6.66081 63.655 6.50586 63.1765 6.50586C 62.5339 6.50586 62.0349 6.73828 61.6794 7.20312C 61.3285 7.66341 61.1531 8.33105 61.1531 9.20605L 61.1531 9.44531C 61.1531 10.2975 61.3285 10.9538 61.6794 11.4141C 62.0303 11.8743 62.5316 12.1045 63.1833 12.1045ZM 70.614 13.1367C 69.6114 13.1367 68.7956 12.8086 68.1667 12.1523C 67.5378 11.4915 67.2234 10.6097 67.2234 9.50684L 67.2234 9.27441C 67.2234 8.54069 67.3624 7.88672 67.6404 7.3125C 67.9229 6.73372 68.3148 6.28255 68.8161 5.95898C 69.322 5.63086 69.8689 5.4668 70.4568 5.4668C 71.4184 5.4668 72.1657 5.78353 72.699 6.41699C 73.2322 7.05046 73.4988 7.95736 73.4988 9.1377L 73.4988 9.66406L 68.488 9.66406C 68.5062 10.3932 68.7182 10.9834 69.1238 11.4346C 69.5339 11.8812 70.0534 12.1045 70.6824 12.1045C 71.129 12.1045 71.5072 12.0133 71.8171 11.8311C 72.127 11.6488 72.3982 11.4072 72.6306 11.1064L 73.4031 11.708C 72.7833 12.6605 71.8536 13.1367 70.614 13.1367ZM 70.4568 6.50586C 69.9463 6.50586 69.518 6.69271 69.1716 7.06641C 68.8253 7.43555 68.6111 7.95508 68.529 8.625L 72.2341 8.625L 72.2341 8.5293C 72.1976 7.88672 72.0245 7.38997 71.7146 7.03906C 71.4047 6.68359 70.9854 6.50586 70.4568 6.50586ZM 80.3005 14.0322L 74.0388 14.0322L 74.0388 13L 80.3005 13L 80.3005 14.0322ZM 82.6589 13L 81.3943 13L 81.3943 5.60352L 82.6589 5.60352L 82.6589 13ZM 81.2917 3.6416C 81.2917 3.43652 81.3532 3.26335 81.4763 3.12207C 81.6039 2.98079 81.7907 2.91016 82.0368 2.91016C 82.2829 2.91016 82.4698 2.98079 82.5974 3.12207C 82.725 3.26335 82.7888 3.43652 82.7888 3.6416C 82.7888 3.84668 82.725 4.01758 82.5974 4.1543C 82.4698 4.29102 82.2829 4.35938 82.0368 4.35938C 81.7907 4.35938 81.6039 4.29102 81.4763 4.1543C 81.3532 4.01758 81.2917 3.84668 81.2917 3.6416ZM 84.3816 9.24023C 84.3816 8.10547 84.6504 7.19401 85.1882 6.50586C 85.726 5.81315 86.4301 5.4668 87.3005 5.4668C 88.1664 5.4668 88.8523 5.76302 89.3581 6.35547L 89.3581 2.5L 90.6228 2.5L 90.6228 13L 89.4607 13L 89.3991 12.207C 88.8933 12.8268 88.1892 13.1367 87.2868 13.1367C 86.4301 13.1367 85.7305 12.7858 85.1882 12.084C 84.6504 11.3822 84.3816 10.4661 84.3816 9.33594L 84.3816 9.24023ZM 85.6462 9.38379C 85.6462 10.2223 85.8194 10.8786 86.1657 11.3525C 86.5121 11.8265 86.9906 12.0635 87.6013 12.0635C 88.4034 12.0635 88.989 11.7035 89.3581 10.9834L 89.3581 7.58594C 88.9799 6.88867 88.3988 6.54004 87.615 6.54004C 86.9952 6.54004 86.5121 6.7793 86.1657 7.25781C 85.8194 7.73633 85.6462 8.44499 85.6462 9.38379Z"/>
<path id="path16_fill" d="M 36.3933 9.24023C 36.3933 8.07812 36.6599 7.15983 37.1931 6.48535C 37.7263 5.80631 38.4418 5.4668 39.3396 5.4668C 40.2146 5.4668 40.905 5.76074 41.4109 6.34863L 41.4656 5.60352L 42.6277 5.60352L 42.6277 15.8438L 41.363 15.8438L 41.363 12.3164C 40.8526 12.8633 40.1736 13.1367 39.3259 13.1367C 38.4327 13.1367 37.7195 12.7904 37.1863 12.0977C 36.6576 11.4004 36.3933 10.4775 36.3933 9.3291L 36.3933 9.24023ZM 37.6579 9.38379C 37.6579 10.2314 37.8357 10.8968 38.1911 11.3799C 38.5512 11.863 39.0342 12.1045 39.6404 12.1045C 40.3923 12.1045 40.9665 11.7718 41.363 11.1064L 41.363 7.4834C 40.962 6.83171 40.3923 6.50586 39.654 6.50586C 39.0434 6.50586 38.558 6.74967 38.198 7.2373C 37.8379 7.72038 37.6579 8.43587 37.6579 9.38379ZM 49.2243 12.2686C 48.7322 12.8473 48.0098 13.1367 47.0574 13.1367C 46.2689 13.1367 45.6674 12.9089 45.2527 12.4531C 44.8425 11.9928 44.6351 11.3138 44.6306 10.416L 44.6306 5.60352L 45.8952 5.60352L 45.8952 10.3818C 45.8952 11.5029 46.351 12.0635 47.2624 12.0635C 48.2286 12.0635 48.8712 11.7035 49.1902 10.9834L 49.1902 5.60352L 50.4548 5.60352L 50.4548 13L 49.2517 13L 49.2243 12.2686ZM 56.949 13C 56.876 12.8542 56.8168 12.5944 56.7712 12.2207C 56.1833 12.8314 55.4815 13.1367 54.6657 13.1367C 53.9366 13.1367 53.3373 12.9316 52.8679 12.5215C 52.4031 12.1068 52.1706 11.5827 52.1706 10.9492C 52.1706 10.179 52.4623 9.58203 53.0456 9.1582C 53.6335 8.72982 54.4584 8.51562 55.5202 8.51562L 56.7507 8.51562L 56.7507 7.93457C 56.7507 7.49251 56.6185 7.1416 56.3542 6.88184C 56.0899 6.61751 55.7003 6.48535 55.1853 6.48535C 54.7341 6.48535 54.3559 6.59928 54.0505 6.82715C 53.7452 7.05501 53.5925 7.33073 53.5925 7.6543L 52.321 7.6543C 52.321 7.28516 52.4509 6.92969 52.7107 6.58789C 52.975 6.24154 53.3305 5.9681 53.7771 5.76758C 54.2282 5.56706 54.7227 5.4668 55.2605 5.4668C 56.1127 5.4668 56.7803 5.68099 57.2634 6.10938C 57.7465 6.5332 57.9971 7.11882 58.0154 7.86621L 58.0154 11.2705C 58.0154 11.9495 58.1019 12.4896 58.2751 12.8906L 58.2751 13L 56.949 13ZM 54.8503 12.0361C 55.2468 12.0361 55.6228 11.9336 55.9782 11.7285C 56.3337 11.5234 56.5912 11.2568 56.7507 10.9287L 56.7507 9.41113L 55.7595 9.41113C 54.21 9.41113 53.4353 9.86458 53.4353 10.7715C 53.4353 11.168 53.5674 11.4779 53.8318 11.7012C 54.0961 11.9245 54.4356 12.0361 54.8503 12.0361ZM 61.1941 5.60352L 61.2351 6.5332C 61.8002 5.82227 62.5385 5.4668 63.4499 5.4668C 65.0131 5.4668 65.8015 6.34863 65.8152 8.1123L 65.8152 13L 64.5505 13L 64.5505 8.10547C 64.546 7.57227 64.4229 7.17806 64.1814 6.92285C 63.9444 6.66764 63.573 6.54004 63.0671 6.54004C 62.657 6.54004 62.2969 6.64941 61.987 6.86816C 61.6771 7.08691 61.4356 7.37402 61.2624 7.72949L 61.2624 13L 59.9978 13L 59.9978 5.60352L 61.1941 5.60352ZM 69.4382 3.8125L 69.4382 5.60352L 70.8191 5.60352L 70.8191 6.58105L 69.4382 6.58105L 69.4382 11.168C 69.4382 11.4642 69.4997 11.6875 69.6228 11.8379C 69.7458 11.9837 69.9555 12.0566 70.2517 12.0566C 70.3975 12.0566 70.598 12.0293 70.8532 11.9746L 70.8532 13C 70.5206 13.0911 70.197 13.1367 69.8825 13.1367C 69.3174 13.1367 68.8913 12.9658 68.6042 12.624C 68.3171 12.2822 68.1736 11.7969 68.1736 11.168L 68.1736 6.58105L 66.8269 6.58105L 66.8269 5.60352L 68.1736 5.60352L 68.1736 3.8125L 69.4382 3.8125ZM 73.6765 13L 72.4118 13L 72.4118 5.60352L 73.6765 5.60352L 73.6765 13ZM 72.3093 3.6416C 72.3093 3.43652 72.3708 3.26335 72.4939 3.12207C 72.6215 2.98079 72.8083 2.91016 73.0544 2.91016C 73.3005 2.91016 73.4874 2.98079 73.615 3.12207C 73.7426 3.26335 73.8064 3.43652 73.8064 3.6416C 73.8064 3.84668 73.7426 4.01758 73.615 4.1543C 73.4874 4.29102 73.3005 4.35938 73.0544 4.35938C 72.8083 4.35938 72.6215 4.29102 72.4939 4.1543C 72.3708 4.01758 72.3093 3.84668 72.3093 3.6416ZM 77.4226 3.8125L 77.4226 5.60352L 78.8034 5.60352L 78.8034 6.58105L 77.4226 6.58105L 77.4226 11.168C 77.4226 11.4642 77.4841 11.6875 77.6072 11.8379C 77.7302 11.9837 77.9398 12.0566 78.2361 12.0566C 78.3819 12.0566 78.5824 12.0293 78.8376 11.9746L 78.8376 13C 78.5049 13.0911 78.1814 13.1367 77.8669 13.1367C 77.3018 13.1367 76.8757 12.9658 76.5886 12.624C 76.3015 12.2822 76.1579 11.7969 76.1579 11.168L 76.1579 6.58105L 74.8113 6.58105L 74.8113 5.60352L 76.1579 5.60352L 76.1579 3.8125L 77.4226 3.8125ZM 82.7068 11.1475L 84.4294 5.60352L 85.7829 5.60352L 82.8093 14.1416C 82.349 15.3721 81.6176 15.9873 80.615 15.9873L 80.3757 15.9668L 79.904 15.8779L 79.904 14.8525L 80.2458 14.8799C 80.6742 14.8799 81.0069 14.7933 81.2439 14.6201C 81.4854 14.4469 81.6837 14.1302 81.8386 13.6699L 82.1189 12.918L 79.4802 5.60352L 80.8611 5.60352L 82.7068 11.1475Z"/>
<path id="path17_stroke" d="M 0 0L 12 0L 12 -2L 0 -2L 0 0Z"/>
<path id="path18_stroke" d="M 0 0L 82.8553 0L 82.8553 -2L 0 -2L 0 0Z"/>
<path id="path19_stroke" d="M 0 0L 11 0L 11 -2L 0 -2L 0 0Z"/>
<path id="path20_stroke" d="M 0 0L 68.0147 0L 68.0147 -2L 0 -2L 0 0Z"/>
</defs>
</svg>
